<?xml version="1.0" encoding="utf-8"?>
<!-- Generator: Adobe Illustrator 25.2.3, SVG Export Plug-In . SVG Version: 6.00 Build 0)  -->
<svg version="1.1" id="Laag_1" xmlns="http://www.w3.org/2000/svg" xmlns:xlink="http://www.w3.org/1999/xlink" x="0px" y="0px"
	 viewBox="0 0 80.5 80.5" style="enable-background:new 0 0 80.5 80.5;" xml:space="preserve">
<path d="M40.3,80.5c-11.1,0-20.7-3.9-28.6-11.7C3.9,61,0,51.4,0,40.3s3.9-20.7,11.7-28.5C19.6,4,29.2,0,40.3,0
	c11.1,0,20.6,4,28.5,11.8s11.8,17.4,11.8,28.5s-4,20.7-11.8,28.5C60.9,76.6,51.4,80.5,40.3,80.5z M40.3,3C30,3,21.1,6.7,13.9,13.9
	C6.7,21.1,3,30,3,40.3s3.7,19.2,10.9,26.4c7.2,7.2,16.1,10.8,26.4,10.8c10.2,0,19.1-3.6,26.3-10.8c7.2-7.2,10.9-16.1,10.9-26.4
	s-3.7-19.2-10.9-26.4C59.4,6.7,50.5,3,40.3,3z"/>
<path d="M40.3,63.8c-0.8,0-1.5-0.7-1.5-1.5V41.8H18.2c-0.8,0-1.5-0.7-1.5-1.5s0.7-1.5,1.5-1.5h22.1c0.8,0,1.5,0.7,1.5,1.5v22
	C41.8,63.1,41.1,63.8,40.3,63.8z"/>
<path d="M62.3,41.8H40.3c-0.8,0-1.5-0.7-1.5-1.5V18.1c0-0.8,0.7-1.5,1.5-1.5s1.5,0.7,1.5,1.5v20.6h20.6c0.8,0,1.5,0.7,1.5,1.5
	S63.2,41.8,62.3,41.8z"/>
</svg>
