<?xml version="1.0" encoding="utf-8"?>
<!-- Generator: Adobe Illustrator 25.3.0, SVG Export Plug-In . SVG Version: 6.00 Build 0)  -->
<svg version="1.1" id="Laag_1" xmlns="http://www.w3.org/2000/svg" xmlns:xlink="http://www.w3.org/1999/xlink" x="0px" y="0px"
	 viewBox="0 0 80.5 80.5" style="enable-background:new 0 0 80.5 80.5;" xml:space="preserve">
<style type="text/css">
	.st0{fill:#FFFFFF;}
</style>
<g>
	<path class="st0" d="M56.1,56c-0.6,0.6-1.5,0.6-2,0L40.3,42.3L26.5,56.1c-0.6,0.6-1.5,0.6-2,0c-0.6-0.6-0.6-1.5,0-2l14.8-14.8
		c0.6-0.6,1.5-0.6,2,0L56.1,54C56.6,54.6,56.7,55.5,56.1,56z"/>
	<path class="st0" d="M56.1,26.5L41.3,41.3c-0.6,0.6-1.5,0.6-2,0L24.4,26.4c-0.6-0.6-0.6-1.5,0-2c0.6-0.6,1.5-0.6,2,0l13.9,13.9
		l13.8-13.8c0.6-0.6,1.5-0.6,2,0C56.7,25,56.7,25.9,56.1,26.5z"/>
</g>
</svg>
