<?xml version="1.0" encoding="utf-8"?>
<!-- Generator: Adobe Illustrator 25.2.3, SVG Export Plug-In . SVG Version: 6.00 Build 0)  -->
<svg version="1.1" id="Laag_1" xmlns="http://www.w3.org/2000/svg" xmlns:xlink="http://www.w3.org/1999/xlink" x="0px" y="0px"
	 viewBox="0 0 248.8 166" style="enable-background:new 0 0 248.8 166;" xml:space="preserve">
<style type="text/css">
	.Slagschaduw{fill:none;}
	.Afgeronde_x0020_hoeken_x0020_2_x0020_pt{fill:#FFFFFF;stroke:#000000;stroke-miterlimit:10;}
	.X_x0020_actief_x0020_weerspiegelen{fill:none;}
	.Zachte_x0020_schuine_x0020_kant{fill:url(#SVGID_1_);}
	.Schemering{fill:#FFFFFF;}
	.Gebladerte_AS{fill:#FFDD00;}
	.Pompadoer_AS{fill-rule:evenodd;clip-rule:evenodd;fill:#51AEE2;}
	.st0{fill:#010202;}
	.st1{clip-path:url(#SVGID_3_);fill:url(#SVGID_4_);}
	.st2{clip-path:url(#SVGID_6_);fill:url(#SVGID_7_);}
	.st3{fill:#4A494A;}
	.st4{clip-path:url(#SVGID_9_);fill:url(#SVGID_10_);}
	.st5{clip-path:url(#SVGID_12_);fill:url(#SVGID_13_);}
	.st6{clip-path:url(#SVGID_15_);fill:url(#SVGID_16_);}
	.st7{clip-path:url(#SVGID_18_);fill:url(#SVGID_19_);}
	.st8{clip-path:url(#SVGID_21_);fill:url(#SVGID_22_);}
	.st9{fill:#E52421;}
	.st10{fill:#030304;}
	.st11{clip-path:url(#SVGID_24_);fill:url(#SVGID_25_);}
	.st12{clip-path:url(#SVGID_27_);fill:url(#SVGID_28_);}
	.st13{clip-path:url(#SVGID_30_);fill:url(#SVGID_31_);}
	.st14{clip-path:url(#SVGID_33_);fill:url(#SVGID_34_);}
	.st15{clip-path:url(#SVGID_36_);fill:url(#SVGID_37_);}
	.st16{clip-path:url(#SVGID_39_);fill:url(#SVGID_40_);}
	.st17{clip-path:url(#SVGID_42_);fill:url(#SVGID_43_);}
	.st18{clip-path:url(#SVGID_45_);fill:url(#SVGID_46_);}
	.st19{clip-path:url(#SVGID_48_);fill:url(#SVGID_49_);}
	.st20{clip-path:url(#SVGID_51_);fill:url(#SVGID_52_);}
	.st21{clip-path:url(#SVGID_54_);fill:url(#SVGID_55_);}
</style>
<linearGradient id="SVGID_1_" gradientUnits="userSpaceOnUse" x1="65.8943" y1="26.3822" x2="66.6014" y2="27.0893">
	<stop  offset="0" style="stop-color:#E6E6EB"/>
	<stop  offset="0.1738" style="stop-color:#E2E2E6"/>
	<stop  offset="0.352" style="stop-color:#D5D4D8"/>
	<stop  offset="0.5323" style="stop-color:#C0BFC2"/>
	<stop  offset="0.7139" style="stop-color:#A4A2A4"/>
	<stop  offset="0.8949" style="stop-color:#828282"/>
	<stop  offset="1" style="stop-color:#6B6E6E"/>
</linearGradient>
<g>
	<path class="st0" d="M73.6,122c0,0,4.1,12.4,8.3,15.7C86,141,118.3,152,121.6,152c3.3,0,16-3.8,18.7-9.5
		C142.9,136.9,73.6,122,73.6,122"/>
	<g>
		<defs>
			<path id="SVGID_2_" d="M133.7,130.9c-11.9-5.3-19.3-7.4-35.6-12.4c-16.3-5-45.3-8.9-45.3-8.9c-20.2-1.8-26.1-7.4-26.1-7.4
				s-32.6-19.6-9.2-59c16.9-28.5,39-32.8,51.2-32.8c4.7,0,7.9,0.6,8.7,0.8c3,0.6,19.3,5.3,32.6,8.6c13.3,3.3,44.5,7.7,61.1,8.9
				c16.6,1.2,23.1,5.6,23.1,5.6s18.1,5,30.8,29.3c12.7,24.3,2.4,45.9,2.4,45.9s-6.5,17.2-30.5,28.5c-6.8,3.2-14,4.4-20.9,4.4
				C158.5,142.5,142.2,134.7,133.7,130.9 M9.1,44.1c-13.8,37.3,0.7,57.8,8.7,67.3c8,9.5,46.2,12.4,64,16.6
				c17.8,4.1,61.1,20.5,63.1,21.3c2,0.9,15.2,7.7,39.2,7.7c1,0,1.9,0,2.9,0c25.8-0.6,46.2-28.5,46.2-28.5s19.6-25.8,3.3-65.2
				c-16.3-39.4-61.4-40.6-61.4-40.6s-35.9-3.6-88.9-16.6C80.3,4.7,74.6,4,69.4,4C28.1,4,9.1,44.1,9.1,44.1"/>
		</defs>
		<clipPath id="SVGID_3_">
			<use xlink:href="#SVGID_2_"  style="overflow:visible;"/>
		</clipPath>
		
			<radialGradient id="SVGID_4_" cx="-473.8934" cy="496.1797" r="1" gradientTransform="matrix(100.5349 0 0 -100.5349 47837.1797 49934.5508)" gradientUnits="userSpaceOnUse">
			<stop  offset="0" style="stop-color:#9F9F9F"/>
			<stop  offset="0.929" style="stop-color:#575756"/>
			<stop  offset="1" style="stop-color:#575756"/>
		</radialGradient>
		<rect x="-5.8" y="4" class="st1" width="258.7" height="153"/>
	</g>
	<g>
		<defs>
			<path id="SVGID_5_" d="M183.7,105.1c0,0-2.7,9.6,7.8,14.2c2.1,0.9,4,1.3,5.6,1.3c6.6,0,9.7-6.4,9.9-10.5c0.2-4-2.4-10.1-8.5-11.9
				c-1.3-0.4-2.6-0.5-3.9-0.5C189.7,97.8,185.1,100.4,183.7,105.1 M192.6,67.3c0,0-2.7,9.6,7.8,14.2c2.1,0.9,4,1.3,5.6,1.3
				c6.6,0,9.7-6.4,9.9-10.5c0.2-4-2.4-10.1-8.5-11.8c-1.3-0.4-2.6-0.5-3.9-0.5C198.6,59.9,194,62.5,192.6,67.3 M191.2,119.7
				c-11.9-4-8.5-15.5-8.5-15.5c1.5-5.2,6.5-8,11.9-8c1.4,0,2.8,0.2,4.2,0.6c6.7,1.9,9.4,8.4,9.3,11.4c-0.2,5-2.9,12.5-11.1,12.5
				C195.3,120.8,193.4,120.5,191.2,119.7 M200.1,81.9c-11.9-4-8.5-15.5-8.5-15.5c1.5-5.2,6.5-8,11.9-8c1.4,0,2.8,0.2,4.2,0.6
				c6.7,1.9,9.4,8.4,9.3,11.4c-0.2,5-2.9,12.5-11.1,12.5C204.2,82.9,202.3,82.6,200.1,81.9 M76.7,90.1l-2-1.3l18.7-55.1l90.7,19.6
				l-15.6,58.7l-1.8,2L76.7,90.1z M17.5,43.2c-23.4,39.4,9.2,59,9.2,59s5.9,5.6,26.1,7.4c0,0,29,3.9,45.3,8.9
				c16.3,5,23.7,7.1,35.6,12.4c8.5,3.8,24.8,11.6,42.2,11.6c6.9,0,14.1-1.2,20.9-4.4c24-11.3,30.5-28.5,30.5-28.5
				s10.4-21.6-2.4-45.9c-12.7-24.3-30.8-29.3-30.8-29.3s-6.5-4.4-23.1-5.6c-16.6-1.2-47.7-5.6-61.1-8.9c-13.3-3.3-29.6-8-32.6-8.6
				c-0.8-0.2-4-0.8-8.7-0.8C56.6,10.4,34.4,14.7,17.5,43.2"/>
		</defs>
		<clipPath id="SVGID_6_">
			<use xlink:href="#SVGID_5_"  style="overflow:visible;"/>
		</clipPath>
		
			<radialGradient id="SVGID_7_" cx="-480.1913" cy="498.8932" r="1" gradientTransform="matrix(-160.6991 58.4573 58.4573 160.6991 -106143.3359 -52051.2148)" gradientUnits="userSpaceOnUse">
			<stop  offset="0" style="stop-color:#FFFFFF"/>
			<stop  offset="0.929" style="stop-color:#E7E7E7"/>
			<stop  offset="1" style="stop-color:#E7E7E7"/>
		</radialGradient>
		<polygon class="st2" points="280.2,127 22.6,220.7 -48.3,25.8 209.3,-67.9 		"/>
	</g>
	<polygon class="st3" points="93.4,33.6 74.7,88.8 76.7,90.1 166.8,113.9 168.5,111.9 184.1,53.2 	"/>
	<g>
		<defs>
			<path id="SVGID_8_" d="M182.1,55L182.1,55L182.1,55z M135.9,102.2c-0.1-0.1-0.2-0.2-0.2-0.3l0.5-0.1l1.3,0.3l0,0.5L135.9,102.2z
				 M137.6,102.2l0.4-1.1l0.4-0.2l0.1,0.1l-0.5,1.5c-0.1,0.1-0.2,0.2-0.4,0.2h0L137.6,102.2z M136.6,100.6l-0.1-0.3l0.3-0.2l1.4,0.3
				l0.1,0.3l-0.3,0.2L136.6,100.6z M133.8,101.3l0.4-1.2l0.3-0.2l0.1,0.3l-0.5,1.4c-0.1,0.1-0.2,0.2-0.4,0.2L133.8,101.3z
				 M124.1,99.3c-0.1-0.1-0.2-0.2-0.2-0.3l0.5-0.1l1.3,0.3l0,0.5L124.1,99.3z M130,100.5l0.5-1.5l0.1-0.1l0.2,0.4l-0.4,1.1l-0.3,0.4
				C130.1,100.8,130,100.7,130,100.5 M130.9,99.2l-0.1-0.3l0.3-0.2l1.4,0.3l0.1,0.3l-0.3,0.2L130.9,99.2z M136.3,100.1l0.5-1.4
				l0.4,0.3l-0.3,1l-0.4,0.2L136.3,100.1z M137.2,98.9l-0.4-0.3c0.1-0.1,0.2-0.2,0.4-0.2l1.7,0.4c0.1,0.1,0.2,0.2,0.2,0.3l-0.5,0.1
				L137.2,98.9z M134.4,99.5l0.4-1.1l0.4,0.1l-0.4,1.1l-0.3,0.2L134.4,99.5z M125.8,99.3l0.4-1.1l0.4-0.2l0.1,0.1l-0.5,1.5
				c-0.1,0.1-0.2,0.2-0.4,0.2h0L125.8,99.3z M134.4,98.2l-0.4-0.3c0.1-0.1,0.2-0.2,0.4-0.2l1.7,0.4c0.1,0.1,0.2,0.2,0.2,0.3
				l-0.5,0.1L134.4,98.2z M132.6,99l0.4-1.1l0.2-0.1l0.2,0.3l-0.4,1.2l-0.1,0.1L132.6,99z M118.1,97.9l0.1-0.3l0.5-0.1l1.3,0.3
				l0.1,0.3l-0.3,0.2L118.1,97.9z M130.6,98.7l0.5-1.4l0.4,0.3l-0.3,1l-0.4,0.2L130.6,98.7z M124.8,97.7l-0.1-0.3l0.3-0.2l1.4,0.3
				l0.1,0.3l-0.3,0.2L124.8,97.7z M123,98.6l0.4-1.1l0.4-0.2l0.1,0.1l-0.5,1.5c-0.1,0.1-0.2,0.2-0.4,0.2h0L123,98.6z M131.5,97.5
				l-0.4-0.3l0.1-0.3l1.7,0.4l0.1,0.3l-0.3,0.2L131.5,97.5z M121.1,98.3l0.5-1.5l0.1-0.1l0.2,0.4l-0.4,1.1l-0.3,0.4
				C121.1,98.6,121.1,98.5,121.1,98.3 M122,97l-0.1-0.3l0.3-0.2l1.4,0.3l0.1,0.3l-0.3,0.2L122,97z M120.1,97.9l0.4-1.1l0.4-0.2
				l0.1,0.1l-0.4,1.2l-0.4,0.2L120.1,97.9z M118.7,96.1l0.1-0.1l0.2,0.4l-0.3,1l-0.5,0.1L118.7,96.1z M126.4,97.5l0.4-1.1l0.3-0.4
				c0.1,0.1,0.2,0.2,0.2,0.3l-0.5,1.5l-0.1,0.1L126.4,97.5z M124.5,97.2l0.5-1.5l0.4,0.3l-0.4,1.2l-0.4,0.2L124.5,97.2z M123.6,96.8
				l0.4-1.1l0.3-0.4c0.1,0.1,0.2,0.2,0.2,0.3l-0.5,1.5l-0.1,0.1L123.6,96.8z M121.7,96.5l0.5-1.4l0.4,0.3l-0.3,1l-0.4,0.2
				L121.7,96.5z M122.6,95.3l-0.4-0.3c0.1-0.1,0.2-0.2,0.4-0.2l1.6,0.4l-0.3,0.4L122.6,95.3z M120.8,96.1l0.4-1.1l0.2-0.1l0.2,0.3
				l-0.4,1.2l-0.1,0.1L120.8,96.1z M118.8,95.8l0.5-1.4l0.4,0.3l-0.3,1l-0.4,0.2L118.8,95.8z M119.7,94.6l-0.4-0.3l0.1-0.3l1.7,0.4
				l0.1,0.3l-0.3,0.2L119.7,94.6z M130.8,90.8l5.6-21.8l12.9,2.9l-5.6,21.8L130.8,90.8z M96.9,58.4c0-0.6,0.4-1,1-1c0.6,0,1,0.4,1,1
				c0,0.6-0.4,1-1,1C97.4,59.4,96.9,58.9,96.9,58.4 M95.1,63.3c0.1-0.6,0.2-2.9-0.2-3.7c-0.4-0.8-1.4-3.4-1-4
				c0.1-0.1,0.1-0.2,0.2-0.2c0.4,0,0.8,1.2,1.5,3c0.8,2.1,5.7,3.1,5.7,3.1c0.5,0.1,1.1,0.7,1,1.2c0,0.2-0.2,0.3-0.4,0.3
				c-0.4,0-1.1-0.2-2.2-0.7c-0.8-0.3-1.2-0.5-1.5-0.5c-0.4,0-0.5,0.2-0.7,0.4c-0.3,0.3,0.1,0.8,0.4,1.3c0.3,0.5,1,1.2,0.6,3.9
				c-0.3,1.7-0.8,2.2-1.1,2.2c-0.2,0-0.4-0.2-0.5-0.3c-0.2-0.4,0.5-1.7,0.6-2.5c0.1-0.8-0.6-2.1-0.9-2.6c0,0-0.1-0.1-0.1-0.1
				c-0.3,0-0.5,1.4-0.6,2c-0.1,0.4-0.2,0.8-0.6,0.8c-0.2,0-0.6-0.2-1.1-0.6c-1.4-1.1-2-2.9-1.5-3.3c0.1,0,0.1-0.1,0.2-0.1
				c0.4,0,0.8,1.2,1.6,2c0.2,0.2,0.3,0.2,0.4,0.2C95.1,65.3,95,63.8,95.1,63.3 M76.7,90.1l90,23.8L182,55.5l-17.3,11.9l-63.2-13.3
				L95,36.9L76.7,90.1z M102,53.5l62.5,13.1l17.1-11.8l-86-18.5L102,53.5z"/>
		</defs>
		<clipPath id="SVGID_9_">
			<use xlink:href="#SVGID_8_"  style="overflow:visible;"/>
		</clipPath>
		
			<linearGradient id="SVGID_10_" gradientUnits="userSpaceOnUse" x1="-474.6061" y1="497.3247" x2="-473.6061" y2="497.3247" gradientTransform="matrix(121.3669 33.2432 33.2432 -121.3669 41158.082 76200.3125)">
			<stop  offset="0" style="stop-color:#00B3D4"/>
			<stop  offset="0.4415" style="stop-color:#81CEEB"/>
			<stop  offset="1" style="stop-color:#81CEEB"/>
		</linearGradient>
		<polygon class="st4" points="84.1,9.5 201.8,41.8 174.8,140.7 57,108.5 		"/>
	</g>
	<g>
		<defs>
			<path id="SVGID_11_" d="M195.2,70.2c-0.5,4.1,4.1,9,8.3,9c4.1,0,7.3-1.6,8.3-7.3c0.7-4.1-3.7-8.4-7.8-8.4
				C199.8,63.4,195.9,64.6,195.2,70.2"/>
		</defs>
		<clipPath id="SVGID_12_">
			<use xlink:href="#SVGID_11_"  style="overflow:visible;"/>
		</clipPath>
		
			<radialGradient id="SVGID_13_" cx="-437.3552" cy="485.7487" r="1" gradientTransform="matrix(10.392 0 0 -10.392 4750.8765 5115.9976)" gradientUnits="userSpaceOnUse">
			<stop  offset="0" style="stop-color:#9F9F9F"/>
			<stop  offset="0.3653" style="stop-color:#9F9F9F"/>
			<stop  offset="1" style="stop-color:#000000"/>
		</radialGradient>
		<rect x="194.7" y="63.4" class="st5" width="17.7" height="15.7"/>
	</g>
	<g>
		<defs>
			<path id="SVGID_14_" d="M186.9,108.3c-0.5,4.1,4.1,9,8.3,9c4.1,0,7.3-1.6,8.3-7.3c0.7-4.1-3.7-8.4-7.8-8.4
				C191.5,101.5,187.6,102.7,186.9,108.3"/>
		</defs>
		<clipPath id="SVGID_15_">
			<use xlink:href="#SVGID_14_"  style="overflow:visible;"/>
		</clipPath>
		
			<radialGradient id="SVGID_16_" cx="-432.9238" cy="484.4836" r="1" gradientTransform="matrix(9.3728 0 0 -9.3728 4253.9209 4648.54)" gradientUnits="userSpaceOnUse">
			<stop  offset="0" style="stop-color:#9F9F9F"/>
			<stop  offset="0.3653" style="stop-color:#9F9F9F"/>
			<stop  offset="1" style="stop-color:#000000"/>
		</radialGradient>
		<rect x="186.4" y="101.5" class="st6" width="17.7" height="15.7"/>
	</g>
	<g>
		<defs>
			<path id="SVGID_17_" d="M200.4,81.5c-10.6-4.6-7.8-14.2-7.8-14.2c1.4-4.7,6-7.4,10.9-7.4c1.3,0,2.6,0.2,3.9,0.5
				c6.1,1.8,8.7,7.9,8.5,11.8c-0.2,4.1-3.2,10.5-9.9,10.5C204.4,82.8,202.5,82.4,200.4,81.5 M191.6,66.4c0,0-3.4,11.5,8.5,15.5
				c2.2,0.7,4.1,1.1,5.8,1.1c8.1,0,10.9-7.5,11.1-12.5c0.1-3-2.6-9.5-9.3-11.4c-1.4-0.4-2.8-0.6-4.2-0.6
				C198.1,58.4,193.1,61.2,191.6,66.4"/>
		</defs>
		<clipPath id="SVGID_18_">
			<use xlink:href="#SVGID_17_"  style="overflow:visible;"/>
		</clipPath>
		
			<radialGradient id="SVGID_19_" cx="-480.1913" cy="498.8932" r="1" gradientTransform="matrix(-160.6991 58.4573 58.4573 160.6991 -106143.3359 -52051.2148)" gradientUnits="userSpaceOnUse">
			<stop  offset="0" style="stop-color:#504E54"/>
			<stop  offset="0.929" style="stop-color:#49474C"/>
			<stop  offset="1" style="stop-color:#49474C"/>
		</radialGradient>
		<polygon class="st7" points="225,80.1 191.6,92.2 180.3,61.2 213.7,49.1 		"/>
	</g>
	<g>
		<defs>
			<path id="SVGID_20_" d="M191.6,119.4c-10.6-4.6-7.8-14.2-7.8-14.2c1.4-4.7,6-7.4,10.9-7.4c1.3,0,2.6,0.2,3.9,0.5
				c6.1,1.8,8.7,7.9,8.5,11.9c-0.2,4.1-3.2,10.5-9.9,10.5C195.5,120.7,193.7,120.3,191.6,119.4 M182.7,104.2c0,0-3.4,11.5,8.5,15.5
				c2.2,0.7,4.1,1.1,5.8,1.1c8.1,0,10.9-7.5,11.1-12.5c0.1-3-2.6-9.5-9.3-11.4c-1.4-0.4-2.8-0.6-4.2-0.6
				C189.3,96.2,184.2,99.1,182.7,104.2"/>
		</defs>
		<clipPath id="SVGID_21_">
			<use xlink:href="#SVGID_20_"  style="overflow:visible;"/>
		</clipPath>
		
			<radialGradient id="SVGID_22_" cx="-480.1913" cy="498.8932" r="1" gradientTransform="matrix(-160.6991 58.4573 58.4573 160.6991 -106143.3359 -52051.2148)" gradientUnits="userSpaceOnUse">
			<stop  offset="0" style="stop-color:#504E54"/>
			<stop  offset="0.929" style="stop-color:#49474C"/>
			<stop  offset="1" style="stop-color:#49474C"/>
		</radialGradient>
		<polygon class="st8" points="216.1,117.9 182.7,130.1 171.5,99.1 204.8,87 		"/>
	</g>
	<path class="st9" d="M47,95.7c-0.5,0.1-1.1,0.1-1.6,0.1c-1.9-0.1-3.8-0.6-5.5-1.5c-1.2-0.7-2.3-1.5-3.3-2.5c-0.9-1-1.6-2-2.2-3.2
		c-0.8-1.6-1.2-3.3-1.5-5c-0.2-1.4-0.2-2.8,0-4.2c0.1-0.7,0.4-1.4,0.6-2c0.1-0.4,0.2-0.7,0.4-1c0.2-0.4,0.5-0.8,0.8-1.2
		c0.6-0.7,1.3-1.3,2.1-1.7c1.1-0.5,2.2-0.5,3.2,0c1,0.5,1.7,1.2,2.3,2.1c0.8,1.2,1.3,2.5,1.5,3.9c0.3,1.8,0.3,3.5,0.1,5.3
		c-0.1,0.6-0.2,1.3-0.3,1.9l-0.1,0.2c0-0.1,0-0.2,0-0.3c-0.1-1.3-0.3-2.6-0.6-3.9c-0.3-1.1-0.6-2.1-1.1-3.1c-0.3-0.5-0.6-1-1.1-1.5
		c-1-0.9-2.2-0.6-3,0.1c-0.5,0.5-0.8,1.1-1,1.8c-0.3,1-0.4,2.1-0.4,3.2c0,1.3,0.3,2.7,0.8,3.9c0.5,1.3,1.2,2.4,2.1,3.5
		c0.6,0.8,1.3,1.4,2.1,2.1c0.8,0.7,1.7,1.2,2.6,1.7c0.9,0.5,1.9,1,2.9,1.3L47,95.7L47,95.7z"/>
	<path class="st10" d="M58.4,37.6c2,1.1,4,2.2,6,3.3c-0.5,1.2-0.9,2.4-1.4,3.6c-2.4-1.3-4.7-2.6-7.1-3.9c0-0.1,0.1-0.2,0.1-0.3
		c1.2-3,2.3-6,3.5-8.9c1.1-2.9,2.2-5.7,3.3-8.6c0.1-0.3,0.3-0.7,0.5-1c0.5-0.7,1.1-0.9,1.9-0.6c0.4,0.2,0.8,0.4,1.2,0.6
		c1.4,0.7,2.8,1.4,4.2,2.2c0.1,0,0.1,0.1,0.2,0.1c-0.5,1.2-0.9,2.4-1.4,3.6c-0.2-0.1-0.4-0.2-0.5-0.3c-1.6-0.9-3.3-1.8-4.9-2.8
		l-0.2-0.1c-0.2-0.1-0.3,0-0.4,0.1l-0.1,0.2c-0.5,1.4-1.1,2.8-1.6,4.1l0,0.1c1,0.6,2,1.1,3,1.6c1,0.5,2,1.1,3,1.6
		c-0.4,1.2-0.9,2.3-1.3,3.5c-0.5-0.3-0.9-0.5-1.4-0.7c-1.3-0.7-2.7-1.4-4-2.2c-0.1-0.1-0.2-0.1-0.3-0.2c-0.2-0.1-0.3,0-0.4,0.1
		l-0.1,0.2c-0.5,1.4-1.1,2.8-1.6,4.2L58.4,37.6z"/>
	<path class="st10" d="M52.1,72.8c0.9,0.5,1.8,1,2.7,1.5c-0.5,1.2-1,2.5-1.4,3.7c-3.3-1.8-6.5-3.6-9.8-5.4c0-0.1,0.1-0.2,0.1-0.3
		c1.3-3.4,2.6-6.8,3.9-10.2c0.2-0.5,0.4-1,0.6-1.4c0.1-0.3,0.3-0.6,0.5-0.8c0.4-0.5,1-0.6,1.6-0.4c0.3,0.1,0.6,0.2,0.8,0.4
		c1,0.6,2.1,1.2,3.1,1.8c0.2,0.1,0.5,0.3,0.6,0.5c0.5,0.5,0.6,1.1,0.6,1.7c0,0.4-0.2,0.8-0.3,1.2c-1,2.5-1.9,5-2.9,7.5
		C52.1,72.6,52.1,72.7,52.1,72.8 M50.9,72.1L51,72c0.1-0.3,0.2-0.6,0.4-1c0.6-1.7,1.3-3.3,1.9-5c0.2-0.5,0.1-0.7-0.3-0.9
		c-1-0.6-2-1.2-3.1-1.7c-0.3-0.2-0.5-0.3-0.8-0.4c-0.2-0.1-0.4-0.1-0.5,0.2l-0.1,0.2c-0.8,2-1.5,3.9-2.3,5.9l-0.1,0.2
		C47.7,70.3,49.3,71.2,50.9,72.1"/>
	<path class="st10" d="M55.8,47.7c-0.3-0.2-0.6-0.3-0.8-0.5c-0.1-0.1-0.3,0-0.3,0.1c-0.1,0.1-0.1,0.2-0.2,0.3
		c-1.1,2.9-2.3,5.8-3.4,8.7c-0.1,0.2-0.2,0.4-0.3,0.7c-0.4-0.2-0.7-0.5-1-0.7l0.1-0.2c1.4-3.6,2.8-7.2,4.2-10.8
		c0.1-0.3,0.3-0.6,0.5-0.9c0.4-0.6,1-0.8,1.7-0.6c0.4,0.1,0.8,0.4,1.2,0.6c1.4,0.8,2.9,1.5,4.3,2.3c0.1,0,0.2,0.1,0.3,0.2
		c-0.1,0.3-0.2,0.5-0.3,0.8c-1.4,3.7-2.8,7.3-4.2,10.9c-0.1,0.3-0.3,0.6-0.5,0.9l-0.2,0.2c-0.4,0.4-0.8,0.5-1.3,0.2
		c-0.2-0.1-0.4-0.2-0.6-0.4c-0.6-0.4-1.3-0.7-1.9-1.1c-0.5-0.3-0.7-0.6-0.7-1.2c0-0.5,0.2-1,0.3-1.5c1-2.7,2.1-5.4,3.1-8.1
		L55.8,47.7z M56.9,48.3c0,0.1-0.1,0.2-0.1,0.2c-0.7,1.7-1.3,3.4-2,5.1c-0.1,0.3-0.2,0.6-0.3,0.9c-0.1,0.2,0,0.4,0.2,0.6l0.2,0.1
		c0.5,0.3,1,0.6,1.5,0.9c0.5,0.3,0.6,0.2,0.8-0.3c0.8-1.9,1.5-3.9,2.3-5.8l0.1-0.2C58.7,49.3,57.8,48.8,56.9,48.3"/>
	<g>
		<defs>
			<path id="SVGID_23_" d="M93.9,55.6c-0.4,0.6,0.6,3.2,1,4c0.4,0.8,0.3,3.1,0.2,3.7c-0.1,0.5,0,1.9-0.4,1.9c-0.1,0-0.2-0.1-0.4-0.2
				c-0.8-0.8-1.2-2-1.6-2c-0.1,0-0.1,0-0.2,0.1c-0.5,0.4,0.1,2.2,1.5,3.3c0.5,0.4,0.9,0.6,1.1,0.6c0.4,0,0.5-0.5,0.6-0.8
				c0.1-0.5,0.4-2,0.6-2c0,0,0.1,0,0.1,0.1c0.3,0.4,1,1.7,0.9,2.6c-0.1,0.8-0.8,2.1-0.6,2.5c0.1,0.1,0.3,0.3,0.5,0.3
				c0.4,0,0.9-0.4,1.1-2.2c0.4-2.8-0.3-3.4-0.6-3.9c-0.3-0.5-0.6-1-0.4-1.3c0.1-0.2,0.3-0.4,0.7-0.4c0.3,0,0.8,0.1,1.5,0.5
				c1.1,0.5,1.8,0.7,2.2,0.7c0.2,0,0.4-0.1,0.4-0.3c0.1-0.5-0.5-1.1-1-1.2c0,0-4.9-1-5.7-3.1c-0.6-1.7-1.1-3-1.5-3
				C94,55.5,94,55.5,93.9,55.6"/>
		</defs>
		<clipPath id="SVGID_24_">
			<use xlink:href="#SVGID_23_"  style="overflow:visible;"/>
		</clipPath>
		
			<linearGradient id="SVGID_25_" gradientUnits="userSpaceOnUse" x1="-474.6061" y1="497.3536" x2="-473.6061" y2="497.3536" gradientTransform="matrix(121.3669 33.2432 33.2432 -121.3669 41158.082 76200.3125)">
			<stop  offset="0" style="stop-color:#393B3B"/>
			<stop  offset="0.4415" style="stop-color:#3A3C3B"/>
			<stop  offset="1" style="stop-color:#3A3C3B"/>
		</linearGradient>
		<polygon class="st11" points="92.7,52.8 106,56.4 101.6,72.2 88.4,68.6 		"/>
	</g>
	<g>
		<defs>
			<path id="SVGID_26_" d="M96.9,58.4c0,0.6,0.4,1,1,1c0.6,0,1-0.4,1-1c0-0.6-0.4-1-1-1C97.4,57.4,96.9,57.8,96.9,58.4"/>
		</defs>
		<clipPath id="SVGID_27_">
			<use xlink:href="#SVGID_26_"  style="overflow:visible;"/>
		</clipPath>
		
			<linearGradient id="SVGID_28_" gradientUnits="userSpaceOnUse" x1="-474.6061" y1="497.3871" x2="-473.6061" y2="497.3871" gradientTransform="matrix(121.3669 33.2432 33.2432 -121.3669 41158.082 76200.3125)">
			<stop  offset="0" style="stop-color:#393B3B"/>
			<stop  offset="0.4415" style="stop-color:#3A3C3B"/>
			<stop  offset="1" style="stop-color:#3A3C3B"/>
		</linearGradient>
		<polygon class="st12" points="97.1,56.9 99.5,57.5 98.8,59.9 96.4,59.2 		"/>
	</g>
	<g>
		<defs>
			<path id="SVGID_29_" d="M118.2,97.6l-0.1,0.3l1.7,0.4l0.3-0.2l-0.1-0.3l-1.3-0.3L118.2,97.6z M120.5,96.8l-0.4,1.1l0.1,0.2
				l0.4-0.2l0.4-1.2l-0.1-0.1L120.5,96.8z M118.7,96.1l-0.5,1.4l0.5-0.1l0.3-1l-0.2-0.4L118.7,96.1z M121.1,95l-0.4,1.1l0.2,0.4
				l0.1-0.1l0.4-1.2l-0.2-0.3L121.1,95z M118.8,95.8l0.1,0.1l0.4-0.2l0.3-1l-0.4-0.3L118.8,95.8z M119.3,94.3l0.4,0.3l1.3,0.3
				l0.3-0.2l-0.1-0.3l-1.7-0.4L119.3,94.3z"/>
		</defs>
		<clipPath id="SVGID_30_">
			<use xlink:href="#SVGID_29_"  style="overflow:visible;"/>
		</clipPath>
		
			<linearGradient id="SVGID_31_" gradientUnits="userSpaceOnUse" x1="-474.6061" y1="497.1432" x2="-473.6061" y2="497.1432" gradientTransform="matrix(121.3669 33.2432 33.2432 -121.3669 41158.082 76200.3125)">
			<stop  offset="0" style="stop-color:#393B3B"/>
			<stop  offset="0.4415" style="stop-color:#3A3C3B"/>
			<stop  offset="1" style="stop-color:#3A3C3B"/>
		</linearGradient>
		<polygon class="st13" points="118.4,93.2 122.6,94.4 121.3,99.2 117.1,98 		"/>
	</g>
	<g>
		<defs>
			<path id="SVGID_32_" d="M123.4,97.5l-0.4,1.1l0,0.5h0c0.2,0,0.3-0.1,0.4-0.2l0.5-1.5l-0.1-0.1L123.4,97.5z M121.6,96.8l-0.5,1.5
				c0,0.2,0.1,0.3,0.2,0.3l0.3-0.4l0.4-1.1l-0.2-0.4L121.6,96.8z M121.8,96.7L122,97l1.4,0.3l0.3-0.2l-0.1-0.3l-1.4-0.3L121.8,96.7z
				 M124,95.7l-0.4,1.1l0.2,0.4l0.1-0.1l0.5-1.5c0-0.1-0.1-0.3-0.2-0.3L124,95.7z M121.7,96.5l0.1,0.1l0.4-0.2l0.3-1l-0.4-0.3
				L121.7,96.5z M122.2,95l0.4,0.3l1.3,0.3l0.3-0.4l-1.6-0.4C122.4,94.8,122.3,94.9,122.2,95"/>
		</defs>
		<clipPath id="SVGID_33_">
			<use xlink:href="#SVGID_32_"  style="overflow:visible;"/>
		</clipPath>
		
			<linearGradient id="SVGID_34_" gradientUnits="userSpaceOnUse" x1="-474.6061" y1="497.1435" x2="-473.6061" y2="497.1435" gradientTransform="matrix(121.3669 33.2432 33.2432 -121.3669 41158.082 76200.3125)">
			<stop  offset="0" style="stop-color:#393B3B"/>
			<stop  offset="0.4415" style="stop-color:#3A3C3B"/>
			<stop  offset="1" style="stop-color:#3A3C3B"/>
		</linearGradient>
		<polygon class="st14" points="121.3,94 125.6,95.1 124.2,100 120,98.8 		"/>
	</g>
	<g>
		<defs>
			<path id="SVGID_35_" d="M123.9,99c0,0.1,0,0.3,0.2,0.3l1.6,0.4l0-0.5l-1.3-0.3L123.9,99z M126.2,98.2l-0.4,1.1l0,0.5h0
				c0.2,0,0.3-0.1,0.4-0.2l0.5-1.5l-0.1-0.1L126.2,98.2z M124.7,97.4l0.1,0.3l1.4,0.3l0.3-0.2l-0.1-0.3l-1.4-0.3L124.7,97.4z
				 M126.8,96.3l-0.4,1.1l0.2,0.4l0.1-0.1l0.5-1.5c0-0.1,0-0.3-0.2-0.3L126.8,96.3z M124.5,97.2l0.1,0.1l0.4-0.2l0.4-1.2l-0.4-0.3
				L124.5,97.2z"/>
		</defs>
		<clipPath id="SVGID_36_">
			<use xlink:href="#SVGID_35_"  style="overflow:visible;"/>
		</clipPath>
		
			<linearGradient id="SVGID_37_" gradientUnits="userSpaceOnUse" x1="-474.6061" y1="497.1435" x2="-473.6061" y2="497.1435" gradientTransform="matrix(121.3669 33.2432 33.2432 -121.3669 41158.082 76200.3125)">
			<stop  offset="0" style="stop-color:#393B3B"/>
			<stop  offset="0.4415" style="stop-color:#3A3C3B"/>
			<stop  offset="1" style="stop-color:#3A3C3B"/>
		</linearGradient>
		<polygon class="st15" points="124.1,94.8 128.4,96 127.1,100.7 122.9,99.5 		"/>
	</g>
	<g>
		<defs>
			<path id="SVGID_38_" d="M130.5,99l-0.5,1.5c0,0.2,0,0.3,0.2,0.3l0.3-0.4l0.4-1.1l-0.2-0.4L130.5,99z M130.8,98.9l0.1,0.3l1.4,0.3
				l0.3-0.2l-0.1-0.3l-1.4-0.3L130.8,98.9z M132.9,97.8l-0.4,1.1l0.2,0.4l0.1-0.1l0.4-1.2l-0.2-0.3L132.9,97.8z M130.6,98.7l0.1,0.1
				l0.4-0.2l0.3-1l-0.4-0.3L130.6,98.7z M131.1,97.2l0.4,0.3l1.3,0.3l0.3-0.2l-0.1-0.3l-1.7-0.4L131.1,97.2z"/>
		</defs>
		<clipPath id="SVGID_39_">
			<use xlink:href="#SVGID_38_"  style="overflow:visible;"/>
		</clipPath>
		
			<linearGradient id="SVGID_40_" gradientUnits="userSpaceOnUse" x1="-474.6061" y1="497.1472" x2="-473.6061" y2="497.1472" gradientTransform="matrix(121.3669 33.2432 33.2432 -121.3669 41158.082 76200.3125)">
			<stop  offset="0" style="stop-color:#393B3B"/>
			<stop  offset="0.4415" style="stop-color:#3A3C3B"/>
			<stop  offset="1" style="stop-color:#3A3C3B"/>
		</linearGradient>
		<polygon class="st16" points="130.2,96.1 134.3,97.2 133.1,101.7 129,100.6 		"/>
	</g>
	<g>
		<defs>
			<path id="SVGID_41_" d="M134.3,100.1l-0.4,1.2l0,0.5c0.2,0,0.3-0.1,0.4-0.2l0.5-1.4l-0.1-0.3L134.3,100.1z M134.4,99.5l0.1,0.3
				l0.3-0.2l0.4-1.1l-0.4-0.1L134.4,99.5z M134,97.9l0.4,0.3l1.4,0.3l0.5-0.1c0-0.2-0.1-0.3-0.2-0.3l-1.7-0.4
				C134.2,97.7,134.1,97.8,134,97.9"/>
		</defs>
		<clipPath id="SVGID_42_">
			<use xlink:href="#SVGID_41_"  style="overflow:visible;"/>
		</clipPath>
		
			<linearGradient id="SVGID_43_" gradientUnits="userSpaceOnUse" x1="-474.6061" y1="497.148" x2="-473.6061" y2="497.148" gradientTransform="matrix(121.3669 33.2432 33.2432 -121.3669 41158.082 76200.3125)">
			<stop  offset="0" style="stop-color:#393B3B"/>
			<stop  offset="0.4415" style="stop-color:#3A3C3B"/>
			<stop  offset="1" style="stop-color:#3A3C3B"/>
		</linearGradient>
		<polygon class="st17" points="134,97.1 137.3,98 136.1,102.4 132.8,101.5 		"/>
	</g>
	<g>
		<defs>
			<path id="SVGID_44_" d="M135.7,101.9c0,0.2,0.1,0.3,0.2,0.3l1.6,0.4l0-0.5l-1.3-0.3L135.7,101.9z M138,101.1l-0.4,1.1l0,0.5h0
				c0.2,0,0.3-0.1,0.4-0.2l0.5-1.5l-0.1-0.1L138,101.1z M136.5,100.3l0.1,0.3l1.4,0.3l0.3-0.2l-0.1-0.3l-1.4-0.3L136.5,100.3z
				 M136.3,100.1l0.1,0.1l0.4-0.2l0.3-1l-0.4-0.3L136.3,100.1z M136.8,98.6l0.4,0.3l1.4,0.3l0.5-0.1c0-0.2-0.1-0.3-0.2-0.3l-1.7-0.4
				C137,98.4,136.9,98.5,136.8,98.6"/>
		</defs>
		<clipPath id="SVGID_45_">
			<use xlink:href="#SVGID_44_"  style="overflow:visible;"/>
		</clipPath>
		
			<linearGradient id="SVGID_46_" gradientUnits="userSpaceOnUse" x1="-474.6061" y1="497.1467" x2="-473.6061" y2="497.1467" gradientTransform="matrix(121.3669 33.2432 33.2432 -121.3669 41158.082 76200.3125)">
			<stop  offset="0" style="stop-color:#393B3B"/>
			<stop  offset="0.4415" style="stop-color:#3A3C3B"/>
			<stop  offset="1" style="stop-color:#3A3C3B"/>
		</linearGradient>
		<polygon class="st18" points="135.9,97.6 140.2,98.7 138.9,103.5 134.6,102.4 		"/>
	</g>
	<g>
		<defs>
			<polygon id="SVGID_47_" points="95,36.9 101.4,54.2 164.6,67.4 182,55.5 182.1,55 181.6,54.9 164.5,66.7 102,53.5 95.6,36.4 
				95.2,36.3 			"/>
		</defs>
		<clipPath id="SVGID_48_">
			<use xlink:href="#SVGID_47_"  style="overflow:visible;"/>
		</clipPath>
		
			<linearGradient id="SVGID_49_" gradientUnits="userSpaceOnUse" x1="-474.6061" y1="497.5222" x2="-473.6061" y2="497.5222" gradientTransform="matrix(121.3669 33.2432 33.2432 -121.3669 41158.082 76200.3125)">
			<stop  offset="0" style="stop-color:#393B3B"/>
			<stop  offset="0.4415" style="stop-color:#3A3C3B"/>
			<stop  offset="1" style="stop-color:#3A3C3B"/>
		</linearGradient>
		<polygon class="st19" points="101.1,14.1 190,38.5 176,89.6 87.1,65.3 		"/>
	</g>
	<g>
		<defs>
			<polygon id="SVGID_50_" points="130.8,90.8 143.7,93.7 149.3,71.9 136.4,69 			"/>
		</defs>
		<clipPath id="SVGID_51_">
			<use xlink:href="#SVGID_50_"  style="overflow:visible;"/>
		</clipPath>
		
			<linearGradient id="SVGID_52_" gradientUnits="userSpaceOnUse" x1="-474.6061" y1="497.2996" x2="-473.6061" y2="497.2996" gradientTransform="matrix(121.3669 33.2432 33.2432 -121.3669 41158.082 76200.3125)">
			<stop  offset="0" style="stop-color:#00B3D4"/>
			<stop  offset="0.4415" style="stop-color:#81CEEB"/>
			<stop  offset="1" style="stop-color:#81CEEB"/>
		</linearGradient>
		<polygon class="st20" points="132.1,64.3 155.6,70.7 148,98.4 124.5,91.9 		"/>
	</g>
	<g>
		<defs>
			<polygon id="SVGID_53_" points="130.8,90.8 143.7,93.7 149.3,71.9 136.4,69 			"/>
		</defs>
		<clipPath id="SVGID_54_">
			<use xlink:href="#SVGID_53_"  style="overflow:visible;"/>
		</clipPath>
		
			<linearGradient id="SVGID_55_" gradientUnits="userSpaceOnUse" x1="-474.6061" y1="497.2995" x2="-473.6061" y2="497.2995" gradientTransform="matrix(121.367 33.2432 33.2432 -121.367 41158.1289 76200.3672)">
			<stop  offset="0" style="stop-color:#393B3B"/>
			<stop  offset="0.4415" style="stop-color:#3A3C3B"/>
			<stop  offset="1" style="stop-color:#3A3C3B"/>
		</linearGradient>
		<path class="st21" d="M141.5,93.2l-9.2-2c-0.8-0.4-1.1-1-1.1-1.9l2.7-0.4l7.3,1.6L141.5,93.2z M138.1,72.6l-1.5,5.8l-2.3,1.4
			l-0.5-0.7l2-7.9L138.1,72.6z M144.3,81l0.9,1.5l-1.5,0.9l-8-1.8l-0.9-1.5l1.5-0.9L144.3,81z M146.5,73.8l-8.2-1.8l-2.2-1.5
			c0.4-0.8,1.1-1.2,1.9-1.2l10.1,2.2L146.5,73.8z M145.8,82.9l0.5,0.7l-2.2,8.5c-0.4,0.8-1.1,1.2-1.9,1.2l-0.3-2.6l1.6-6.4
			L145.8,82.9z"/>
	</g>
</g>
</svg>
