<?xml version="1.0" encoding="utf-8"?>
<!-- Generator: Adobe Illustrator 25.2.3, SVG Export Plug-In . SVG Version: 6.00 Build 0)  -->
<svg version="1.1" id="Laag_1" xmlns="http://www.w3.org/2000/svg" xmlns:xlink="http://www.w3.org/1999/xlink" x="0px" y="0px"
	 viewBox="0 0 344.2 179.7" style="enable-background:new 0 0 344.2 179.7;" xml:space="preserve">
<style type="text/css">
	.Slagschaduw{fill:none;}
	.Afgeronde_x0020_hoeken_x0020_2_x0020_pt{fill:#FFFFFF;stroke:#000000;stroke-miterlimit:10;}
	.X_x0020_actief_x0020_weerspiegelen{fill:none;}
	.Zachte_x0020_schuine_x0020_kant{fill:url(#SVGID_1_);}
	.Schemering{fill:#FFFFFF;}
	.Gebladerte_AS{fill:#FFDD00;}
	.Pompadoer_AS{fill-rule:evenodd;clip-rule:evenodd;fill:#51AEE2;}
	.st0{fill:#B2B1B2;}
	.st1{fill:#EAEAEA;}
	.st2{fill:#E2E2E1;}
	.st3{fill:#191919;}
	.st4{fill:none;stroke:#B7B7B7;stroke-width:2.835;stroke-miterlimit:10;}
	.st5{fill:none;stroke:#010202;stroke-width:2.835;stroke-linecap:round;stroke-miterlimit:10;}
	.st6{clip-path:url(#SVGID_3_);fill:url(#SVGID_4_);}
	.st7{clip-path:url(#SVGID_6_);fill:url(#SVGID_7_);}
	.st8{clip-path:url(#SVGID_9_);fill:url(#SVGID_10_);}
	.st9{clip-path:url(#SVGID_12_);fill:url(#SVGID_13_);}
	.st10{clip-path:url(#SVGID_15_);fill:url(#SVGID_16_);}
	.st11{clip-path:url(#SVGID_18_);fill:url(#SVGID_19_);}
	.st12{clip-path:url(#SVGID_21_);fill:url(#SVGID_22_);}
	.st13{clip-path:url(#SVGID_24_);fill:url(#SVGID_25_);}
	.st14{clip-path:url(#SVGID_27_);fill:url(#SVGID_28_);}
	.st15{clip-path:url(#SVGID_30_);fill:url(#SVGID_31_);}
	.st16{clip-path:url(#SVGID_33_);fill:url(#SVGID_34_);}
	.st17{clip-path:url(#SVGID_36_);fill:url(#SVGID_37_);}
</style>
<linearGradient id="SVGID_1_" gradientUnits="userSpaceOnUse" x1="115.6503" y1="35.4554" x2="116.3574" y2="36.1625">
	<stop  offset="0" style="stop-color:#E6E6EB"/>
	<stop  offset="0.1738" style="stop-color:#E2E2E6"/>
	<stop  offset="0.352" style="stop-color:#D5D4D8"/>
	<stop  offset="0.5323" style="stop-color:#C0BFC2"/>
	<stop  offset="0.7139" style="stop-color:#A4A2A4"/>
	<stop  offset="0.8949" style="stop-color:#828282"/>
	<stop  offset="1" style="stop-color:#6B6E6E"/>
</linearGradient>
<g>
	<path class="st0" d="M334.7,18.3L293,5.5c-1.1-0.3-2.1-0.2-2.9,0.3l0,0l-6.9,3.7l5.5,8.1v39.7c0,2.6,1.9,5.2,4.3,6l33.3,10.3
		l4.1,6.1l6.6-3.6l0,0l0.4-0.2l0,0c0.9-0.6,1.5-1.6,1.5-3V24.3C339,21.8,337,19.1,334.7,18.3"/>
	<path class="st1" d="M327.8,79.8L286.2,67c-2.4-0.7-4.3-3.4-4.3-6V12.5c0-2.6,1.9-4,4.3-3.3L327.8,22c2.4,0.7,4.3,3.4,4.3,6v48.5
		C332.1,79.1,330.2,80.6,327.8,79.8"/>
	<path class="st0" d="M319.5,50.1C319,60.6,312,66.5,304,63.4c-8.1-3.1-14.2-14.1-13.6-24.6c0.5-10.5,7.5-16.4,15.6-13.3
		C314,28.7,320.1,39.7,319.5,50.1"/>
	<path class="st2" d="M305.9,25.6c-1.2-0.5-2.3-0.7-3.4-0.8c-3.9,2-6.6,6.7-6.9,13c-0.5,10.5,5.6,21.5,13.6,24.6
		c1.2,0.5,2.3,0.7,3.4,0.8c3.9-2,6.6-6.7,6.9-13C320.1,39.7,314,28.7,305.9,25.6"/>
	<path class="st3" d="M303.9,43.1c-0.1,1.1-0.8,1.8-1.7,1.4c-0.9-0.3-1.5-1.5-1.5-2.7c0.1-1.1,0.8-1.8,1.7-1.4
		C303.3,40.8,304,42,303.9,43.1"/>
	<path class="st3" d="M315.7,46.7c-0.1,1.1-0.8,1.8-1.7,1.4c-0.9-0.3-1.5-1.5-1.5-2.7c0.1-1.1,0.8-1.8,1.7-1.4
		C315.1,44.4,315.7,45.6,315.7,46.7"/>
	<path class="st4" d="M151.7,29.6c0,0,23.5-20.5,48.5-9c25,11.5,4,30.9-16,56c-20,25.1-21.1,76.6,13.2,87.1c36,11,31.3-13,31.3-13"
		/>
	<line class="st5" x1="257.6" y1="72" x2="272.4" y2="65.8"/>
	<line class="st5" x1="244.4" y1="67.6" x2="259.3" y2="61.4"/>
	<g>
		<defs>
			<path id="SVGID_2_" d="M243.7,63.1l-14.2,4.5l24.4,14.8c0,0,8.4-4.4,10.7-5.9c2.4-1.5,3.6-1.8,3.4-4.8c-0.2-3-3.6-4.1-3.6-4.1
				s-11.5-3.6-14.3-4.5c-0.9-0.3-1.9-0.4-2.9-0.4C245.3,62.7,243.7,63.1,243.7,63.1"/>
		</defs>
		<clipPath id="SVGID_3_">
			<use xlink:href="#SVGID_2_"  style="overflow:visible;"/>
		</clipPath>
		
			<linearGradient id="SVGID_4_" gradientUnits="userSpaceOnUse" x1="-427.6708" y1="503.964" x2="-426.6708" y2="503.964" gradientTransform="matrix(34.1114 17.919 17.919 -34.1114 5796.7295 24921.6016)">
			<stop  offset="0" style="stop-color:#FFFFFF"/>
			<stop  offset="0.3734" style="stop-color:#FFFFFF"/>
			<stop  offset="0.6983" style="stop-color:#CACACA"/>
			<stop  offset="1" style="stop-color:#CACACA"/>
		</linearGradient>
		<polygon class="st6" points="237.8,46.8 276.3,67 259.8,98.3 221.4,78.1 		"/>
	</g>
	<g>
		<defs>
			<path id="SVGID_5_" d="M223.2,65.5l-16.6,6.6c0,0,24.8,84.7,28.4,85.8c3.6,1.1,5.1,2.3,14.4-6.7c9.2-9,8.7-17.2,10-21
				c1.3-3.8,1.3-34.2,0-45.3c-1.2-11-6.7-14.2-6.7-14.2s-8.2-2.8-16.5-5.3c-2.8-0.8-5.1-1.1-7-1.1C225.2,64.4,223.2,65.5,223.2,65.5
				"/>
		</defs>
		<clipPath id="SVGID_6_">
			<use xlink:href="#SVGID_5_"  style="overflow:visible;"/>
		</clipPath>
		
			<linearGradient id="SVGID_7_" gradientUnits="userSpaceOnUse" x1="-426.484" y1="504.9804" x2="-425.484" y2="504.9804" gradientTransform="matrix(16.0738 39.9998 39.9998 -16.0738 -13125.5166 25250.6465)">
			<stop  offset="0" style="stop-color:#FFFFFF"/>
			<stop  offset="0.3734" style="stop-color:#FFFFFF"/>
			<stop  offset="0.6983" style="stop-color:#CACACA"/>
			<stop  offset="1" style="stop-color:#CACACA"/>
		</linearGradient>
		<polygon class="st7" points="253.1,45.7 293.7,146.9 214.1,178.9 173.4,77.7 		"/>
	</g>
	<g>
		<defs>
			<path id="SVGID_8_" d="M200.8,86.5c-3,25,6.2,47,9.5,53.7c3.2,6.8,6.2,9.8,6.2,9.8s17.8,9.8,23,8.2c5.2-1.5,4.5-11.8,4.5-11.8
				s1.7-35.2,2-48.8c0.2-13.5-10.5-19.5-10.5-19.5l-20.7-6.8c-1.4-0.5-2.7-0.7-3.8-0.7C201.1,70.8,200.8,86.5,200.8,86.5"/>
		</defs>
		<clipPath id="SVGID_9_">
			<use xlink:href="#SVGID_8_"  style="overflow:visible;"/>
		</clipPath>
		
			<linearGradient id="SVGID_10_" gradientUnits="userSpaceOnUse" x1="-428.7917" y1="504.3724" x2="-427.7917" y2="504.3724" gradientTransform="matrix(45.8445 0 0 -45.8445 19857.9609 23237.9609)">
			<stop  offset="0" style="stop-color:#FFFFFF"/>
			<stop  offset="1.729390e-02" style="stop-color:#FFFFFF"/>
			<stop  offset="0.8355" style="stop-color:#CACACA"/>
			<stop  offset="1" style="stop-color:#CACACA"/>
		</linearGradient>
		<rect x="197.8" y="70.8" class="st8" width="48.5" height="88.9"/>
	</g>
	<g>
		<defs>
			<path id="SVGID_11_" d="M13.5,55.3l4.3,20c0,0,0.7,4.7,7.3,8.5s32.8,19.1,32.8,19.1s10.9,5.8,20.1,0.6
				c9.2-5.1,93.7-42.1,93.7-42.1s3.9-2.9,6.3-8.1c2.7-6,6.3-20.4,6.3-20.4L13.5,55.3z"/>
		</defs>
		<clipPath id="SVGID_12_">
			<use xlink:href="#SVGID_11_"  style="overflow:visible;"/>
		</clipPath>
		
			<linearGradient id="SVGID_13_" gradientUnits="userSpaceOnUse" x1="-428.741" y1="505.6247" x2="-427.741" y2="505.6247" gradientTransform="matrix(106.5177 -27.0924 -27.0924 -106.5177 59428.0156 42322.7344)">
			<stop  offset="0" style="stop-color:#FFFFFF"/>
			<stop  offset="0.9667" style="stop-color:#9B9B9A"/>
			<stop  offset="1" style="stop-color:#9B9B9A"/>
		</linearGradient>
		<polygon class="st9" points="-4.6,37.4 173.9,-8 202.4,104 23.9,149.3 		"/>
	</g>
	<g>
		<defs>
			<path id="SVGID_14_" d="M121.1,12L18.2,49.3c-8.1,3-8.2,11.5-2.2,15.1c12.3,7.2,30.5,15.9,39,19.7c7.8,3.5,17.6,5,22.9,2.7
				c5.3-2.4,94-41.5,103.1-46.5c9.1-5,2.6-9.9-2.8-11.5c-5.4-1.6-28.5-9.5-38.8-14.6c-4.7-2.4-8.9-3-12.1-3
				C123.5,11.1,121.1,12,121.1,12"/>
		</defs>
		<clipPath id="SVGID_15_">
			<use xlink:href="#SVGID_14_"  style="overflow:visible;"/>
		</clipPath>
		
			<linearGradient id="SVGID_16_" gradientUnits="userSpaceOnUse" x1="-428.4989" y1="505.7526" x2="-427.4989" y2="505.7526" gradientTransform="matrix(135.8022 0 0 -135.8022 58206.3945 68732.4531)">
			<stop  offset="0" style="stop-color:#F2F2F2"/>
			<stop  offset="0.9991" style="stop-color:#C0C0C0"/>
			<stop  offset="1" style="stop-color:#C0C0C0"/>
		</linearGradient>
		<rect x="9.9" y="11.1" class="st10" width="180.1" height="78.1"/>
	</g>
	<g>
		<defs>
			<polygon id="SVGID_17_" points="47.9,87 60,96.3 63.4,95 63.4,90.3 51.9,85.4 			"/>
		</defs>
		<clipPath id="SVGID_18_">
			<use xlink:href="#SVGID_17_"  style="overflow:visible;"/>
		</clipPath>
		
			<linearGradient id="SVGID_19_" gradientUnits="userSpaceOnUse" x1="-429.657" y1="500.3379" x2="-428.657" y2="500.3379" gradientTransform="matrix(15.5 0 0 -15.5 6707.6191 7846.0977)">
			<stop  offset="0" style="stop-color:#E3E3E3"/>
			<stop  offset="1" style="stop-color:#CACACA"/>
		</linearGradient>
		<rect x="47.9" y="85.4" class="st11" width="15.5" height="10.9"/>
	</g>
	<g>
		<defs>
			<path id="SVGID_20_" d="M6.3,106.1v4.4c0,1.1,1.3,3.8,2.7,4.8c3.2,2.1,5.9,2.1,8.5,1.5c3.4-0.8,44.2-20,44.2-20v-4.4L6.3,106.1z"
				/>
		</defs>
		<clipPath id="SVGID_21_">
			<use xlink:href="#SVGID_20_"  style="overflow:visible;"/>
		</clipPath>
		
			<linearGradient id="SVGID_22_" gradientUnits="userSpaceOnUse" x1="-429.2993" y1="505.0042" x2="-428.2993" y2="505.0042" gradientTransform="matrix(52.8479 -21.1651 -21.1651 -52.8479 33382.8438 17718.0117)">
			<stop  offset="0" style="stop-color:#FFFFFF"/>
			<stop  offset="1" style="stop-color:#A8A8A7"/>
		</linearGradient>
		<polygon class="st12" points="-2.3,95.8 54.1,73.3 70.4,113.9 14,136.5 		"/>
	</g>
	<g>
		<defs>
			<path id="SVGID_23_" d="M10.4,101.7c-1.4,0.6-6,3-3.3,7c2.8,4,5.7,4.8,9.5,3.9c3.8-0.9,45.1-20.2,45.1-20.2l-14.7-6.5
				C47.1,85.9,11.8,101.1,10.4,101.7"/>
		</defs>
		<clipPath id="SVGID_24_">
			<use xlink:href="#SVGID_23_"  style="overflow:visible;"/>
		</clipPath>
		
			<linearGradient id="SVGID_25_" gradientUnits="userSpaceOnUse" x1="-429.4561" y1="505.0834" x2="-428.4561" y2="505.0834" gradientTransform="matrix(49.3212 -25.3346 -25.3346 -49.3212 33981.2734 14145.9219)">
			<stop  offset="0" style="stop-color:#DCDCDC"/>
			<stop  offset="1.729390e-02" style="stop-color:#DCDCDC"/>
			<stop  offset="0.9991" style="stop-color:#838382"/>
			<stop  offset="1" style="stop-color:#838382"/>
		</linearGradient>
		<polygon class="st13" points="-6.8,91.7 49.8,62.6 73,107.7 16.4,136.8 		"/>
	</g>
	<g>
		<defs>
			<polygon id="SVGID_26_" points="34.6,78.8 39.9,82.9 41.4,82.3 41.4,80.3 36.3,78.1 			"/>
		</defs>
		<clipPath id="SVGID_27_">
			<use xlink:href="#SVGID_26_"  style="overflow:visible;"/>
		</clipPath>
		
			<linearGradient id="SVGID_28_" gradientUnits="userSpaceOnUse" x1="-431.2939" y1="492.6772" x2="-430.294" y2="492.6772" gradientTransform="matrix(6.8819 0 0 -6.8819 3002.7031 3471.0786)">
			<stop  offset="0" style="stop-color:#E3E3E3"/>
			<stop  offset="1" style="stop-color:#CACACA"/>
		</linearGradient>
		<rect x="34.6" y="78.1" class="st14" width="6.9" height="4.9"/>
	</g>
	<g>
		<defs>
			<path id="SVGID_29_" d="M30.6,79.7c-4.6,3.5-11.2,4.6-13.5,4.8c-2.3,0.2-2.6,2.6-2.4,3.6c0.7,2.4,4.6,6.9,9.6,3.5
				c5.2-3.6,15.4-6.4,15.4-6.4s0.9,0,1.3-1.6s-1.2-2.9-1.2-2.9L34.3,78c-0.2-0.1-0.3-0.1-0.5-0.1C32.4,77.9,30.6,79.7,30.6,79.7"/>
		</defs>
		<clipPath id="SVGID_30_">
			<use xlink:href="#SVGID_29_"  style="overflow:visible;"/>
		</clipPath>
		
			<linearGradient id="SVGID_31_" gradientUnits="userSpaceOnUse" x1="-423.4886" y1="501.7054" x2="-422.4886" y2="501.7054" gradientTransform="matrix(7.6004 12.1348 12.1348 -7.6004 -2847.3264 9029.207)">
			<stop  offset="0" style="stop-color:#A1A1A1"/>
			<stop  offset="1.729390e-02" style="stop-color:#A1A1A1"/>
			<stop  offset="0.7707" style="stop-color:#5E5E5D"/>
			<stop  offset="0.9991" style="stop-color:#474746"/>
			<stop  offset="1" style="stop-color:#474746"/>
		</linearGradient>
		<polygon class="st15" points="33.9,65.7 49.2,90.2 22.1,107.2 6.8,82.7 		"/>
	</g>
	<g>
		<defs>
			<polygon id="SVGID_32_" points="22.8,77.1 28.8,80.8 28.7,74 22.1,70.2 			"/>
		</defs>
		<clipPath id="SVGID_33_">
			<use xlink:href="#SVGID_32_"  style="overflow:visible;"/>
		</clipPath>
		
			<linearGradient id="SVGID_34_" gradientUnits="userSpaceOnUse" x1="-423.3209" y1="501.5656" x2="-422.3209" y2="501.5656" gradientTransform="matrix(7.347 11.7303 11.7303 -7.347 -2752.9778 8718.1162)">
			<stop  offset="0" style="stop-color:#A1A1A1"/>
			<stop  offset="1.729390e-02" style="stop-color:#A1A1A1"/>
			<stop  offset="0.9991" style="stop-color:#B9B8B8"/>
			<stop  offset="1" style="stop-color:#B9B8B8"/>
		</linearGradient>
		<polygon class="st16" points="26.9,67.2 33.6,77.8 24,83.8 17.4,73.2 		"/>
	</g>
	<g>
		<defs>
			<path id="SVGID_35_" d="M23.2,76.4l1.5,1c0,0,0.1,0.5,0.7,0.8C25.9,78.5,26,78,26,78l2.3,1.3l-0.1-4.8l-5.5-3.3L23.2,76.4z"/>
		</defs>
		<clipPath id="SVGID_36_">
			<use xlink:href="#SVGID_35_"  style="overflow:visible;"/>
		</clipPath>
		
			<linearGradient id="SVGID_37_" gradientUnits="userSpaceOnUse" x1="-415.1524" y1="493.6391" x2="-414.1524" y2="493.6391" gradientTransform="matrix(2.7995 4.4698 4.4698 -2.7995 -1020.1179 3310.6875)">
			<stop  offset="0" style="stop-color:#333332"/>
			<stop  offset="1.729390e-02" style="stop-color:#333332"/>
			<stop  offset="0.9991" style="stop-color:#474746"/>
			<stop  offset="1" style="stop-color:#474746"/>
		</linearGradient>
		<polygon class="st17" points="26.7,68.7 32,77.1 24.3,81.9 19,73.5 		"/>
	</g>
</g>
</svg>
