<?xml version="1.0" encoding="utf-8"?>
<!-- Generator: Adobe Illustrator 25.2.3, SVG Export Plug-In . SVG Version: 6.00 Build 0)  -->
<svg version="1.1" id="Layer_1" xmlns="http://www.w3.org/2000/svg" xmlns:xlink="http://www.w3.org/1999/xlink" x="0px" y="0px"
	 viewBox="0 0 595.3 358.6" style="enable-background:new 0 0 595.3 358.6;" xml:space="preserve">
<style type="text/css">
	._x005B_Default_x005D_{fill:#FFFFFF;stroke:#231F20;stroke-miterlimit:10;}
	.Round_x0020_Corners_x0020_2_x0020_pt{fill:#FFFFFF;stroke:#231F20;stroke-miterlimit:10;}
	.Live_x0020_Reflect_x0020_X{fill:none;}
	.Bevel_x0020_Soft{fill:url(#SVGID_1_);}
	.Dusk{fill:#FFFFFF;}
	.Pompadour_GS{fill-rule:evenodd;clip-rule:evenodd;fill:#44ADE2;}
	.st0{clip-path:url(#SVGID_3_);}
	.st1{clip-path:url(#SVGID_5_);fill:#D0D0D0;}
	.st2{opacity:0.5;clip-path:url(#SVGID_5_);}
	.st3{fill:#4C4652;}
	.st4{fill:#8C8D7C;}
	.st5{fill:#7A7677;}
	.st6{fill:#554F5B;}
	.st7{fill:#403C44;}
	.st8{fill:#443F49;}
	.st9{fill:#A7A795;}
	.st10{fill:#433F47;}
	.st11{fill:#45404C;}
	.st12{clip-path:url(#SVGID_5_);fill:#E5E5E5;}
	.st13{clip-path:url(#SVGID_5_);fill:#F4F4F4;}
	.st14{clip-path:url(#SVGID_5_);}
	.st15{opacity:0.5;}
	.st16{fill:#82817A;}
	.st17{fill:#3C3544;}
	.st18{fill:#413C47;}
	.st19{fill:#433E49;}
	.st20{fill:#2F2A35;}
	.st21{fill:#8F8D81;}
	.st22{fill:#413A49;}
	.st23{fill:#322D3A;}
	.st24{fill:#4B4454;}
	.st25{fill:#5B5466;}
	.st26{opacity:0.5;clip-path:url(#SVGID_5_);fill:#3C3544;}
	.st27{fill:#35313A;}
	.st28{fill:#3F383E;}
	.st29{opacity:0.2;fill:#3F383E;}
	.st30{fill:#9091A7;}
	.st31{fill:#353435;}
	.st32{fill:#312E33;}
	.st33{fill:#E2E3E4;}
	.st34{fill:#B5B7B9;}
	.st35{opacity:0.6;}
	.st36{fill:#FFFFFF;}
	.st37{fill:#F9AA77;}
	.st38{opacity:0.6;fill:#EE9494;}
	.st39{fill:#FF556F;}
	.st40{fill:#364451;}
	.st41{fill:#415062;}
	.st42{fill:#6C7FB6;}
	.st43{fill:#FF866D;}
	.st44{fill:#8F90A6;}
	.st45{fill:#644B37;}
	.st46{fill:#E35133;}
	.st47{fill:#F0F3C4;}
	.st48{fill:#B83722;}
	.st49{fill:#151919;}
	.st50{clip-path:url(#SVGID_5_);fill:#312E33;}
	.st51{fill:#222D35;}
</style>
<linearGradient id="SVGID_1_" gradientUnits="userSpaceOnUse" x1="0" y1="-16.3782" x2="0.7071" y2="-15.6711">
	<stop  offset="0" style="stop-color:#DEDFE3"/>
	<stop  offset="0.1783" style="stop-color:#DADBDF"/>
	<stop  offset="0.3611" style="stop-color:#CECFD3"/>
	<stop  offset="0.546" style="stop-color:#B9BCBF"/>
	<stop  offset="0.7324" style="stop-color:#9CA0A2"/>
	<stop  offset="0.9181" style="stop-color:#787D7E"/>
	<stop  offset="1" style="stop-color:#656B6C"/>
</linearGradient>
<g>
	<defs>
		<rect id="SVGID_2_" width="595.3" height="356.6"/>
	</defs>
	<clipPath id="SVGID_3_">
		<use xlink:href="#SVGID_2_"  style="overflow:visible;"/>
	</clipPath>
	<g class="st0">
		<defs>
			<rect id="SVGID_4_" y="-60" width="595.3" height="595.3"/>
		</defs>
		<clipPath id="SVGID_5_">
			<use xlink:href="#SVGID_4_"  style="overflow:visible;"/>
		</clipPath>
		<rect y="-60" class="st1" width="595.3" height="595.3"/>
		<g class="st2">
			<g>
				<path class="st3" d="M257.4,279.2h-14.6l-7.9-7.9l-30.5,21.2l-29.1,53.6l-8.6,4.6l-22.5,43.1l-23.8,47l17.9,69.5
					c0,0,86.1,40.4,88.1,41.1c2,0.7,81.4-10,81.4-10l66.3-43.6L352.8,409l-6-64.2L300.4,311l-8.6-12.6L257.4,279.2z"/>
				<path class="st4" d="M247.5,317c2,0,53-6,53-6l9.3,6l-24.5,6.6l-20.5,30.5l-20.5,48.3L247.5,317z"/>
				<polygon class="st4" points="288.5,295.8 261.4,299.8 239.5,304.4 273.3,304.4 297.1,305.7 293.8,298.8 				"/>
				<path class="st4" d="M337.2,348.1l9.6-3.3l6,64.2l22.2,88.8l-67.3,43.6l0.8-13.1l38.4-28.5l5-15.2l-15.9-47
					c0,0-4.6,12.2-4.6,10.6c0-1.7-2.6-36.1-2.6-36.1L337.2,348.1z"/>
				<polygon class="st5" points="375,497.8 351.8,484.5 346.8,499.8 				"/>
				<polygon class="st6" points="307.3,541.7 306.2,527.6 346.8,499.8 375,497.8 				"/>
				<polygon class="st7" points="226.3,551.4 205.9,519.6 146.5,491.9 120.3,440.8 138.2,510.4 				"/>
				<polygon class="st8" points="205.9,519.6 306.2,527.6 307.3,541.7 226.3,551.4 				"/>
			</g>
			<polygon class="st9" points="309.7,317 346.8,344.8 337.2,348.1 			"/>
			<g>
				<polygon class="st3" points="299.3,461.9 278.6,436.3 192.8,440.4 172.7,462.5 143,520.6 138.8,558.7 290.3,560.8 305.6,517.2 
									"/>
				<polygon class="st9" points="279.3,459.1 278.6,436.3 299.3,461.9 				"/>
				<polygon class="st4" points="241.9,516.5 279.3,459.1 299.3,461.9 305.6,517.2 290.3,560.8 255.7,560.8 253,535.2 				"/>
				<polygon class="st7" points="143,520.6 242.3,516.5 213.2,535.2 174.8,559 138.8,558.7 				"/>
				<path class="st10" d="M173.4,559c16.6-8.3,68.5-42.5,68.5-42.5l11.1,18.7l2.8,25.6L173.4,559z"/>
				<polygon class="st11" points="186.6,448.4 279.3,459.1 278.6,436.3 192.8,440.4 				"/>
				<polygon class="st10" points="253.5,537.6 275.3,542.8 253,535.2 				"/>
			</g>
		</g>
		<path class="st12" d="M334.4,59.7c0-17.8-17.5-32.3-39.1-32.3c-5,0-9.8,0.8-14.2,2.2C270.9,18.3,254.9,11,237,11
			c-20,0-37.6,9.1-47.6,22.7c-20,1.2-35.7,12.3-35.7,25.9h27c0,0,0,0,0,0.1h112.5c0,0,0,0,0-0.1H334.4z"/>
		<path class="st13" d="M576.4,99.7c0-17.8-17.5-32.3-39.1-32.3c-5,0-9.8,0.8-14.2,2.2C512.9,58.3,496.9,51,479,51
			c-20,0-37.6,9.1-47.6,22.7c-20,1.2-35.7,12.3-35.7,25.9h27c0,0,0,0,0,0.1h112.5c0,0,0,0,0-0.1H576.4z"/>
		<path class="st12" d="M160.2,145.7c0-13.4-13.2-24.4-29.4-24.4c-3.8,0-7.4,0.6-10.7,1.7c-7.8-8.5-19.8-14-33.3-14
			c-15.1,0-28.3,6.8-35.8,17.1C35.8,127,24,135.4,24,145.7h20.3c0,0,0,0,0,0h84.8c0,0,0,0,0,0H160.2z"/>
		<g class="st14">
			<g class="st15">
				<g>
					<polygon class="st16" points="84.8,366.4 106.6,394.4 132,458.6 140.4,510.3 119.6,469.1 108.3,459.9 100.3,439.4 92.5,404.1 
											"/>
					<path class="st3" d="M88.6,536.8c3.3,0,24.7-11.2,24.7-11.2l5.3-35.1l1-21.4l-11.4-9.1L88.6,536.8z"/>
					<polygon class="st17" points="88.6,536.8 85.5,526.2 84.8,366.4 100.3,439.4 108.3,459.9 					"/>
					<polygon class="st7" points="140.5,508.8 113.3,525.7 119.6,469.1 					"/>
				</g>
				<g>
					<g>
						<polygon class="st3" points="272.3,545.7 274.5,551.6 255.5,598.6 234.8,608.6 177.2,619 90.6,587.1 73.5,535.3 85.9,486.8 
							111.1,470.9 174.4,482 197.6,510.2 251.1,538.8 						"/>
						<polygon class="st4" points="272.3,545.7 223.3,515.7 208.7,503 195.5,501.4 179.9,514.4 215,536.2 						"/>
						<polygon class="st5" points="164,482.6 179.9,514.4 195.5,501.4 194.8,493.3 181.8,474.7 						"/>
						<polygon class="st4" points="111.1,470.9 164,482.6 181.8,474.7 175.2,468 141.4,461.7 						"/>
						<polygon class="st18" points="179.9,514.4 126.3,521.8 92.2,551.8 89.5,598.7 177.2,619 215,536.2 						"/>
					</g>
					<path class="st17" d="M82.9,495.4l19.4,12.7l11.4,29.1l-5.8,27.3c0,0,14,2.5,13.2,5.6c-0.8,3.1-0.2,13.3-0.2,13.3l-14.5,39.7
						l-43.3,26.1l-2.6-45.4l3.9-63.3L82.9,495.4z"/>
					<path class="st16" d="M64.4,540.5c3.7-1.7,19.1,6.2,19.1,6.2l18.8-38.6l-19.4-12.7L64.4,540.5z"/>
					<polygon class="st5" points="83.5,546.7 91.1,554.5 113.7,537.2 102.3,508.1 					"/>
					<polygon class="st4" points="91.1,554.5 101.6,572.7 107.9,564.5 113.7,537.2 					"/>
					<polygon class="st4" points="121.1,570.1 101.6,572.7 107.9,564.5 120.1,566.3 					"/>
					<polygon class="st3" points="101.6,572.7 61.6,587.7 83.5,546.7 91.1,554.5 					"/>
					<polygon class="st19" points="61.6,587.7 64.4,540.5 83.5,546.7 					"/>
					<polygon class="st20" points="61.8,634.1 76,621.8 101.6,572.7 88.5,619.7 82.4,638 63.1,649.2 					"/>
				</g>
			</g>
			<g class="st15">
				<g>
					<polygon class="st7" points="-109.4,655.8 -136.8,606.3 -182.7,590.4 -218.9,609 -255.1,683.1 -226,697.3 -122.7,696.4 					
						"/>
					<polygon class="st16" points="-226,697.3 -182.7,642.5 -218.9,609 -255.1,683.1 					"/>
					<polygon class="st21" points="-182.7,642.5 -154.5,616.9 -182.7,590.4 -218.9,609 					"/>
					<polygon class="st4" points="-154.5,616.9 -113.9,629.3 -136.8,606.3 -182.7,590.4 					"/>
				</g>
				<path class="st4" d="M75.9,361.7c0,0-21.2,2-36.4,7.9c0,0-17.9,20.5-31.1,25.2c0,0-11.9,8.6-27.8,17.9c0,0-31.8,20.5-35.8,28.5
					l-15.2,19.9l125.2,0.7l4-18.5l11-49.1L75.9,361.7z"/>
				<path class="st21" d="M48.7,473.6c-2,0-150.3,6.6-150.3,6.6l31.2-19.3l126.4-1L48.7,473.6z"/>
				<polygon class="st16" points="49.4,549.8 33.5,555.8 22.9,582.2 -24.8,575 -24.1,600.8 -97,639.2 -124.8,555.8 -101.5,479.8 
					49.9,472.3 				"/>
				<polygon class="st5" points="-139.3,674.9 -97,639.2 -124.8,555.8 -148.6,619.3 				"/>
				<polygon class="st3" points="85.2,374.3 83.8,364.4 75.9,361.7 54.7,461.7 84.5,481.6 				"/>
				<polygon class="st11" points="87.1,490.2 48.7,473.6 54.7,461.7 84.5,481.6 				"/>
				<path class="st3" d="M71.2,588.9c-0.7-2-21.9-39.1-21.9-39.1l-0.7-76.2l38.4,16.6l-0.7,72.2L71.2,588.9z"/>
				<polygon class="st22" points="54,650.4 54,692.8 -45.3,692.8 36.2,616.7 49.4,549.8 71.2,588.9 				"/>
				<path class="st3" d="M-140.7,694.8c0-2,1.3-19.9,1.3-19.9l42.4-35.8l72.8-38.4l47-18.5l10.6-26.5l15.9-6
					c0,0-11.6,65.3-10.9,66.7c0.7,1.3-83.8,76.4-83.8,76.4L-140.7,694.8z"/>
				<polygon class="st19" points="22.9,582.2 -24.8,575 -24.2,602.3 				"/>
				<g>
					<polygon class="st16" points="-113.7,700.4 -68.7,664.7 34.6,622.3 118.1,607.7 51.9,642.2 37.3,660.7 4.2,674 -52.8,687.2 
											"/>
					<path class="st3" d="M162.1,691.1c0-5.3-18.5-39.7-18.5-39.7l-56.9-7.9l-34.7-1.2l-14.6,18.5L162.1,691.1z"/>
					<polygon class="st17" points="162.1,691.1 144.8,696.4 -113.7,700.4 4.2,674 37.3,660.7 					"/>
					<polygon class="st7" points="115.7,607.6 143.5,651.3 51.9,642.2 					"/>
				</g>
				<polygon class="st4" points="51.9,642.2 34.6,622.3 118.1,607.7 				"/>
			</g>
		</g>
		<g class="st14">
			<g>
				<polygon class="st16" points="532.2,581.6 496.7,553.4 415.1,519.9 349.2,508.4 401.5,535.6 413,550.2 439.1,560.7 484.1,571.1 
									"/>
				<path class="st3" d="M314.5,574.2c0-4.2,14.6-31.4,14.6-31.4l45-6.3l27.4-1l11.5,14.6L314.5,574.2z"/>
				<polygon class="st17" points="314.5,574.2 328,578.4 532.2,581.6 439.1,560.7 413,550.2 				"/>
				<polygon class="st7" points="351.1,508.3 329.1,542.8 401.5,535.6 				"/>
			</g>
			<g>
				<g>
					<polygon class="st3" points="305.8,339.4 298.3,336.5 238,360.1 224.9,386.4 210.8,459.8 250.3,570.9 316.2,593.5 378.3,578.4 
						399,546.4 385.8,465.5 350.1,435.4 314.3,366.7 					"/>
					<polygon class="st4" points="305.8,339.4 343.5,402.4 359.5,421.2 361.3,438.2 344.4,457.9 317.1,412.8 					"/>
					<polygon class="st5" points="384.9,478.7 344.4,457.9 361.3,438.2 371.7,439.1 395.2,456.1 					"/>
					<polygon class="st4" points="399,546.4 384.9,478.7 395.2,456.1 403.7,464.5 411.2,507.8 					"/>
					<polygon class="st18" points="344.4,457.9 334.2,526.3 295.4,569.4 235.4,572.2 210.8,459.8 317.1,412.8 					"/>
				</g>
				<path class="st17" d="M367.4,582.2l-16-25l-37-15l-35,7c0,0-3-18-7-17c-4,1-17,0-17,0l-51,18l-34,55l57.9,4l80.9-4L367.4,582.2z
					"/>
				<path class="st16" d="M309.4,605.1c2.2-4.7-7.6-24.5-7.6-24.5l49.6-23.5l16,25L309.4,605.1z"/>
				<polygon class="st5" points="301.8,580.7 291.9,570.8 314.4,542.2 351.4,557.2 				"/>
				<polygon class="st4" points="291.9,570.8 268.8,557.1 279.4,549.2 314.4,542.2 				"/>
				<polygon class="st4" points="272.4,532.2 268.8,557.1 279.4,549.2 277.3,533.6 				"/>
				<polygon class="st3" points="268.8,557.1 249.1,608 301.8,580.7 291.9,570.8 				"/>
				<polygon class="st19" points="249.1,608 309.4,605.1 301.8,580.7 				"/>
				<polygon class="st20" points="189.8,607 205.8,589.1 268.8,557.1 208.6,573.1 185.1,580.7 170.5,605.1 				"/>
			</g>
		</g>
		<g class="st14">
			<g>
				<path class="st3" d="M172.2,407.2h-12.8l-7-7l-26.7,18.6l-25.5,47l-7.5,4.1L73,507.6l-20.9,41.2l15.7,60.9
					c0,0,75.4,35.4,77.1,36c1.7,0.6,71.2-8.8,71.2-8.8l58.1-38.2l-18.6-77.7l-5.2-56.3l-40.6-29.6l-7.5-11L172.2,407.2z"/>
				<path class="st4" d="M163.5,440.3c1.7,0,46.4-5.2,46.4-5.2l8.1,5.2l-21.5,5.8l-18,26.7l-18,42.3L163.5,440.3z"/>
				<polygon class="st4" points="199.4,421.7 175.7,425.2 156.5,429.3 186.1,429.3 207,430.4 204.1,424.3 				"/>
				<path class="st4" d="M242.1,467.5l8.4-2.9l5.2,56.3l19.4,77.7l-58.9,38.2l0.7-11.5l33.6-24.9l4.3-13.3l-13.9-41.2
					c0,0-4.1,10.7-4.1,9.3c0-1.4-2.3-31.6-2.3-31.6L242.1,467.5z"/>
				<polygon class="st5" points="275.1,598.6 254.8,587 250.5,600.4 				"/>
				<polygon class="st6" points="215.9,637.1 215,624.7 250.5,600.4 275.1,598.6 				"/>
				<polygon class="st7" points="144.9,645.6 127.1,617.7 75,593.5 52.1,548.7 67.8,609.6 				"/>
				<polygon class="st8" points="127.1,617.7 215,624.7 215.9,637.1 144.9,645.6 				"/>
			</g>
			<polygon class="st9" points="218,440.3 250.5,464.6 242.1,467.5 			"/>
			<g>
				<polygon class="st3" points="208.9,567.1 190.7,544.7 115.6,548.4 98.1,567.8 72,618.6 68.4,651.9 201,653.8 214.4,615.6 				
					"/>
				<polygon class="st9" points="191.3,564.7 190.7,544.7 208.9,567.1 				"/>
				<polygon class="st4" points="158.6,615 191.3,564.7 208.9,567.1 214.4,615.6 201,653.8 170.7,653.8 168.3,631.4 				"/>
				<polygon class="st7" points="72,618.6 158.9,615 133.5,631.4 99.9,652.2 68.4,651.9 				"/>
				<path class="st10" d="M98.7,652.2c14.5-7.3,60-37.2,60-37.2l9.7,16.4l2.4,22.4L98.7,652.2z"/>
				<polygon class="st11" points="110.2,555.3 191.3,564.7 190.7,544.7 115.6,548.4 				"/>
				<polygon class="st10" points="168.8,633.5 187.9,638 168.3,631.4 				"/>
			</g>
		</g>
		<g class="st14">
			<g>
				<path class="st3" d="M567.9,343.7h-14.6l-7.9-7.9L514.9,357l-29.1,53.6l-8.6,4.6l-22.5,43.1l-23.8,47l17.9,69.5
					c0,0,86.1,40.4,88.1,41.1c2,0.7,81.4-10,81.4-10l66.3-43.6l-21.2-88.8l-6-64.2l-46.4-33.8l-8.6-12.6L567.9,343.7z"/>
				<path class="st4" d="M557.9,381.5c2,0,53-6,53-6l9.3,6l-24.5,6.6l-20.5,30.5l-20.5,48.3L557.9,381.5z"/>
				<polygon class="st4" points="599,360.3 571.8,364.3 550,368.9 583.8,368.9 607.6,370.2 604.3,363.3 				"/>
				<path class="st4" d="M647.7,412.6l9.6-3.3l6,64.2l22.2,88.8l-67.3,43.6l0.8-13.1l38.4-28.5l5-15.2l-15.9-47
					c0,0-4.6,12.2-4.6,10.6c0-1.7-2.6-36.1-2.6-36.1L647.7,412.6z"/>
				<polygon class="st5" points="685.4,562.3 662.3,549 657.3,564.3 				"/>
				<polygon class="st6" points="617.8,606.2 616.7,592.1 657.3,564.3 685.4,562.3 				"/>
				<polygon class="st7" points="536.7,615.9 516.4,584.1 456.9,556.4 430.8,505.3 448.7,574.9 				"/>
				<polygon class="st8" points="516.4,584.1 616.7,592.1 617.8,606.2 536.7,615.9 				"/>
			</g>
			<polygon class="st9" points="620.2,381.5 657.3,409.3 647.7,412.6 			"/>
			<g>
				<polygon class="st3" points="609.8,526.3 589.1,500.8 503.3,504.9 483.2,527 453.5,585.1 449.3,623.2 600.8,625.3 616,581.7 
									"/>
				<polygon class="st9" points="589.8,523.6 589.1,500.8 609.8,526.3 				"/>
				<polygon class="st4" points="552.4,581 589.8,523.6 609.8,526.3 616,581.7 600.8,625.3 566.2,625.3 563.5,599.7 				"/>
				<polygon class="st7" points="453.5,585.1 552.7,581 523.7,599.7 485.3,623.5 449.3,623.2 				"/>
				<path class="st10" d="M483.9,623.5c16.6-8.3,68.5-42.5,68.5-42.5l11.1,18.7l2.8,25.6L483.9,623.5z"/>
				<polygon class="st11" points="497.1,512.9 589.8,523.6 589.1,500.8 503.3,504.9 				"/>
				<polygon class="st10" points="564,602.1 585.8,607.3 563.5,599.7 				"/>
			</g>
		</g>
		<g class="st14">
			<polygon class="st17" points="613.4,400.7 504,408.7 406.9,386.9 364.8,355.3 329,296.7 326.8,284.2 592.7,338.9 627.6,343.1 
				634.4,385.7 			"/>
			<path class="st16" d="M623.5,354c-3.6-0.8-59.6,6.4-59.6,6.4l-72.5-6.6c0,0-85.3-17.7-88.1-19.4c-2.7-1.7-76.6-50.1-76.6-50.1
				l26.4-9.8l97.6,10.2l152.2,44.1l24.6,14.4L623.5,354z"/>
			<polygon class="st4" points="326.8,284.2 443.2,295.6 450.9,284.7 353.3,274.5 			"/>
			<polygon class="st5" points="443.2,295.6 561.3,360.5 623.5,354 627.6,343.1 603.1,328.8 450.9,284.7 			"/>
			<polygon class="st23" points="504,408.7 487.9,353 563.9,360.4 623.5,354 627.6,343.1 634.4,385.7 613.4,400.7 			"/>
			<polygon class="st24" points="406.5,386.9 403.4,334.4 326.8,284.2 327.1,293.1 362.2,355.3 			"/>
			<g>
				<polygon class="st24" points="428.6,396.9 402.6,364.7 383.7,358.2 366,364.1 351.2,375.3 354.9,378.8 359,395.6 379.6,398.5 
					409.3,407.3 				"/>
				<polygon class="st4" points="393.8,376.4 354.9,378.8 351.2,375.3 366,364.1 373.3,361.7 404.9,367.3 				"/>
				<polygon class="st25" points="359,395.6 353.6,393.1 351.2,375.3 354.9,378.8 				"/>
				<polygon class="st23" points="393.8,376.4 409.3,407.3 428.6,396.9 404.9,367.3 				"/>
			</g>
		</g>
		<path class="st26" d="M377,291l111.4,20.6c0,0,8.6,8.4-12.4,10.4l-53-4l-41-11l-24.4-8.3L377,291z"/>
		<g class="st14">
			<g>
				<path class="st23" d="M702.7,370.5h-7.8l-4.2-4.2l-16.2,11.3l-15.5,28.6l-4.6,2.5l-12,22.9l-12.7,25l9.5,37
					c0,0,45.9,21.5,46.9,21.9c1.1,0.4,43.3-5.3,43.3-5.3l35.3-23.2l-11.3-47.3l-3.2-34.2l-24.7-18l-4.6-6.7L702.7,370.5z"/>
				<path class="st4" d="M697.4,390.6c1.1,0,28.2-3.2,28.2-3.2l4.9,3.2l-13,3.5l-10.9,16.2l-10.9,25.7L697.4,390.6z"/>
				<polygon class="st4" points="719.3,379.3 704.8,381.4 693.2,383.9 711.2,383.9 723.8,384.6 722.1,380.9 				"/>
				<path class="st16" d="M745.2,407.2l5.1-1.8l3.2,34.2l11.8,47.3l-35.9,23.2l0.4-7l20.5-15.2l2.6-8.1l-8.5-25c0,0-2.5,6.5-2.5,5.6
					c0-0.9-1.4-19.2-1.4-19.2L745.2,407.2z"/>
				<polygon class="st5" points="765.3,486.9 753,479.8 750.3,488 				"/>
				<polygon class="st17" points="729.3,510.3 728.7,502.8 750.3,488 765.3,486.9 				"/>
				<polygon class="st17" points="686.1,515.5 675.3,498.5 643.6,483.8 629.7,456.6 639.2,493.6 				"/>
				<polygon class="st27" points="675.3,498.5 728.7,502.8 729.3,510.3 686.1,515.5 				"/>
			</g>
			<g>
				<path class="st23" d="M539.2,514.5c3.1,0,129,3,129,3l-45.7-39.6L478.2,417l-4.1,17.3L539.2,514.5z"/>
				<polygon class="st17" points="690.5,464.7 707.8,518.6 668.2,517.6 622.5,477.9 				"/>
				<polygon class="st17" points="711.8,441.4 717.9,485.1 707.8,518.6 690.5,464.7 				"/>
				<polygon class="st4" points="478.2,417 622.5,477.9 687.5,469.8 711.8,441.4 685.8,418.9 657,400.7 628.6,376.4 606.2,374.3 
					492.4,406.8 				"/>
				<polygon class="st23" points="645.1,390 581.3,400.7 652.5,400.7 657,400.7 				"/>
				<polygon class="st16" points="628.6,376.4 590.4,388.7 581.3,400.7 645.1,390 				"/>
			</g>
		</g>
		<g class="st14">
			<polygon class="st4" points="583.2,480.9 555,408.4 557.7,429.9 			"/>
			<g>
				<polygon class="st23" points="350.9,526.6 446.2,540 504,534.7 568.4,532 583.2,480.9 557.7,429.9 514.7,463.5 448.9,482.3 
					354.9,448.7 274.3,407.1 279.7,436.6 				"/>
				<path class="st16" d="M274.3,407.1c10.7,2.7,94,48.4,94,48.4l80.6,26.9l65.8-18.8l43-33.6l-2.7-21.5l-84.6-44.3l-128.9,18.8
					L274.3,407.1z"/>
				<polygon class="st17" points="448.9,482.3 446.2,540 568.4,532 514.7,463.5 				"/>
				<polygon class="st5" points="568.4,532 514.7,463.5 557.7,429.9 583.2,480.9 				"/>
			</g>
			<g>
				<polygon class="st16" points="511.6,552.5 475.2,523.6 391.6,489.3 324.1,477.5 377.6,505.4 389.4,520.4 416.2,531.1 
					462.3,541.8 				"/>
				<path class="st3" d="M288.5,544.9c0-4.3,15-32.2,15-32.2l46.1-6.4l28.1-1l11.8,15L288.5,544.9z"/>
				<polygon class="st17" points="288.5,544.9 302.4,549.2 511.6,552.5 416.2,531.1 389.4,520.4 				"/>
				<polygon class="st7" points="326,477.4 303.5,512.8 377.6,505.4 				"/>
			</g>
		</g>
		<g class="st14">
			<g>
				<g>
					<path class="st28" d="M426.3,70c-3.3-0.1-6.1,2.4-6.3,5.8l-0.4,10.5c-0.1,3.3,2.4,6.1,5.8,6.3l47.4,2c3.3,0.1,6.1-2.4,6.3-5.8
						l0.4-10.5c0.1-3.3-2.4-6.1-5.8-6.3L426.3,70z"/>
					<path class="st29" d="M424.8,71.4l-0.4,10.5c-0.1,3.3,2.4,6.1,5.8,6.3l47.4,2c0.5,0,0.9,0,1.4-0.1c-0.7,2.7-3.2,4.6-6.1,4.4
						l-47.4-2c-3.3-0.1-5.9-3-5.8-6.3l0.4-10.5c0.1-2.9,2.2-5.2,4.9-5.7C424.9,70.5,424.8,70.9,424.8,71.4z"/>
				</g>
				<g>
					<path class="st28" d="M466,84.1c0.3,6,5.1,10.6,10.6,10.3c5.5-0.3,9.8-5.5,9.5-11.5c-0.3-6-5.1-10.6-10.6-10.3
						C469.9,72.9,465.7,78.1,466,84.1z"/>
					<path class="st30" d="M476.5,92.4c-4.5,0.3-8.4-3.5-8.7-8.4c-0.3-4.9,3.2-9.1,7.7-9.4l0,0c2.2-0.1,4.3,0.7,5.9,2.3
						c1.6,1.6,2.6,3.8,2.7,6.2C484.5,87.9,481,92.1,476.5,92.4L476.5,92.4z M468.6,83.9c0.2,4.4,3.7,7.8,7.8,7.6l0.1,0.4l0-0.4
						c4.1-0.3,7.2-4.1,6.9-8.5c-0.1-2.1-1-4.1-2.5-5.6c-1.5-1.4-3.4-2.2-5.4-2C471.5,75.7,468.4,79.5,468.6,83.9z"/>
					<path class="st30" d="M476.3,88.5c-2.6,0.2-4.7-2-4.9-4.7c-0.1-2.8,1.8-5.1,4.4-5.3c2.5-0.2,4.7,2,4.9,4.7
						C480.8,86,478.8,88.3,476.3,88.5L476.3,88.5z M472.2,83.7c0.1,2.3,1.9,4,4,3.9l0,0.4l0-0.4c2.1-0.1,3.7-2.1,3.6-4.4
						c-0.1-2.3-1.9-4-4-3.9C473.7,79.5,472.1,81.4,472.2,83.7z"/>
				</g>
			</g>
			<g>
				<g>
					<g>
						<path class="st31" d="M447.7,90.3c0.5-1.4,0.9-2.9,1.4-4.4c0.7-2.7-2.3-4.2-4.5-4.2c-2.2,0-5.1,1.4-4.6,4
							c0.3,1.5,0.7,3.1,1,4.6c0.5,2.1-2.8,3-3.2,0.9c-0.3-1.5-0.7-3-1-4.5c-0.6-2.7,0.5-5.2,2.8-6.8c4.8-3.4,14.3-0.5,13,6.4
							c-0.3,1.7-1,3.3-1.5,4.9C450.3,93.3,447,92.4,447.7,90.3L447.7,90.3z"/>
					</g>
				</g>
				<g>
					<path class="st32" d="M412.2,108.2v70.6c0,1,0.2,1.9,0.6,2.8c1.1,2.3,3.4,4,6.1,4h51.3c2.7,0,5.1-1.6,6.1-4
						c0.4-0.8,0.6-1.8,0.6-2.8v-70.6c0-11.5-9.3-20.9-20.9-20.9h-23.1C421.5,87.4,412.2,96.7,412.2,108.2z"/>
				</g>
				<g>
					<path class="st33" d="M415.7,183.2H467c2.7,0,5.1-1.6,6.1-4c0.4-0.8,0.6-1.8,0.6-2.8v-70.6c0-6.4-2.9-12.1-7.3-15.9
						c6.3,3.6,10.6,10.4,10.6,18.2v70.6c0,1-0.2,1.9-0.6,2.8c-1.1,2.3-3.4,4-6.1,4h-51.3c-2.2,0-4.1-1-5.3-2.6
						C414.3,183.1,415,183.2,415.7,183.2z"/>
				</g>
				<g>
					<g>
						<path class="st34" d="M474.6,109.2C474.5,109.2,474.5,109.2,474.6,109.2L474.6,109.2c0-0.3,0-0.5-0.1-0.7
							C474.5,108.7,474.6,109,474.6,109.2z"/>
					</g>
					<g>
						<path class="st31" d="M413.6,108.3v0.9c0,0,0,0.1,0.1,0.1h0c0-11,9-19.9,20-19.9h21.9c7.9,0,14.7,4.6,18,11.2
							c0.5,1.1,0.9,2.2,1.3,3.3c0.3,1.2,0.6,2.4,0.7,3.7c-0.1-1.5-0.3-2.9-0.6-4.2c-0.3-1.1-0.6-2.1-1.1-3.1
							c-3.1-7-10.1-11.9-18.3-11.9h-21.9C422.6,88.3,413.6,97.2,413.6,108.3z"/>
					</g>
				</g>
				<g class="st35">
					<g>
						<path class="st36" d="M465.2,149.2v41.4h2c4.5,0,8.7-1.6,11.9-4.4c3.9-3.4,6.4-8.4,6.4-14v-20.5c0-1.4-1.1-2.5-2.5-2.5H465.2z
							"/>
					</g>
					<g>
						<path class="st36" d="M402.4,151.7v20.5c0,5.6,2.5,10.6,6.5,14v0c3.2,2.7,7.3,4.4,11.9,4.4h2v-41.4h-17.8
							C403.5,149.2,402.4,150.3,402.4,151.7z"/>
					</g>
				</g>
				<g>
					<path class="st32" d="M408.2,129.2v56.5c0,0.7,0.2,1.4,0.7,2v0c1.2,1.7,3.8,2.9,6.8,2.9h56.7c3,0,5.6-1.2,6.8-2.9
						c0.4-0.6,0.7-1.3,0.7-2v-56.5c0-8.3-10.3-15.1-23-15.1h-25.5C418.5,114.1,408.2,120.8,408.2,129.2z"/>
				</g>
				<g>
					<path class="st33" d="M412.7,187.3h56.7c3,0,5.6-1.2,6.8-2.9c0.4-0.6,0.7-1.3,0.7-2v-56.5c0-2.1-0.7-4.1-1.9-5.9
						c3,2.5,4.8,5.7,4.8,9.2v56.5c0,0.7-0.2,1.4-0.7,2c-1.2,1.7-3.8,2.9-6.8,2.9h-56.7c-3,0-5.6-1.2-6.8-2.9v0
						c-0.3-0.4-0.5-0.9-0.6-1.4C409.5,186.9,411,187.3,412.7,187.3z"/>
				</g>
				<g>
					<g>
						<path class="st33" d="M402.4,152.7V172c0,5.6,2.5,10.6,6.5,14v0c1.2,2.6,3.8,4.4,6.8,4.4h56.7c3,0,5.6-1.8,6.8-4.4
							c3.9-3.4,6.4-8.4,6.4-14v-1.6c-1.8,1.2-3.8,2.2-5.8,3.2c-4.5,2.1-9.4,3.8-14.5,4.8c-4,0.8-8.2,1.2-12.5,1.2
							c-11,0-21.4-2.8-30.1-7.5c-5.6-3-10.5-6.9-14.5-11.4C405.9,158.2,404,155.5,402.4,152.7z"/>
					</g>
				</g>
			</g>
			<g>
				<g>
					<path class="st37" d="M480.2,84.5c0-0.2,0-0.3,0-0.5c0-0.1,0-0.3,0-0.4V55.5c-3.6-0.3-6-2-6-9.2c0-5.1,5-9.3,11.1-9.3
						c5.6,0,10.2,3.4,11,7.9c0.1,0.2,0.1,0.5,0.1,0.8v0.5c0,0,0,0,0,0c0,0,0,0,0,0v37.4c0,0.1,0,0.3,0,0.4c0,0.2,0,0.3,0,0.5
						c0,4.1-3.6,7.4-8.1,7.4C483.8,91.9,480.2,88.6,480.2,84.5z"/>
					<path class="st38" d="M480.8,87.4c1.4,1.2,3.3,1.9,5.4,1.9c4.4,0,8.1-3.3,8.1-7.4c0-0.2,0-0.3,0-0.5c0-0.1,0-0.3,0-0.4l0-37.4
						c0,0,0,0,0,0s0,0,0,0v-0.5c0-0.3,0-0.5-0.1-0.8c-0.1-0.8-0.4-1.6-0.8-2.3c1.5,1.3,2.5,3,2.8,4.9c0.1,0.2,0.1,0.5,0.1,0.8v0.5
						c0,0,0,0,0,0c0,0,0,0,0,0v37.4c0,0.1,0,0.3,0,0.4c0,0.2,0,0.3,0,0.5c0,4.1-3.6,7.4-8.1,7.4C484.9,91.9,482,90,480.8,87.4z"/>
				</g>
				<path class="st39" d="M440.8,123.2c-2.6-1.8-4.4-4.8-4.4-8.3c0-5.5,4.5-10,10-10c0.5,0,0.9,0,1.4,0.1l31.9-27.1l13.5,12.5
					L455,122.9C452,125.4,444.5,126.5,440.8,123.2z"/>
				<path class="st38" d="M440.8,123.2c-2.6-1.8-4.4-4.8-4.4-8.3c0-0.9,0.1-1.7,0.3-2.5c0.6,2.4,2.1,4.4,4,5.7
					c3.7,3.4,11.1,2.2,14.2-0.3l35.4-30l2.9,2.7L455,122.9C452,125.4,444.5,126.5,440.8,123.2z"/>
			</g>
			<g>
				<g>
					<path class="st37" d="M393.5,87.8c0-0.2,0-0.3-0.1-0.5c0-0.1,0-0.3,0-0.4l-1.9-28.1c3.6-0.6,5.9-2.4,5.4-9.6
						c-0.3-5.1-5.6-8.9-11.7-8.5c-5.6,0.4-9.9,4.1-10.4,8.6c-0.1,0.3-0.1,0.5-0.1,0.8l0,0.5c0,0,0,0,0,0c0,0,0,0,0,0l2.5,37.3
						c0,0.1,0,0.3,0.1,0.4c0,0.2,0,0.3,0,0.5c0.3,4.1,4.1,7.1,8.5,6.8C390.3,95.4,393.7,91.8,393.5,87.8z"/>
					<path class="st38" d="M393,90.6c-1.3,1.3-3.2,2.1-5.3,2.3c-4.4,0.3-8.3-2.8-8.5-6.8c0-0.2,0-0.3,0-0.5c0-0.1,0-0.2-0.1-0.4
						l-2.5-37.3c0,0,0,0,0,0c0,0,0,0,0,0l0-0.6c0-0.3,0-0.5,0.1-0.8c0.1-0.8,0.3-1.6,0.6-2.4c-1.4,1.4-2.3,3.2-2.5,5.1
						c-0.1,0.3-0.1,0.5-0.1,0.8l0,0.5c0,0,0,0,0,0c0,0,0,0,0,0l2.5,37.3c0,0.1,0,0.3,0.1,0.4c0,0.2,0,0.3,0,0.5
						c0.3,4.1,4.1,7.1,8.5,6.8C389.3,95.4,392,93.4,393,90.6z"/>
				</g>
				<path class="st37" d="M435.3,123.7c2.5-2,4-5.1,3.8-8.5c-0.4-5.5-5.1-9.7-10.6-9.3c-0.5,0-0.9,0.1-1.4,0.2l-33.6-24.9
					l-12.7,13.4l40.4,29.8C424.4,126.6,431.9,127.3,435.3,123.7z"/>
				<path class="st38" d="M435.3,123.7c2.5-2,4-5.1,3.8-8.5c-0.1-0.9-0.2-1.7-0.5-2.5c-0.5,2.4-1.8,4.5-3.6,6
					c-3.4,3.6-11,2.9-14.1,0.7l-37.4-27.6l-2.7,2.8l40.4,29.8C424.4,126.6,431.9,127.3,435.3,123.7z"/>
			</g>
			<g>
				<path class="st40" d="M379.9,229.6c-0.6,4-4.4,6.7-8.4,6c-4-0.6-6.7-4.4-6-8.4c0.6-4,4.4-6.7,8.4-6
					C377.9,221.9,380.6,225.6,379.9,229.6z"/>
				<polygon class="st40" points="374,292.5 385.7,289.4 379.9,229.6 365.7,230.2 				"/>
			</g>
			<g>
				<path class="st40" d="M368.9,221.7c3.1-2.5,7.7-2,10.3,1.1c2.5,3.1,2,7.7-1.1,10.3c-3.1,2.5-7.7,2-10.3-1.1
					C365.2,228.8,365.7,224.2,368.9,221.7z"/>
				<polygon class="st40" points="434.4,190.6 412.1,180.6 368.9,221.7 379.9,230.8 				"/>
			</g>
			<path class="st41" d="M446.1,198.2c0,0-38.2,3.8-32.7-23.3l38.1,2.6C451.4,177.5,451.7,193.1,446.1,198.2z"/>
			<g>
				<path class="st41" d="M460,248.2c0.6,4-2.2,7.7-6.2,8.3c-4,0.6-7.7-2.2-8.3-6.1c-0.6-4,2.2-7.7,6.1-8.3
					C455.7,241.4,459.4,244.2,460,248.2z"/>
				<polygon class="st41" points="474.4,309.9 486.3,302.1 460,248.2 446.6,253 				"/>
			</g>
			<g>
				<path class="st41" d="M445.1,251.5c-1-3.9,1.4-7.9,5.3-8.8c3.9-1,7.9,1.4,8.8,5.3c1,3.9-1.4,7.9-5.3,8.8
					C450,257.8,446,255.4,445.1,251.5z"/>
				<polygon class="st41" points="444.4,178.9 426,195 445.1,251.5 458,245.3 				"/>
			</g>
			<path class="st42" d="M412.7,176.3l39.1,1.5l2.3-68.4c0,0-0.9-11.1-15-10.1l-13.4,3.5c0,0-9.7-0.3-11.1,12.4L412.7,176.3z"/>
			<path class="st38" d="M454,109.4c0,0-0.6-7.5-8.6-9.6c3.5,3,3.9,7.2,3.9,7.2l-2.3,68.4l-34.2-1.3l-0.1,2.2l39.1,1.5L454,109.4z"
				/>
			<path class="st43" d="M441.3,99.6l-1.1,8.9c0,0-13.7,3.8-17-3l2.7-13.7C425.9,91.8,434.6,101.4,441.3,99.6z"/>
			<path class="st44" d="M464.5,198.3c0,0-27.2,1.9-24.9-43l2.7-53c0,0,3.5-5.2,9.8-1.7L476.6,79l0.9-18.4l21,2.2l-2,27.6l-36.7,29
				C459.8,119.4,454.2,188,464.5,198.3z"/>
			<path class="st44" d="M372.6,65.6l20.8-2.7l0.2,18.3l25.1,17.2l-3.8,73.6c0,0-0.2,24.9-24.4,21.5c0,0,8-7.7,9.9-24.4l2.7-53
				l-28.7-22.6L372.6,65.6z"/>
			<g>
				<path class="st37" d="M453.6,91.1c1.5-2.6,0.6-6-2-7.5l1.7-2.9c0.1-0.1,0.1-0.2,0.1-0.3c0.1-0.2,0.3-0.4,0.4-0.6
					c3.1-5.4-0.4-13.3-7.9-17.7c-7.5-4.3-16.1-3.4-19.2,2c-0.1,0.2-0.2,0.4-0.3,0.6c-0.1,0.1-0.1,0.2-0.2,0.3l-10.6,18.3
					c-0.2,0.3-0.3,0.7-0.3,1c-2.4,5.4,1,12.7,8.1,16.8c7,4.1,15.1,3.4,18.6-1.4c0.3-0.2,0.6-0.5,0.7-0.8l3.4-5.9
					C448.7,94.6,452.1,93.7,453.6,91.1z"/>
				<path class="st38" d="M451.6,83.6l1.7-2.9c0.1-0.1,0.1-0.2,0.1-0.3c0.1-0.2,0.3-0.4,0.4-0.6c1.9-3.3,1.3-7.5-1.1-11.3
					c1.6,3.3,1.7,6.8,0.1,9.6c-0.1,0.2-0.2,0.4-0.4,0.6c0,0.1-0.1,0.2-0.1,0.3l-2.2,4.3c2.6,1.5,4.1,3.5,2.6,6.1
					c-1.5,2.6-4.9,3.5-7.5,2l-3.4,5.9c-0.2,0.3-0.4,0.6-0.7,0.8c-3.4,4.8-11.5,5.5-18.6,1.4c-2.9-1.7-5.1-3.8-6.7-6.2
					c1.4,3,4.1,5.9,7.6,7.9c7,4.1,15.1,3.4,18.6-1.4c0.3-0.2,0.6-0.5,0.7-0.8l3.4-5.9c2.6,1.5,6,0.6,7.5-2
					C455.1,88.5,454.2,85.1,451.6,83.6z"/>
				<path class="st45" d="M434.6,102c-4,7-12.6,9.5-19.2,5.8c-6.6-3.8-8.6-12.5-4.6-19.5c4-7,5.7-14,19.1-5.8
					C441.1,89.4,438.6,95.1,434.6,102z"/>
				<g>
					<path class="st46" d="M422.2,84.4c0,0,7.2,3.7,11,4.5c0,0,2.5,0.9,1.6,3.1c0,0-1.4,3.3-7.5,3.5c0,0-4.2,0.1-7.2-5
						c0,0-1.8-4.1-0.1-6.1C420,84.4,420.4,83.2,422.2,84.4z"/>
					<path class="st47" d="M420.4,85.1c-0.2,0.6,0.1,1.3,0.7,1.6l10.4,4.1c0.6,0.2,1.3-0.1,1.6-0.7l0,0c0.2-0.6-0.1-1.3-0.7-1.6
						L422,84.4C421.4,84.1,420.7,84.4,420.4,85.1L420.4,85.1z"/>
					<path class="st48" d="M420.8,91.6c1.3-0.7,3.4-0.8,5.5-0.3c2.5,0.6,4.5,1.9,5.1,3.3c-1.1,0.4-2.5,0.8-4.3,0.8
						C427.3,95.4,423.7,95.5,420.8,91.6z"/>
				</g>
				<path class="st49" d="M435.5,78.9c-0.3-0.3-0.3-0.9,0-1.2c0.9-0.9,3.4-2.1,5.8,0.2c0.3,0.3,1.7,1.6,1.2,4
					c-0.1,0.5-0.6,0.7-1,0.6c-0.5-0.1-0.7-0.6-0.6-1c0.3-1.5-0.5-2.2-0.6-2.3l-0.1-0.1c-1.7-1.7-3.2-0.5-3.4-0.2
					C436.4,79.3,435.8,79.2,435.5,78.9C435.5,78.9,435.5,78.9,435.5,78.9z"/>
				<path class="st49" d="M422.9,72.9c-0.4-0.3-0.4-0.8-0.1-1.2c0.8-1.1,3-2.6,5.7-0.7c0.3,0.2,1.9,1.3,1.7,3.8
					c0,0.5-0.4,0.8-0.9,0.8c-0.5,0-0.8-0.4-0.8-0.9c0.1-1.5-0.8-2.1-0.9-2.2l-0.1,0c-2-1.4-3.2,0-3.4,0.3
					C423.9,73.1,423.3,73.2,422.9,72.9C422.9,72.9,422.9,72.9,422.9,72.9z"/>
			</g>
			<g>
				<path class="st45" d="M445.9,62.3c-1.2,3.9-6.8,5.6-12.5,3.9c-5.8-1.7-9.5-6.2-8.3-10.1c1.2-3.9,6.8-5.6,12.5-3.9
					C443.4,53.9,447.1,58.4,445.9,62.3z"/>
				<path class="st45" d="M445.1,53.2c-1.2,3.9-5.8,5.9-10.3,4.5c-4.5-1.4-7.3-5.6-6.2-9.4c1.2-3.9,5.8-5.9,10.3-4.5
					C443.5,45.1,446.2,49.4,445.1,53.2z"/>
				<path class="st45" d="M459.3,76c-0.7,2.5-3.7,3.8-6.7,2.9c-3-0.9-4.7-3.6-4-6.1c0.7-2.5,3.8-3.8,6.7-2.9
					C458.2,70.7,460,73.5,459.3,76z"/>
				<path class="st45" d="M462.8,72.5c-0.7,2.5-3.7,3.8-6.7,2.9c-3-0.9-4.7-3.6-4-6.1c0.7-2.5,3.8-3.8,6.7-2.9
					C461.7,67.2,463.5,70,462.8,72.5z"/>
				<path class="st45" d="M462.3,65.6c-0.8,2.5-3.8,3.8-6.7,2.8c-2.9-0.9-4.7-3.7-3.9-6.2c0.8-2.5,3.8-3.8,6.7-2.8
					C461.4,60.3,463.1,63.1,462.3,65.6z"/>
				<path class="st45" d="M457.6,69.3c-1.2,3.9-6.8,5.6-12.5,3.9c-5.8-1.7-9.5-6.2-8.3-10.1c1.2-3.9,6.8-5.6,12.5-3.9
					C455,60.9,458.8,65.4,457.6,69.3z"/>
				<path class="st45" d="M459.4,66c-0.5,2.3-2.9,3.7-5.5,3.1c-2.5-0.6-4.2-2.8-3.7-5.1c0.5-2.3,2.9-3.7,5.5-3.1
					C458.2,61.5,459.9,63.8,459.4,66z"/>
				<path class="st45" d="M454.7,52.8c-0.7,3.1-4.1,5.1-7.6,4.3c-3.5-0.8-5.8-3.9-5.1-7.1c0.7-3.1,4.1-5.1,7.6-4.3
					C453.1,46.5,455.4,49.6,454.7,52.8z"/>
				<path class="st45" d="M462.7,58.8c-0.7,3.1-4.1,5.1-7.6,4.3c-3.5-0.8-5.8-3.9-5.1-7.1c0.7-3.1,4.1-5.1,7.6-4.3
					C461.1,52.5,463.4,55.6,462.7,58.8z"/>
				<path class="st45" d="M456.2,61.5c-1.4,2.7-6.8,2.8-12,0.2c-5.2-2.7-8.3-7-6.8-9.8c1.4-2.7,6.8-2.8,12-0.1
					C454.5,54.3,457.6,58.7,456.2,61.5z"/>
			</g>
			<g>
				<path class="st28" d="M357.6,298.7c0-0.4-0.1-0.8-0.1-1.2c-0.4-7.2,11.3-10.9,15.9-11.2v-5.5l8.6,2.4c4.7-0.2,8.7,5.4,9.1,12.6
					c0,0.3,0,0.7,0,1L357.6,298.7z"/>
				<polygon class="st28" points="385.2,267 368.6,268.4 373.4,289.1 390.4,292 				"/>
			</g>
			<g>
				<path class="st28" d="M455.2,317.5c-0.1-0.4-0.2-0.8-0.2-1.1c-1.2-7.1,9.9-12.2,14.5-13l-0.7-5.5l8.9,1.3
					c4.6-0.8,9.3,4.3,10.6,11.5c0.1,0.3,0.1,0.6,0.1,1L455.2,317.5z"/>
				<polygon class="st28" points="478.8,282.7 462.5,286 469.8,306.1 487,306.9 				"/>
			</g>
			<path class="st45" d="M450,75.9c0,0-6.5,20-13.5,17.5l-4,9c0,0,6.5,2,14-13c0,0,1.7-7.2,5.1-5.8l4.5-8.2L450,75.9z"/>
		</g>
		<path class="st50" d="M332.6,139.1l20.7,135.3l-2.3,2.1l-23-137c0,0-1.5-5.5,1.5-7C329.5,132.5,331,131,332.6,139.1z"/>
		<g class="st14">
			<g>
				<g>
					<g>
						<path class="st51" d="M251,188.6c0,0,16.2-5.1,33.6,0.7c0,0,14.6,4.1,14.8-6.2c0.1-10.3-7.1-39.8-7.1-39.8s-2.3,13.8-18.5,7.3
							c0,0-16.2-6.5-29.1,4.6c0,0,14.4,2.2,17.6,12.8C262.2,168,265.4,178.6,251,188.6z"/>
					</g>
				</g>
			</g>
			<g>
				<g>
					<g>
						<path class="st40" d="M329.1,132.7c0,0-11.2,3.9-19.4-1c0,0-11.7-1.2-17,3.9c-5.2,5.1,6.7,47.6,6.7,47.6s6.8-13.7,18.3-9.2
							c0,0,12.8,5,18-0.1L329.1,132.7z"/>
					</g>
				</g>
			</g>
		</g>
	</g>
</g>
</svg>
