<?xml version="1.0" encoding="utf-8"?>
<!-- Generator: Adobe Illustrator 25.2.3, SVG Export Plug-In . SVG Version: 6.00 Build 0)  -->
<svg version="1.1" id="Layer_1" xmlns="http://www.w3.org/2000/svg" xmlns:xlink="http://www.w3.org/1999/xlink" x="0px" y="0px"
	 viewBox="0 0 595.3 357.6" style="enable-background:new 0 0 595.3 357.6;" xml:space="preserve">
<style type="text/css">
	.st0{clip-path:url(#SVGID_2_);}
	.st1{opacity:0.5;clip-path:url(#SVGID_6_);}
	.st2{fill:#4C4652;}
	.st3{fill:#8C8D7C;}
	.st4{fill:#7A7677;}
	.st5{fill:#554F5B;}
	.st6{fill:#403C44;}
	.st7{fill:#443F49;}
	.st8{fill:#A7A795;}
	.st9{fill:#433F47;}
	.st10{fill:#45404C;}
	.st11{clip-path:url(#SVGID_8_);fill:#E5E5E5;}
	.st12{clip-path:url(#SVGID_10_);fill:#F4F4F4;}
	.st13{clip-path:url(#SVGID_12_);fill:#E5E5E5;}
	.st14{clip-path:url(#SVGID_14_);}
	.st15{opacity:0.5;}
	.st16{fill:#82817A;}
	.st17{fill:#3C3544;}
	.st18{fill:#413C47;}
	.st19{fill:#433E49;}
	.st20{fill:#2F2A35;}
	.st21{fill:#8F8D81;}
	.st22{fill:#413A49;}
	.st23{clip-path:url(#SVGID_16_);}
	.st24{clip-path:url(#SVGID_18_);}
	.st25{clip-path:url(#SVGID_20_);}
	.st26{clip-path:url(#SVGID_22_);}
	.st27{fill:#322D3A;}
	.st28{fill:#4B4454;}
	.st29{fill:#5B5466;}
	.st30{opacity:0.5;clip-path:url(#SVGID_24_);fill:#3C3544;enable-background:new    ;}
	.st31{clip-path:url(#SVGID_26_);}
	.st32{fill:#35313A;}
	.st33{clip-path:url(#SVGID_28_);}
	.st34{clip-path:url(#SVGID_30_);}
	.st35{fill:#3F383E;}
	.st36{opacity:0.2;fill:#3F383E;enable-background:new    ;}
	.st37{fill:#9091A7;}
	.st38{fill:#353435;}
	.st39{fill:#312E33;}
	.st40{fill:#E2E3E4;}
	.st41{fill:#B5B7B9;}
	.st42{opacity:0.6;}
	.st43{fill:#FFFFFF;}
	.st44{fill:#F9AA77;}
	.st45{opacity:0.6;fill:#EE9494;enable-background:new    ;}
	.st46{fill:#FF556F;}
	.st47{fill:#364451;}
	.st48{fill:#415062;}
	.st49{fill:#6C7FB6;}
	.st50{fill:#FF866D;}
	.st51{fill:#8F90A6;}
	.st52{fill:#BCBCBC;}
	.st53{fill:#E35133;}
	.st54{fill:#F0F3C4;}
	.st55{fill:#B83722;}
	.st56{fill:#151919;}
	.st57{clip-path:url(#SVGID_32_);fill:#312E33;}
	.st58{clip-path:url(#SVGID_34_);}
	.st59{fill:#222D35;}
</style>
<g>
	<g>
		<g>
			<g>
				<defs>
					<rect id="SVGID_1_" y="1" width="595.3" height="356.6"/>
				</defs>
				<clipPath id="SVGID_2_">
					<use xlink:href="#SVGID_1_"  style="overflow:visible;"/>
				</clipPath>
				<g class="st0">
					<g>
						<g>
							<g>
								<defs>
									<rect id="SVGID_3_" y="-59" width="595.3" height="595.3"/>
								</defs>
								<clipPath id="SVGID_4_">
									<use xlink:href="#SVGID_3_"  style="overflow:visible;"/>
								</clipPath>
							</g>
						</g>
					</g>
					<g>
						<g>
							<g>
								<defs>
									<rect id="SVGID_5_" y="-59" width="595.3" height="595.3"/>
								</defs>
								<clipPath id="SVGID_6_">
									<use xlink:href="#SVGID_5_"  style="overflow:visible;"/>
								</clipPath>
								<g class="st1">
									<g>
										<path class="st2" d="M257.4,280.2h-14.6l-7.9-7.9l-30.5,21.2l-29.1,53.6l-8.6,4.6l-22.5,43.1l-23.8,47l17.9,69.5
											c0,0,86.1,40.4,88.1,41.1c2,0.7,81.4-10,81.4-10l66.3-43.6L352.8,410l-6-64.2L300.4,312l-8.6-12.6L257.4,280.2z"/>
										<path class="st3" d="M247.5,318c2,0,53-6,53-6l9.3,6l-24.5,6.6l-20.5,30.5l-20.5,48.3L247.5,318z"/>
										<polygon class="st3" points="288.5,296.8 261.4,300.8 239.5,305.4 273.3,305.4 297.1,306.7 293.8,299.8 										"/>
										<path class="st3" d="M337.2,349.1l9.6-3.3l6,64.2l22.2,88.8l-67.3,43.6l0.8-13.1l38.4-28.5l5-15.2l-15.9-47
											c0,0-4.6,12.2-4.6,10.6c0-1.7-2.6-36.1-2.6-36.1L337.2,349.1z"/>
										<polygon class="st4" points="375,498.8 351.8,485.5 346.8,500.8 										"/>
										<polygon class="st5" points="307.3,542.7 306.2,528.6 346.8,500.8 375,498.8 										"/>
										<polygon class="st6" points="226.3,552.4 205.9,520.6 146.5,492.9 120.3,441.8 138.2,511.4 										"/>
										<polygon class="st7" points="205.9,520.6 306.2,528.6 307.3,542.7 226.3,552.4 										"/>
									</g>
									<polygon class="st8" points="309.7,318 346.8,345.8 337.2,349.1 									"/>
									<g>
										<polygon class="st2" points="299.3,462.9 278.6,437.3 192.8,441.4 172.7,463.5 143,521.6 138.8,559.7 290.3,561.8 
											305.6,518.2 										"/>
										<polygon class="st8" points="279.3,460.1 278.6,437.3 299.3,462.9 										"/>
										<polygon class="st3" points="241.9,517.5 279.3,460.1 299.3,462.9 305.6,518.2 290.3,561.8 255.7,561.8 253,536.2 
																					"/>
										<polygon class="st6" points="143,521.6 242.3,517.5 213.2,536.2 174.8,560 138.8,559.7 										"/>
										<path class="st9" d="M173.4,560c16.6-8.3,68.5-42.5,68.5-42.5l11.1,18.7l2.8,25.6L173.4,560z"/>
										<polygon class="st10" points="186.6,449.4 279.3,460.1 278.6,437.3 192.8,441.4 										"/>
										<polygon class="st9" points="253.5,538.6 275.3,543.8 253,536.2 										"/>
									</g>
								</g>
							</g>
						</g>
					</g>
					<g>
						<g>
							<g>
								<defs>
									<rect id="SVGID_7_" y="-59" width="595.3" height="595.3"/>
								</defs>
								<clipPath id="SVGID_8_">
									<use xlink:href="#SVGID_7_"  style="overflow:visible;"/>
								</clipPath>
								<path class="st11" d="M334.4,60.7c0-17.8-17.5-32.3-39.1-32.3c-5,0-9.8,0.8-14.2,2.2C270.9,19.3,254.9,12,237,12
									c-20,0-37.6,9.1-47.6,22.7c-20,1.2-35.7,12.3-35.7,25.9h27c0,0,0,0,0,0.1h112.5c0,0,0,0,0-0.1h41.2L334.4,60.7L334.4,60.7z"
									/>
							</g>
						</g>
					</g>
					<g>
						<g>
							<g>
								<defs>
									<rect id="SVGID_9_" y="-59" width="595.3" height="595.3"/>
								</defs>
								<clipPath id="SVGID_10_">
									<use xlink:href="#SVGID_9_"  style="overflow:visible;"/>
								</clipPath>
								<path class="st12" d="M576.4,100.7c0-17.8-17.5-32.3-39.1-32.3c-5,0-9.8,0.8-14.2,2.2C512.9,59.3,496.9,52,479,52
									c-20,0-37.6,9.1-47.6,22.7c-20,1.2-35.7,12.3-35.7,25.9h27c0,0,0,0,0,0.1h112.5c0,0,0,0,0-0.1L576.4,100.7L576.4,100.7z"/>
							</g>
						</g>
					</g>
					<g>
						<g>
							<g>
								<defs>
									<rect id="SVGID_11_" y="-59" width="595.3" height="595.3"/>
								</defs>
								<clipPath id="SVGID_12_">
									<use xlink:href="#SVGID_11_"  style="overflow:visible;"/>
								</clipPath>
								<path class="st13" d="M160.2,146.7c0-13.4-13.2-24.4-29.4-24.4c-3.8,0-7.4,0.6-10.7,1.7c-7.8-8.5-19.8-14-33.3-14
									c-15.1,0-28.3,6.8-35.8,17.1c-15.2,0.9-27,9.3-27,19.6h20.3l0,0h84.8l0,0H160.2z"/>
							</g>
						</g>
					</g>
					<g>
						<g>
							<g>
								<defs>
									<rect id="SVGID_13_" y="-59" width="595.3" height="595.3"/>
								</defs>
								<clipPath id="SVGID_14_">
									<use xlink:href="#SVGID_13_"  style="overflow:visible;"/>
								</clipPath>
								<g class="st14">
									<g class="st15">
										<g>
											<polygon class="st16" points="84.8,367.4 106.6,395.4 132,459.6 140.4,511.3 119.6,470.1 108.3,460.9 100.3,440.4 
												92.5,405.1 											"/>
											<path class="st2" d="M88.6,537.8c3.3,0,24.7-11.2,24.7-11.2l5.3-35.1l1-21.4l-11.4-9.1L88.6,537.8z"/>
											<polygon class="st17" points="88.6,537.8 85.5,527.2 84.8,367.4 100.3,440.4 108.3,460.9 											"/>
											<polygon class="st6" points="140.5,509.8 113.3,526.7 119.6,470.1 											"/>
										</g>
										<g>
											<g>
												<polygon class="st2" points="272.3,546.7 274.5,552.6 255.5,599.6 234.8,609.6 177.2,620 90.6,588.1 73.5,536.3 
													85.9,487.8 111.1,471.9 174.4,483 197.6,511.2 251.1,539.8 												"/>
												<polygon class="st3" points="272.3,546.7 223.3,516.7 208.7,504 195.5,502.4 179.9,515.4 215,537.2 												"/>
												<polygon class="st4" points="164,483.6 179.9,515.4 195.5,502.4 194.8,494.3 181.8,475.7 												"/>
												<polygon class="st3" points="111.1,471.9 164,483.6 181.8,475.7 175.2,469 141.4,462.7 												"/>
												<polygon class="st18" points="179.9,515.4 126.3,522.8 92.2,552.8 89.5,599.7 177.2,620 215,537.2 												"/>
											</g>
											<path class="st17" d="M82.9,496.4l19.4,12.7l11.4,29.1l-5.8,27.3c0,0,14,2.5,13.2,5.6s-0.2,13.3-0.2,13.3l-14.5,39.7
												l-43.3,26.1l-2.6-45.4l3.9-63.3L82.9,496.4z"/>
											<path class="st16" d="M64.4,541.5c3.7-1.7,19.1,6.2,19.1,6.2l18.8-38.6l-19.4-12.7L64.4,541.5z"/>
											<polygon class="st4" points="83.5,547.7 91.1,555.5 113.7,538.2 102.3,509.1 											"/>
											<polygon class="st3" points="91.1,555.5 101.6,573.7 107.9,565.5 113.7,538.2 											"/>
											<polygon class="st3" points="121.1,571.1 101.6,573.7 107.9,565.5 120.1,567.3 											"/>
											<polygon class="st2" points="101.6,573.7 61.6,588.7 83.5,547.7 91.1,555.5 											"/>
											<polygon class="st19" points="61.6,588.7 64.4,541.5 83.5,547.7 											"/>
											<polygon class="st20" points="61.8,635.1 76,622.8 101.6,573.7 88.5,620.7 82.4,639 63.1,650.2 											"/>
										</g>
									</g>
									<g class="st15">
										<g>
											<polygon class="st6" points="-109.4,656.8 -136.8,607.3 -182.7,591.4 -218.9,610 -255.1,684.1 -226,698.3 -122.7,697.4 
																							"/>
											<polygon class="st16" points="-226,698.3 -182.7,643.5 -218.9,610 -255.1,684.1 											"/>
											<polygon class="st21" points="-182.7,643.5 -154.5,617.9 -182.7,591.4 -218.9,610 											"/>
											<polygon class="st3" points="-154.5,617.9 -113.9,630.3 -136.8,607.3 -182.7,591.4 											"/>
										</g>
										<path class="st3" d="M75.9,362.7c0,0-21.2,2-36.4,7.9c0,0-17.9,20.5-31.1,25.2c0,0-11.9,8.6-27.8,17.9
											c0,0-31.8,20.5-35.8,28.5l-15.2,19.9l125.2,0.7l4-18.5l11-49.1L75.9,362.7z"/>
										<path class="st21" d="M48.7,474.6c-2,0-150.3,6.6-150.3,6.6l31.2-19.3l126.4-1L48.7,474.6z"/>
										<polygon class="st16" points="49.4,550.8 33.5,556.8 22.9,583.2 -24.8,576 -24.1,601.8 -97,640.2 -124.8,556.8 
											-101.5,480.8 49.9,473.3 										"/>
										<polygon class="st4" points="-139.3,675.9 -97,640.2 -124.8,556.8 -148.6,620.3 										"/>
										<polygon class="st2" points="85.2,375.3 83.8,365.4 75.9,362.7 54.7,462.7 84.5,482.6 										"/>
										<polygon class="st10" points="87.1,491.2 48.7,474.6 54.7,462.7 84.5,482.6 										"/>
										<path class="st2" d="M71.2,589.9c-0.7-2-21.9-39.1-21.9-39.1l-0.7-76.2L87,491.2l-0.7,72.2L71.2,589.9z"/>
										<polygon class="st22" points="54,651.4 54,693.8 -45.3,693.8 36.2,617.7 49.4,550.8 71.2,589.9 										"/>
										<path class="st2" d="M-140.7,695.8c0-2,1.3-19.9,1.3-19.9l42.4-35.8l72.8-38.4l47-18.5l10.6-26.5l15.9-6
											c0,0-11.6,65.3-10.9,66.7c0.7,1.3-83.8,76.4-83.8,76.4L-140.7,695.8z"/>
										<polygon class="st19" points="22.9,583.2 -24.8,576 -24.2,603.3 										"/>
										<g>
											<polygon class="st16" points="-113.7,701.4 -68.7,665.7 34.6,623.3 118.1,608.7 51.9,643.2 37.3,661.7 4.2,675 
												-52.8,688.2 											"/>
											<path class="st2" d="M162.1,692.1c0-5.3-18.5-39.7-18.5-39.7l-56.9-7.9L52,643.3l-14.6,18.5L162.1,692.1z"/>
											<polygon class="st17" points="162.1,692.1 144.8,697.4 -113.7,701.4 4.2,675 37.3,661.7 											"/>
											<polygon class="st6" points="115.7,608.6 143.5,652.3 51.9,643.2 											"/>
										</g>
										<polygon class="st3" points="51.9,643.2 34.6,623.3 118.1,608.7 										"/>
									</g>
								</g>
							</g>
						</g>
					</g>
					<g>
						<g>
							<g>
								<defs>
									<rect id="SVGID_15_" y="-59" width="595.3" height="595.3"/>
								</defs>
								<clipPath id="SVGID_16_">
									<use xlink:href="#SVGID_15_"  style="overflow:visible;"/>
								</clipPath>
								<g class="st23">
									<g>
										<polygon class="st16" points="532.2,582.6 496.7,554.4 415.1,520.9 349.2,509.4 401.5,536.6 413,551.2 439.1,561.7 
											484.1,572.1 										"/>
										<path class="st2" d="M314.5,575.2c0-4.2,14.6-31.4,14.6-31.4l45-6.3l27.4-1l11.5,14.6L314.5,575.2z"/>
										<polygon class="st17" points="314.5,575.2 328,579.4 532.2,582.6 439.1,561.7 413,551.2 										"/>
										<polygon class="st6" points="351.1,509.3 329.1,543.8 401.5,536.6 										"/>
									</g>
									<g>
										<g>
											<polygon class="st2" points="305.8,340.4 298.3,337.5 238,361.1 224.9,387.4 210.8,460.8 250.3,571.9 316.2,594.5 
												378.3,579.4 399,547.4 385.8,466.5 350.1,436.4 314.3,367.7 											"/>
											<polygon class="st3" points="305.8,340.4 343.5,403.4 359.5,422.2 361.3,439.2 344.4,458.9 317.1,413.8 											"/>
											<polygon class="st4" points="384.9,479.7 344.4,458.9 361.3,439.2 371.7,440.1 395.2,457.1 											"/>
											<polygon class="st3" points="399,547.4 384.9,479.7 395.2,457.1 403.7,465.5 411.2,508.8 											"/>
											<polygon class="st18" points="344.4,458.9 334.2,527.3 295.4,570.4 235.4,573.2 210.8,460.8 317.1,413.8 											"/>
										</g>
										<path class="st17" d="M367.4,583.2l-16-25l-37-15l-35,7c0,0-3-18-7-17s-17,0-17,0l-51,18l-34,55l57.9,4l80.9-4
											L367.4,583.2z"/>
										<path class="st16" d="M309.4,606.1c2.2-4.7-7.6-24.5-7.6-24.5l49.6-23.5l16,25L309.4,606.1z"/>
										<polygon class="st4" points="301.8,581.7 291.9,571.8 314.4,543.2 351.4,558.2 										"/>
										<polygon class="st3" points="291.9,571.8 268.8,558.1 279.4,550.2 314.4,543.2 										"/>
										<polygon class="st3" points="272.4,533.2 268.8,558.1 279.4,550.2 277.3,534.6 										"/>
										<polygon class="st2" points="268.8,558.1 249.1,609 301.8,581.7 291.9,571.8 										"/>
										<polygon class="st19" points="249.1,609 309.4,606.1 301.8,581.7 										"/>
										<polygon class="st20" points="189.8,608 205.8,590.1 268.8,558.1 208.6,574.1 185.1,581.7 170.5,606.1 										"/>
									</g>
								</g>
							</g>
						</g>
					</g>
					<g>
						<g>
							<g>
								<defs>
									<rect id="SVGID_17_" y="-59" width="595.3" height="595.3"/>
								</defs>
								<clipPath id="SVGID_18_">
									<use xlink:href="#SVGID_17_"  style="overflow:visible;"/>
								</clipPath>
								<g class="st24">
									<g>
										<path class="st2" d="M172.2,408.2h-12.8l-7-7l-26.7,18.6l-25.5,47l-7.5,4.1L73,508.6l-20.9,41.2l15.7,60.9
											c0,0,75.4,35.4,77.1,36s71.2-8.8,71.2-8.8l58.1-38.2L255.6,522l-5.2-56.3l-40.6-29.6l-7.5-11L172.2,408.2z"/>
										<path class="st3" d="M163.5,441.3c1.7,0,46.4-5.2,46.4-5.2l8.1,5.2l-21.5,5.8l-18,26.7l-18,42.3L163.5,441.3z"/>
										<polygon class="st3" points="199.4,422.7 175.7,426.2 156.5,430.3 186.1,430.3 207,431.4 204.1,425.3 										"/>
										<path class="st3" d="M242.1,468.5l8.4-2.9l5.2,56.3l19.4,77.7l-58.9,38.2l0.7-11.5l33.6-24.9l4.3-13.3l-13.9-41.2
											c0,0-4.1,10.7-4.1,9.3s-2.3-31.6-2.3-31.6L242.1,468.5z"/>
										<polygon class="st4" points="275.1,599.6 254.8,588 250.5,601.4 										"/>
										<polygon class="st5" points="215.9,638.1 215,625.7 250.5,601.4 275.1,599.6 										"/>
										<polygon class="st6" points="144.9,646.6 127.1,618.7 75,594.5 52.1,549.7 67.8,610.6 										"/>
										<polygon class="st7" points="127.1,618.7 215,625.7 215.9,638.1 144.9,646.6 										"/>
									</g>
									<polygon class="st8" points="218,441.3 250.5,465.6 242.1,468.5 									"/>
									<g>
										<polygon class="st2" points="208.9,568.1 190.7,545.7 115.6,549.4 98.1,568.8 72,619.6 68.4,652.9 201,654.8 214.4,616.6 
																					"/>
										<polygon class="st8" points="191.3,565.7 190.7,545.7 208.9,568.1 										"/>
										<polygon class="st3" points="158.6,616 191.3,565.7 208.9,568.1 214.4,616.6 201,654.8 170.7,654.8 168.3,632.4 
																					"/>
										<polygon class="st6" points="72,619.6 158.9,616 133.5,632.4 99.9,653.2 68.4,652.9 										"/>
										<path class="st9" d="M98.7,653.2c14.5-7.3,60-37.2,60-37.2l9.7,16.4l2.4,22.4L98.7,653.2z"/>
										<polygon class="st10" points="110.2,556.3 191.3,565.7 190.7,545.7 115.6,549.4 										"/>
										<polygon class="st9" points="168.8,634.5 187.9,639 168.3,632.4 										"/>
									</g>
								</g>
							</g>
						</g>
					</g>
					<g>
						<g>
							<g>
								<defs>
									<rect id="SVGID_19_" y="-59" width="595.3" height="595.3"/>
								</defs>
								<clipPath id="SVGID_20_">
									<use xlink:href="#SVGID_19_"  style="overflow:visible;"/>
								</clipPath>
								<g class="st25">
									<g>
										<path class="st2" d="M567.9,344.7h-14.6l-7.9-7.9L514.9,358l-29.1,53.6l-8.6,4.6l-22.5,43.1l-23.8,47l17.9,69.5
											c0,0,86.1,40.4,88.1,41.1c2,0.7,81.4-10,81.4-10l66.3-43.6l-21.2-88.8l-6-64.2L611,376.5l-8.6-12.6L567.9,344.7z"/>
										<path class="st3" d="M557.9,382.5c2,0,53-6,53-6l9.3,6l-24.5,6.6l-20.5,30.5l-20.5,48.3L557.9,382.5z"/>
										<polygon class="st3" points="599,361.3 571.8,365.3 550,369.9 583.8,369.9 607.6,371.2 604.3,364.3 										"/>
										<path class="st3" d="M647.7,413.6l9.6-3.3l6,64.2l22.2,88.8l-67.3,43.6l0.8-13.1l38.4-28.5l5-15.2l-15.9-47
											c0,0-4.6,12.2-4.6,10.6c0-1.7-2.6-36.1-2.6-36.1L647.7,413.6z"/>
										<polygon class="st4" points="685.4,563.3 662.3,550 657.3,565.3 										"/>
										<polygon class="st5" points="617.8,607.2 616.7,593.1 657.3,565.3 685.4,563.3 										"/>
										<polygon class="st6" points="536.7,616.9 516.4,585.1 456.9,557.4 430.8,506.3 448.7,575.9 										"/>
										<polygon class="st7" points="516.4,585.1 616.7,593.1 617.8,607.2 536.7,616.9 										"/>
									</g>
									<polygon class="st8" points="620.2,382.5 657.3,410.3 647.7,413.6 									"/>
									<g>
										<polygon class="st2" points="609.8,527.3 589.1,501.8 503.3,505.9 483.2,528 453.5,586.1 449.3,624.2 600.8,626.3 
											616,582.7 										"/>
										<polygon class="st8" points="589.8,524.6 589.1,501.8 609.8,527.3 										"/>
										<polygon class="st3" points="552.4,582 589.8,524.6 609.8,527.3 616,582.7 600.8,626.3 566.2,626.3 563.5,600.7 
																					"/>
										<polygon class="st6" points="453.5,586.1 552.7,582 523.7,600.7 485.3,624.5 449.3,624.2 										"/>
										<path class="st9" d="M483.9,624.5c16.6-8.3,68.5-42.5,68.5-42.5l11.1,18.7l2.8,25.6L483.9,624.5z"/>
										<polygon class="st10" points="497.1,513.9 589.8,524.6 589.1,501.8 503.3,505.9 										"/>
										<polygon class="st9" points="564,603.1 585.8,608.3 563.5,600.7 										"/>
									</g>
								</g>
							</g>
						</g>
					</g>
					<g>
						<g>
							<g>
								<defs>
									<rect id="SVGID_21_" y="-59" width="595.3" height="595.3"/>
								</defs>
								<clipPath id="SVGID_22_">
									<use xlink:href="#SVGID_21_"  style="overflow:visible;"/>
								</clipPath>
								<g class="st26">
									<polygon class="st17" points="613.4,401.7 504,409.7 406.9,387.9 364.8,356.3 329,297.7 326.8,285.2 592.7,339.9 
										627.6,344.1 634.4,386.7 									"/>
									<path class="st16" d="M623.5,355c-3.6-0.8-59.6,6.4-59.6,6.4l-72.5-6.6c0,0-85.3-17.7-88.1-19.4
										c-2.7-1.7-76.6-50.1-76.6-50.1l26.4-9.8l97.6,10.2l152.2,44.1l24.6,14.4L623.5,355z"/>
									<polygon class="st3" points="326.8,285.2 443.2,296.6 450.9,285.7 353.3,275.5 									"/>
									<polygon class="st4" points="443.2,296.6 561.3,361.5 623.5,355 627.6,344.1 603.1,329.8 450.9,285.7 									"/>
									<polygon class="st27" points="504,409.7 487.9,354 563.9,361.4 623.5,355 627.6,344.1 634.4,386.7 613.4,401.7 									
										"/>
									<polygon class="st28" points="406.5,387.9 403.4,335.4 326.8,285.2 327.1,294.1 362.2,356.3 									"/>
									<g>
										<polygon class="st28" points="428.6,397.9 402.6,365.7 383.7,359.2 366,365.1 351.2,376.3 354.9,379.8 359,396.6 
											379.6,399.5 409.3,408.3 										"/>
										<polygon class="st3" points="393.8,377.4 354.9,379.8 351.2,376.3 366,365.1 373.3,362.7 404.9,368.3 										"/>
										<polygon class="st29" points="359,396.6 353.6,394.1 351.2,376.3 354.9,379.8 										"/>
										<polygon class="st27" points="393.8,377.4 409.3,408.3 428.6,397.9 404.9,368.3 										"/>
									</g>
								</g>
							</g>
						</g>
					</g>
					<g>
						<g>
							<g>
								<defs>
									<rect id="SVGID_23_" y="-59" width="595.3" height="595.3"/>
								</defs>
								<clipPath id="SVGID_24_">
									<use xlink:href="#SVGID_23_"  style="overflow:visible;"/>
								</clipPath>
								<path class="st30" d="M377,292l111.4,20.6c0,0,8.6,8.4-12.4,10.4l-53-4l-41-11l-24.4-8.3L377,292z"/>
							</g>
						</g>
					</g>
					<g>
						<g>
							<g>
								<defs>
									<rect id="SVGID_25_" y="-59" width="595.3" height="595.3"/>
								</defs>
								<clipPath id="SVGID_26_">
									<use xlink:href="#SVGID_25_"  style="overflow:visible;"/>
								</clipPath>
								<g class="st31">
									<g>
										<path class="st27" d="M702.7,371.5h-7.8l-4.2-4.2l-16.2,11.3L659,407.2l-4.6,2.5l-12,22.9l-12.7,25l9.5,37
											c0,0,45.9,21.5,46.9,21.9c1.1,0.4,43.3-5.3,43.3-5.3l35.3-23.2l-11.3-47.3l-3.2-34.2l-24.7-18l-4.6-6.7L702.7,371.5z"/>
										<path class="st3" d="M697.4,391.6c1.1,0,28.2-3.2,28.2-3.2l4.9,3.2l-13,3.5l-10.9,16.2L695.7,437L697.4,391.6z"/>
										<polygon class="st3" points="719.3,380.3 704.8,382.4 693.2,384.9 711.2,384.9 723.8,385.6 722.1,381.9 										"/>
										<path class="st16" d="M745.2,408.2l5.1-1.8l3.2,34.2l11.8,47.3l-35.9,23.2l0.4-7l20.5-15.2l2.6-8.1l-8.5-25
											c0,0-2.5,6.5-2.5,5.6s-1.4-19.2-1.4-19.2L745.2,408.2z"/>
										<polygon class="st4" points="765.3,487.9 753,480.8 750.3,489 										"/>
										<polygon class="st17" points="729.3,511.3 728.7,503.8 750.3,489 765.3,487.9 										"/>
										<polygon class="st17" points="686.1,516.5 675.3,499.5 643.6,484.8 629.7,457.6 639.2,494.6 										"/>
										<polygon class="st32" points="675.3,499.5 728.7,503.8 729.3,511.3 686.1,516.5 										"/>
									</g>
									<g>
										<path class="st27" d="M539.2,515.5c3.1,0,129,3,129,3l-45.7-39.6L478.2,418l-4.1,17.3L539.2,515.5z"/>
										<polygon class="st17" points="690.5,465.7 707.8,519.6 668.2,518.6 622.5,478.9 										"/>
										<polygon class="st17" points="711.8,442.4 717.9,486.1 707.8,519.6 690.5,465.7 										"/>
										<polygon class="st3" points="478.2,418 622.5,478.9 687.5,470.8 711.8,442.4 685.8,419.9 657,401.7 628.6,377.4 
											606.2,375.3 492.4,407.8 										"/>
										<polygon class="st27" points="645.1,391 581.3,401.7 652.5,401.7 657,401.7 										"/>
										<polygon class="st16" points="628.6,377.4 590.4,389.7 581.3,401.7 645.1,391 										"/>
									</g>
								</g>
							</g>
						</g>
					</g>
					<g>
						<g>
							<g>
								<defs>
									<rect id="SVGID_27_" y="-59" width="595.3" height="595.3"/>
								</defs>
								<clipPath id="SVGID_28_">
									<use xlink:href="#SVGID_27_"  style="overflow:visible;"/>
								</clipPath>
								<g class="st33">
									<polygon class="st3" points="583.2,481.9 555,409.4 557.7,430.9 									"/>
									<g>
										<polygon class="st27" points="350.9,527.6 446.2,541 504,535.7 568.4,533 583.2,481.9 557.7,430.9 514.7,464.5 
											448.9,483.3 354.9,449.7 274.3,408.1 279.7,437.6 										"/>
										<path class="st16" d="M274.3,408.1c10.7,2.7,94,48.4,94,48.4l80.6,26.9l65.8-18.8l43-33.6l-2.7-21.5l-84.6-44.3L341.5,384
											L274.3,408.1z"/>
										<polygon class="st17" points="448.9,483.3 446.2,541 568.4,533 514.7,464.5 										"/>
										<polygon class="st4" points="568.4,533 514.7,464.5 557.7,430.9 583.2,481.9 										"/>
									</g>
									<g>
										<polygon class="st16" points="511.6,553.5 475.2,524.6 391.6,490.3 324.1,478.5 377.6,506.4 389.4,521.4 416.2,532.1 
											462.3,542.8 										"/>
										<path class="st2" d="M288.5,545.9c0-4.3,15-32.2,15-32.2l46.1-6.4l28.1-1l11.8,15L288.5,545.9z"/>
										<polygon class="st17" points="288.5,545.9 302.4,550.2 511.6,553.5 416.2,532.1 389.4,521.4 										"/>
										<polygon class="st6" points="326,478.4 303.5,513.8 377.6,506.4 										"/>
									</g>
								</g>
							</g>
						</g>
					</g>
					<g>
						<g>
							<g>
								<defs>
									<rect id="SVGID_29_" y="-59" width="595.3" height="595.3"/>
								</defs>
								<clipPath id="SVGID_30_">
									<use xlink:href="#SVGID_29_"  style="overflow:visible;"/>
								</clipPath>
								<g class="st34">
									<g>
										<g>
											<path class="st35" d="M426.3,71c-3.3-0.1-6.1,2.4-6.3,5.8l-0.4,10.5c-0.1,3.3,2.4,6.1,5.8,6.3l47.4,2
												c3.3,0.1,6.1-2.4,6.3-5.8l0.4-10.5c0.1-3.3-2.4-6.1-5.8-6.3L426.3,71z"/>
											<path class="st36" d="M424.8,72.4l-0.4,10.5c-0.1,3.3,2.4,6.1,5.8,6.3l47.4,2c0.5,0,0.9,0,1.4-0.1
												c-0.7,2.7-3.2,4.6-6.1,4.4l-47.4-2c-3.3-0.1-5.9-3-5.8-6.3l0.4-10.5c0.1-2.9,2.2-5.2,4.9-5.7
												C424.9,71.5,424.8,71.9,424.8,72.4z"/>
										</g>
										<g>
											<path class="st35" d="M466,85.1c0.3,6,5.1,10.6,10.6,10.3c5.5-0.3,9.8-5.5,9.5-11.5s-5.1-10.6-10.6-10.3
												C469.9,73.9,465.7,79.1,466,85.1z"/>
											<path class="st37" d="M476.5,93.4c-4.5,0.3-8.4-3.5-8.7-8.4c-0.3-4.9,3.2-9.1,7.7-9.4l0,0c2.2-0.1,4.3,0.7,5.9,2.3
												c1.6,1.6,2.6,3.8,2.7,6.2C484.5,88.9,481,93.1,476.5,93.4L476.5,93.4z M468.6,84.9c0.2,4.4,3.7,7.8,7.8,7.6l0.1,0.4v-0.4
												c4.1-0.3,7.2-4.1,6.9-8.5c-0.1-2.1-1-4.1-2.5-5.6c-1.5-1.4-3.4-2.2-5.4-2C471.5,76.7,468.4,80.5,468.6,84.9z"/>
											<path class="st37" d="M476.3,89.5c-2.6,0.2-4.7-2-4.9-4.7c-0.1-2.8,1.8-5.1,4.4-5.3c2.5-0.2,4.7,2,4.9,4.7
												C480.8,87,478.8,89.3,476.3,89.5L476.3,89.5z M472.2,84.7c0.1,2.3,1.9,4,4,3.9V89v-0.4c2.1-0.1,3.7-2.1,3.6-4.4
												s-1.9-4-4-3.9C473.7,80.5,472.1,82.4,472.2,84.7z"/>
										</g>
									</g>
									<g>
										<g>
											<g>
												<path class="st38" d="M447.7,91.3c0.5-1.4,0.9-2.9,1.4-4.4c0.7-2.7-2.3-4.2-4.5-4.2s-5.1,1.4-4.6,4
													c0.3,1.5,0.7,3.1,1,4.6c0.5,2.1-2.8,3-3.2,0.9c-0.3-1.5-0.7-3-1-4.5c-0.6-2.7,0.5-5.2,2.8-6.8c4.8-3.4,14.3-0.5,13,6.4
													c-0.3,1.7-1,3.3-1.5,4.9C450.3,94.3,447,93.4,447.7,91.3L447.7,91.3z"/>
											</g>
										</g>
										<g>
											<path class="st39" d="M412.2,109.2v70.6c0,1,0.2,1.9,0.6,2.8c1.1,2.3,3.4,4,6.1,4h51.3c2.7,0,5.1-1.6,6.1-4
												c0.4-0.8,0.6-1.8,0.6-2.8v-70.6c0-11.5-9.3-20.9-20.9-20.9h-23.1C421.5,88.4,412.2,97.7,412.2,109.2z"/>
										</g>
										<g>
											<path class="st40" d="M415.7,184.2H467c2.7,0,5.1-1.6,6.1-4c0.4-0.8,0.6-1.8,0.6-2.8v-70.6c0-6.4-2.9-12.1-7.3-15.9
												c6.3,3.6,10.6,10.4,10.6,18.2v70.6c0,1-0.2,1.9-0.6,2.8c-1.1,2.3-3.4,4-6.1,4H419c-2.2,0-4.1-1-5.3-2.6
												C414.3,184.1,415,184.2,415.7,184.2z"/>
										</g>
										<g>
											<g>
												<path class="st41" d="M474.6,110.2C474.5,110.2,474.5,110.2,474.6,110.2L474.6,110.2c0-0.3,0-0.5-0.1-0.7
													C474.5,109.7,474.6,110,474.6,110.2z"/>
											</g>
											<g>
												<path class="st38" d="M413.6,109.3v0.9c0,0,0,0.1,0.1,0.1l0,0c0-11,9-19.9,20-19.9h21.9c7.9,0,14.7,4.6,18,11.2
													c0.5,1.1,0.9,2.2,1.3,3.3c0.3,1.2,0.6,2.4,0.7,3.7c-0.1-1.5-0.3-2.9-0.6-4.2c-0.3-1.1-0.6-2.1-1.1-3.1
													c-3.1-7-10.1-11.9-18.3-11.9h-21.9C422.6,89.3,413.6,98.2,413.6,109.3z"/>
											</g>
										</g>
										<g class="st42">
											<g>
												<path class="st43" d="M465.2,150.2v41.4h2c4.5,0,8.7-1.6,11.9-4.4c3.9-3.4,6.4-8.4,6.4-14v-20.5c0-1.4-1.1-2.5-2.5-2.5
													L465.2,150.2L465.2,150.2z"/>
											</g>
											<g>
												<path class="st43" d="M402.4,152.7v20.5c0,5.6,2.5,10.6,6.5,14l0,0c3.2,2.7,7.3,4.4,11.9,4.4h2v-41.4H405
													C403.5,150.2,402.4,151.3,402.4,152.7z"/>
											</g>
										</g>
										<g>
											<path class="st39" d="M408.2,130.2v56.5c0,0.7,0.2,1.4,0.7,2l0,0c1.2,1.7,3.8,2.9,6.8,2.9h56.7c3,0,5.6-1.2,6.8-2.9
												c0.4-0.6,0.7-1.3,0.7-2v-56.5c0-8.3-10.3-15.1-23-15.1h-25.5C418.5,115.1,408.2,121.8,408.2,130.2z"/>
										</g>
										<g>
											<path class="st40" d="M412.7,188.3h56.7c3,0,5.6-1.2,6.8-2.9c0.4-0.6,0.7-1.3,0.7-2v-56.5c0-2.1-0.7-4.1-1.9-5.9
												c3,2.5,4.8,5.7,4.8,9.2v56.5c0,0.7-0.2,1.4-0.7,2c-1.2,1.7-3.8,2.9-6.8,2.9h-56.7c-3,0-5.6-1.2-6.8-2.9l0,0
												c-0.3-0.4-0.5-0.9-0.6-1.4C409.5,187.9,411,188.3,412.7,188.3z"/>
										</g>
										<g>
											<g>
												<path class="st40" d="M402.4,153.7V173c0,5.6,2.5,10.6,6.5,14l0,0c1.2,2.6,3.8,4.4,6.8,4.4h56.7c3,0,5.6-1.8,6.8-4.4
													c3.9-3.4,6.4-8.4,6.4-14v-1.6c-1.8,1.2-3.8,2.2-5.8,3.2c-4.5,2.1-9.4,3.8-14.5,4.8c-4,0.8-8.2,1.2-12.5,1.2
													c-11,0-21.4-2.8-30.1-7.5c-5.6-3-10.5-6.9-14.5-11.4C405.9,159.2,404,156.5,402.4,153.7z"/>
											</g>
										</g>
									</g>
									<g>
										<g>
											<path class="st44" d="M480.2,85.5c0-0.2,0-0.3,0-0.5c0-0.1,0-0.3,0-0.4V56.5c-3.6-0.3-6-2-6-9.2c0-5.1,5-9.3,11.1-9.3
												c5.6,0,10.2,3.4,11,7.9c0.1,0.2,0.1,0.5,0.1,0.8v0.5l0,0l0,0v37.4c0,0.1,0,0.3,0,0.4c0,0.2,0,0.3,0,0.5
												c0,4.1-3.6,7.4-8.1,7.4C483.8,92.9,480.2,89.6,480.2,85.5z"/>
											<path class="st45" d="M480.8,88.4c1.4,1.2,3.3,1.9,5.4,1.9c4.4,0,8.1-3.3,8.1-7.4c0-0.2,0-0.3,0-0.5c0-0.1,0-0.3,0-0.4
												V44.6l0,0l0,0v-0.5c0-0.3,0-0.5-0.1-0.8c-0.1-0.8-0.4-1.6-0.8-2.3c1.5,1.3,2.5,3,2.8,4.9c0.1,0.2,0.1,0.5,0.1,0.8v0.5
												l0,0l0,0v37.4c0,0.1,0,0.3,0,0.4c0,0.2,0,0.3,0,0.5c0,4.1-3.6,7.4-8.1,7.4C484.9,92.9,482,91,480.8,88.4z"/>
										</g>
										<path class="st46" d="M440.8,124.2c-2.6-1.8-4.4-4.8-4.4-8.3c0-5.5,4.5-10,10-10c0.5,0,0.9,0,1.4,0.1l31.9-27.1l13.5,12.5
											L455,123.9C452,126.4,444.5,127.5,440.8,124.2z"/>
										<path class="st45" d="M440.8,124.2c-2.6-1.8-4.4-4.8-4.4-8.3c0-0.9,0.1-1.7,0.3-2.5c0.6,2.4,2.1,4.4,4,5.7
											c3.7,3.4,11.1,2.2,14.2-0.3l35.4-30l2.9,2.7L455,123.9C452,126.4,444.5,127.5,440.8,124.2z"/>
									</g>
									<g>
										<g>
											<path class="st44" d="M393.5,88.8c0-0.2,0-0.3-0.1-0.5c0-0.1,0-0.3,0-0.4l-1.9-28.1c3.6-0.6,5.9-2.4,5.4-9.6
												c-0.3-5.1-5.6-8.9-11.7-8.5c-5.6,0.4-9.9,4.1-10.4,8.6c-0.1,0.3-0.1,0.5-0.1,0.8v0.5l0,0l0,0l2.5,37.3
												c0,0.1,0,0.3,0.1,0.4c0,0.2,0,0.3,0,0.5c0.3,4.1,4.1,7.1,8.5,6.8C390.3,96.4,393.7,92.8,393.5,88.8z"/>
											<path class="st45" d="M393,91.6c-1.3,1.3-3.2,2.1-5.3,2.3c-4.4,0.3-8.3-2.8-8.5-6.8c0-0.2,0-0.3,0-0.5
												c0-0.1,0-0.2-0.1-0.4l-2.5-37.3l0,0l0,0v-0.6c0-0.3,0-0.5,0.1-0.8c0.1-0.8,0.3-1.6,0.6-2.4c-1.4,1.4-2.3,3.2-2.5,5.1
												c-0.1,0.3-0.1,0.5-0.1,0.8v0.5l0,0l0,0l2.5,37.3c0,0.1,0,0.3,0.1,0.4c0,0.2,0,0.3,0,0.5c0.3,4.1,4.1,7.1,8.5,6.8
												C389.3,96.4,392,94.4,393,91.6z"/>
										</g>
										<path class="st44" d="M435.3,124.7c2.5-2,4-5.1,3.8-8.5c-0.4-5.5-5.1-9.7-10.6-9.3c-0.5,0-0.9,0.1-1.4,0.2l-33.6-24.9
											l-12.7,13.4l40.4,29.8C424.4,127.6,431.9,128.3,435.3,124.7z"/>
										<path class="st45" d="M435.3,124.7c2.5-2,4-5.1,3.8-8.5c-0.1-0.9-0.2-1.7-0.5-2.5c-0.5,2.4-1.8,4.5-3.6,6
											c-3.4,3.6-11,2.9-14.1,0.7l-37.4-27.6l-2.7,2.8l40.4,29.8C424.4,127.6,431.9,128.3,435.3,124.7z"/>
									</g>
									<g>
										<path class="st47" d="M379.9,230.6c-0.6,4-4.4,6.7-8.4,6c-4-0.6-6.7-4.4-6-8.4c0.6-4,4.4-6.7,8.4-6
											C377.9,222.9,380.6,226.6,379.9,230.6z"/>
										<polygon class="st47" points="374,293.5 385.7,290.4 379.9,230.6 365.7,231.2 										"/>
									</g>
									<g>
										<path class="st47" d="M368.9,222.7c3.1-2.5,7.7-2,10.3,1.1c2.5,3.1,2,7.7-1.1,10.3c-3.1,2.5-7.7,2-10.3-1.1
											C365.2,229.8,365.7,225.2,368.9,222.7z"/>
										<polygon class="st47" points="434.4,191.6 412.1,181.6 368.9,222.7 379.9,231.8 										"/>
									</g>
									<path class="st48" d="M446.1,199.2c0,0-38.2,3.8-32.7-23.3l38.1,2.6C451.4,178.5,451.7,194.1,446.1,199.2z"/>
									<g>
										<path class="st48" d="M460,249.2c0.6,4-2.2,7.7-6.2,8.3s-7.7-2.2-8.3-6.1c-0.6-4,2.2-7.7,6.1-8.3
											C455.7,242.4,459.4,245.2,460,249.2z"/>
										<polygon class="st48" points="474.4,310.9 486.3,303.1 460,249.2 446.6,254 										"/>
									</g>
									<g>
										<path class="st48" d="M445.1,252.5c-1-3.9,1.4-7.9,5.3-8.8c3.9-1,7.9,1.4,8.8,5.3c1,3.9-1.4,7.9-5.3,8.8
											C450,258.8,446,256.4,445.1,252.5z"/>
										<polygon class="st48" points="444.4,179.9 426,196 445.1,252.5 458,246.3 										"/>
									</g>
									<path class="st49" d="M412.7,177.3l39.1,1.5l2.3-68.4c0,0-0.9-11.1-15-10.1l-13.4,3.5c0,0-9.7-0.3-11.1,12.4L412.7,177.3z"
										/>
									<path class="st45" d="M454,110.4c0,0-0.6-7.5-8.6-9.6c3.5,3,3.9,7.2,3.9,7.2l-2.3,68.4l-34.2-1.3l-0.1,2.2l39.1,1.5
										L454,110.4z"/>
									<path class="st50" d="M441.3,100.6l-1.1,8.9c0,0-13.7,3.8-17-3l2.7-13.7C425.9,92.8,434.6,102.4,441.3,100.6z"/>
									<path class="st51" d="M464.5,199.3c0,0-27.2,1.9-24.9-43l2.7-53c0,0,3.5-5.2,9.8-1.7L476.6,80l0.9-18.4l21,2.2l-2,27.6
										l-36.7,29C459.8,120.4,454.2,189,464.5,199.3z"/>
									<path class="st51" d="M372.6,66.6l20.8-2.7l0.2,18.3l25.1,17.2l-3.8,73.6c0,0-0.2,24.9-24.4,21.5c0,0,8-7.7,9.9-24.4
										l2.7-53l-28.7-22.6L372.6,66.6z"/>
									<g>
										<path class="st44" d="M453.6,92.1c1.5-2.6,0.6-6-2-7.5l1.7-2.9c0.1-0.1,0.1-0.2,0.1-0.3c0.1-0.2,0.3-0.4,0.4-0.6
											c3.1-5.4-0.4-13.3-7.9-17.7c-7.5-4.3-16.1-3.4-19.2,2c-0.1,0.2-0.2,0.4-0.3,0.6c-0.1,0.1-0.1,0.2-0.2,0.3l-10.6,18.3
											c-0.2,0.3-0.3,0.7-0.3,1c-2.4,5.4,1,12.7,8.1,16.8c7,4.1,15.1,3.4,18.6-1.4c0.3-0.2,0.6-0.5,0.7-0.8l3.4-5.9
											C448.7,95.6,452.1,94.7,453.6,92.1z"/>
										<path class="st45" d="M451.6,84.6l1.7-2.9c0.1-0.1,0.1-0.2,0.1-0.3c0.1-0.2,0.3-0.4,0.4-0.6c1.9-3.3,1.3-7.5-1.1-11.3
											c1.6,3.3,1.7,6.8,0.1,9.6c-0.1,0.2-0.2,0.4-0.4,0.6c0,0.1-0.1,0.2-0.1,0.3l-2.2,4.3c2.6,1.5,4.1,3.5,2.6,6.1
											s-4.9,3.5-7.5,2l-3.4,5.9c-0.2,0.3-0.4,0.6-0.7,0.8c-3.4,4.8-11.5,5.5-18.6,1.4c-2.9-1.7-5.1-3.8-6.7-6.2
											c1.4,3,4.1,5.9,7.6,7.9c7,4.1,15.1,3.4,18.6-1.4c0.3-0.2,0.6-0.5,0.7-0.8l3.4-5.9c2.6,1.5,6,0.6,7.5-2
											S454.2,86.1,451.6,84.6z"/>
										<path class="st52" d="M434.6,103c-4,7-12.6,9.5-19.2,5.8c-6.6-3.8-8.6-12.5-4.6-19.5s5.7-14,19.1-5.8
											C441.1,90.4,438.6,96.1,434.6,103z"/>
										<g>
											<path class="st53" d="M422.2,85.4c0,0,7.2,3.7,11,4.5c0,0,2.5,0.9,1.6,3.1c0,0-1.4,3.3-7.5,3.5c0,0-4.2,0.1-7.2-5
												c0,0-1.8-4.1-0.1-6.1C420,85.4,420.4,84.2,422.2,85.4z"/>
											<path class="st54" d="M420.4,86.1c-0.2,0.6,0.1,1.3,0.7,1.6l10.4,4.1c0.6,0.2,1.3-0.1,1.6-0.7l0,0
												c0.2-0.6-0.1-1.3-0.7-1.6L422,85.4C421.4,85.1,420.7,85.4,420.4,86.1L420.4,86.1z"/>
											<path class="st55" d="M420.8,92.6c1.3-0.7,3.4-0.8,5.5-0.3c2.5,0.6,4.5,1.9,5.1,3.3c-1.1,0.4-2.5,0.8-4.3,0.8
												C427.3,96.4,423.7,96.5,420.8,92.6z"/>
										</g>
										<path class="st56" d="M435.5,79.9c-0.3-0.3-0.3-0.9,0-1.2c0.9-0.9,3.4-2.1,5.8,0.2c0.3,0.3,1.7,1.6,1.2,4
											c-0.1,0.5-0.6,0.7-1,0.6c-0.5-0.1-0.7-0.6-0.6-1c0.3-1.5-0.5-2.2-0.6-2.3l-0.1-0.1c-1.7-1.7-3.2-0.5-3.4-0.2
											C436.4,80.3,435.8,80.2,435.5,79.9L435.5,79.9z"/>
										<path class="st56" d="M422.9,73.9c-0.4-0.3-0.4-0.8-0.1-1.2c0.8-1.1,3-2.6,5.7-0.7c0.3,0.2,1.9,1.3,1.7,3.8
											c0,0.5-0.4,0.8-0.9,0.8s-0.8-0.4-0.8-0.9c0.1-1.5-0.8-2.1-0.9-2.2h-0.1c-2-1.4-3.2,0-3.4,0.3
											C423.9,74.1,423.3,74.2,422.9,73.9L422.9,73.9z"/>
									</g>
									<g>
										<path class="st52" d="M445.9,63.3c-1.2,3.9-6.8,5.6-12.5,3.9c-5.8-1.7-9.5-6.2-8.3-10.1s6.8-5.6,12.5-3.9
											C443.4,54.9,447.1,59.4,445.9,63.3z"/>
										<path class="st52" d="M445.1,54.2c-1.2,3.9-5.8,5.9-10.3,4.5s-7.3-5.6-6.2-9.4c1.2-3.9,5.8-5.9,10.3-4.5
											C443.5,46.1,446.2,50.4,445.1,54.2z"/>
										<path class="st52" d="M459.3,77c-0.7,2.5-3.7,3.8-6.7,2.9s-4.7-3.6-4-6.1s3.8-3.8,6.7-2.9C458.2,71.7,460,74.5,459.3,77z"
											/>
										<path class="st52" d="M462.8,73.5c-0.7,2.5-3.7,3.8-6.7,2.9s-4.7-3.6-4-6.1s3.8-3.8,6.7-2.9
											C461.7,68.2,463.5,71,462.8,73.5z"/>
										<path class="st52" d="M462.3,66.6c-0.8,2.5-3.8,3.8-6.7,2.8c-2.9-0.9-4.7-3.7-3.9-6.2c0.8-2.5,3.8-3.8,6.7-2.8
											C461.4,61.3,463.1,64.1,462.3,66.6z"/>
										<path class="st52" d="M457.6,70.3c-1.2,3.9-6.8,5.6-12.5,3.9c-5.8-1.7-9.5-6.2-8.3-10.1s6.8-5.6,12.5-3.9
											C455,61.9,458.8,66.4,457.6,70.3z"/>
										<path class="st52" d="M459.4,67c-0.5,2.3-2.9,3.7-5.5,3.1c-2.5-0.6-4.2-2.8-3.7-5.1c0.5-2.3,2.9-3.7,5.5-3.1
											C458.2,62.5,459.9,64.8,459.4,67z"/>
										<path class="st52" d="M454.7,53.8c-0.7,3.1-4.1,5.1-7.6,4.3s-5.8-3.9-5.1-7.1c0.7-3.1,4.1-5.1,7.6-4.3
											S455.4,50.6,454.7,53.8z"/>
										<path class="st52" d="M462.7,59.8c-0.7,3.1-4.1,5.1-7.6,4.3c-3.5-0.8-5.8-3.9-5.1-7.1c0.7-3.1,4.1-5.1,7.6-4.3
											S463.4,56.6,462.7,59.8z"/>
										<path class="st52" d="M456.2,62.5c-1.4,2.7-6.8,2.8-12,0.2c-5.2-2.7-8.3-7-6.8-9.8c1.4-2.7,6.8-2.8,12-0.1
											C454.5,55.3,457.6,59.7,456.2,62.5z"/>
									</g>
									<g>
										<path class="st35" d="M357.6,299.7c0-0.4-0.1-0.8-0.1-1.2c-0.4-7.2,11.3-10.9,15.9-11.2v-5.5l8.6,2.4
											c4.7-0.2,8.7,5.4,9.1,12.6c0,0.3,0,0.7,0,1L357.6,299.7z"/>
										<polygon class="st35" points="385.2,268 368.6,269.4 373.4,290.1 390.4,293 										"/>
									</g>
									<g>
										<path class="st35" d="M455.2,318.5c-0.1-0.4-0.2-0.8-0.2-1.1c-1.2-7.1,9.9-12.2,14.5-13l-0.7-5.5l8.9,1.3
											c4.6-0.8,9.3,4.3,10.6,11.5c0.1,0.3,0.1,0.6,0.1,1L455.2,318.5z"/>
										<polygon class="st35" points="478.8,283.7 462.5,287 469.8,307.1 487,307.9 										"/>
									</g>
									<path class="st52" d="M450,76.9c0,0-6.5,20-13.5,17.5l-4,9c0,0,6.5,2,14-13c0,0,1.7-7.2,5.1-5.8l4.5-8.2L450,76.9z"/>
								</g>
							</g>
						</g>
					</g>
					<g>
						<g>
							<g>
								<defs>
									<rect id="SVGID_31_" y="-59" width="595.3" height="595.3"/>
								</defs>
								<clipPath id="SVGID_32_">
									<use xlink:href="#SVGID_31_"  style="overflow:visible;"/>
								</clipPath>
								<path class="st57" d="M332.6,140.1l20.7,135.3l-2.3,2.1l-23-137c0,0-1.5-5.5,1.5-7C329.5,133.5,331,132,332.6,140.1z"/>
							</g>
						</g>
					</g>
					<g>
						<g>
							<g>
								<defs>
									<rect id="SVGID_33_" y="-59" width="595.3" height="595.3"/>
								</defs>
								<clipPath id="SVGID_34_">
									<use xlink:href="#SVGID_33_"  style="overflow:visible;"/>
								</clipPath>
								<g class="st58">
									<g>
										<g>
											<g>
												<path class="st59" d="M251,189.6c0,0,16.2-5.1,33.6,0.7c0,0,14.6,4.1,14.8-6.2c0.1-10.3-7.1-39.8-7.1-39.8
													s-2.3,13.8-18.5,7.3c0,0-16.2-6.5-29.1,4.6c0,0,14.4,2.2,17.6,12.8C262.2,169,265.4,179.6,251,189.6z"/>
											</g>
										</g>
									</g>
									<g>
										<g>
											<g>
												<path class="st47" d="M329.1,133.7c0,0-11.2,3.9-19.4-1c0,0-11.7-1.2-17,3.9c-5.2,5.1,6.7,47.6,6.7,47.6
													s6.8-13.7,18.3-9.2c0,0,12.8,5,18-0.1L329.1,133.7z"/>
											</g>
										</g>
									</g>
								</g>
							</g>
						</g>
					</g>
				</g>
			</g>
		</g>
	</g>
</g>
</svg>
