<?xml version="1.0" encoding="utf-8"?>
<!-- Generator: Adobe Illustrator 25.2.3, SVG Export Plug-In . SVG Version: 6.00 Build 0)  -->
<svg version="1.1" id="Laag_1" xmlns="http://www.w3.org/2000/svg" xmlns:xlink="http://www.w3.org/1999/xlink" x="0px" y="0px"
	 viewBox="0 0 360.6 358.7" style="enable-background:new 0 0 360.6 358.7;" xml:space="preserve">
<style type="text/css">
	.Slagschaduw{fill:none;}
	.Afgeronde_x0020_hoeken_x0020_2_x0020_pt{fill:#FFFFFF;stroke:#000000;stroke-miterlimit:10;}
	.X_x0020_actief_x0020_weerspiegelen{fill:none;}
	.Zachte_x0020_schuine_x0020_kant{fill:url(#SVGID_1_);}
	.Schemering{fill:#FFFFFF;}
	.Gebladerte_AS{fill:#FFDD00;}
	.Pompadoer_AS{fill-rule:evenodd;clip-rule:evenodd;fill:#51AEE2;}
	.st0{clip-path:url(#SVGID_3_);}
	.st1{clip-path:url(#SVGID_5_);fill:url(#SVGID_6_);}
	.st2{clip-path:url(#SVGID_8_);fill:url(#SVGID_9_);}
	.st3{clip-path:url(#SVGID_11_);fill:url(#SVGID_12_);}
	.st4{clip-path:url(#SVGID_14_);fill:url(#SVGID_15_);}
	.st5{clip-path:url(#SVGID_17_);fill:url(#SVGID_18_);}
	.st6{clip-path:url(#SVGID_20_);fill:url(#SVGID_21_);}
	.st7{clip-path:url(#SVGID_23_);fill:url(#SVGID_24_);}
	.st8{clip-path:url(#SVGID_26_);fill:url(#SVGID_27_);}
	.st9{clip-path:url(#SVGID_29_);fill:url(#SVGID_30_);}
	.st10{clip-path:url(#SVGID_32_);}
	.st11{clip-path:url(#SVGID_36_);}
	.st12{clip-path:url(#SVGID_40_);}
	.st13{clip-path:url(#SVGID_44_);}
	.st14{clip-path:url(#SVGID_48_);}
	.st15{clip-path:url(#SVGID_52_);}
	.st16{clip-path:url(#SVGID_3_);fill:none;stroke:#264C22;stroke-width:1.001;stroke-linecap:round;stroke-miterlimit:10;}
	.st17{clip-path:url(#SVGID_56_);fill:url(#SVGID_57_);}
	.st18{clip-path:url(#SVGID_59_);fill:url(#SVGID_60_);}
	.st19{clip-path:url(#SVGID_62_);fill:url(#SVGID_63_);}
	.st20{clip-path:url(#SVGID_3_);fill:#4A494A;}
	.st21{clip-path:url(#SVGID_65_);fill:url(#SVGID_66_);}
	.st22{clip-path:url(#SVGID_68_);fill:url(#SVGID_69_);}
	.st23{clip-path:url(#SVGID_71_);fill:url(#SVGID_72_);}
	.st24{clip-path:url(#SVGID_74_);fill:url(#SVGID_75_);}
	.st25{clip-path:url(#SVGID_77_);fill:url(#SVGID_78_);}
	.st26{clip-path:url(#SVGID_3_);fill:#E52421;}
	.st27{clip-path:url(#SVGID_3_);fill:#030304;}
	.st28{clip-path:url(#SVGID_3_);fill:none;stroke:#FDFDFD;stroke-width:1.701;stroke-miterlimit:10;}
	.st29{clip-path:url(#SVGID_80_);fill:url(#SVGID_81_);}
	.st30{clip-path:url(#SVGID_3_);fill:none;stroke:#FDFDFD;stroke-miterlimit:10;}
	.st31{clip-path:url(#SVGID_83_);fill:url(#SVGID_84_);}
	.st32{clip-path:url(#SVGID_86_);fill:url(#SVGID_87_);}
	.st33{clip-path:url(#SVGID_89_);fill:url(#SVGID_90_);}
	.st34{clip-path:url(#SVGID_92_);fill:url(#SVGID_93_);}
	.st35{clip-path:url(#SVGID_95_);fill:url(#SVGID_96_);}
	.st36{clip-path:url(#SVGID_98_);fill:url(#SVGID_99_);}
	.st37{clip-path:url(#SVGID_3_);fill:#A1663F;}
	.st38{clip-path:url(#SVGID_101_);fill:url(#SVGID_102_);}
	.st39{clip-path:url(#SVGID_104_);fill:url(#SVGID_105_);}
	.st40{clip-path:url(#SVGID_3_);fill:#C2C1C1;}
	.st41{clip-path:url(#SVGID_107_);fill:url(#SVGID_108_);}
	.st42{clip-path:url(#SVGID_3_);fill:#FFFFFF;}
	.st43{clip-path:url(#SVGID_110_);fill:url(#SVGID_111_);}
	.st44{clip-path:url(#SVGID_113_);fill:url(#SVGID_114_);}
	.st45{clip-path:url(#SVGID_116_);fill:url(#SVGID_117_);}
	.st46{clip-path:url(#SVGID_119_);fill:url(#SVGID_120_);}
	.st47{clip-path:url(#SVGID_122_);fill:url(#SVGID_123_);}
	.st48{clip-path:url(#SVGID_125_);fill:url(#SVGID_126_);}
	.st49{clip-path:url(#SVGID_128_);fill:url(#SVGID_129_);}
	.st50{clip-path:url(#SVGID_131_);fill:url(#SVGID_132_);}
	.st51{clip-path:url(#SVGID_134_);fill:url(#SVGID_135_);}
</style>
<linearGradient id="SVGID_1_" gradientUnits="userSpaceOnUse" x1="120.474" y1="132.136" x2="121.1811" y2="132.8431">
	<stop  offset="0" style="stop-color:#E6E6EB"/>
	<stop  offset="0.1738" style="stop-color:#E2E2E6"/>
	<stop  offset="0.352" style="stop-color:#D5D4D8"/>
	<stop  offset="0.5323" style="stop-color:#C0BFC2"/>
	<stop  offset="0.7139" style="stop-color:#A4A2A4"/>
	<stop  offset="0.8949" style="stop-color:#828282"/>
	<stop  offset="1" style="stop-color:#6B6E6E"/>
</linearGradient>
<g>
	<defs>
		<rect id="SVGID_2_" x="0.4" width="360.2" height="360.2"/>
	</defs>
	<clipPath id="SVGID_3_">
		<use xlink:href="#SVGID_2_"  style="overflow:visible;"/>
	</clipPath>
	<g class="st0">
		<defs>
			<path id="SVGID_4_" d="M336.2,360.2L336.2,360.2 M256.6,316.2c-0.5,10.1-0.4,32-0.3,44h80c1.7-8,4.1-19.7,5-25
				c1.5-9.4,2.3-17.4,2.6-24.2c0,0.1,0,0.1,0,0.1s-2.1,0-7.4-0.6c-10.2-1.1-20.1-19.2-21.9-22.5c-7.6,0.8-14.3,1.1-20.2,1.1
				c-20.5,0-31.4-3.7-34.7-5C258.5,293.2,257.1,305.5,256.6,316.2"/>
		</defs>
		<clipPath id="SVGID_5_">
			<use xlink:href="#SVGID_4_"  style="overflow:visible;"/>
		</clipPath>
		
			<linearGradient id="SVGID_6_" gradientUnits="userSpaceOnUse" x1="-427.3253" y1="605.866" x2="-426.326" y2="605.866" gradientTransform="matrix(87.8929 0 0 -87.8929 37815.0078 53573.3594)">
			<stop  offset="0" style="stop-color:#A4ADB2"/>
			<stop  offset="1" style="stop-color:#777F82"/>
		</linearGradient>
		<rect x="256.1" y="283.9" class="st1" width="87.8" height="76.3"/>
	</g>
	<g class="st0">
		<defs>
			<path id="SVGID_7_" d="M227.5,228.2c-2,3.3,4.6,19.8,15.8,12.8c11.2-7,23.3-39.5,23.3-39.5l-7.5-37.5
				C259.1,164.1,229.5,224.8,227.5,228.2"/>
		</defs>
		<clipPath id="SVGID_8_">
			<use xlink:href="#SVGID_7_"  style="overflow:visible;"/>
		</clipPath>
		
			<linearGradient id="SVGID_9_" gradientUnits="userSpaceOnUse" x1="-431.983" y1="609.2213" x2="-430.983" y2="609.2213" gradientTransform="matrix(39.4858 0 0 -39.4858 17284.3594 24261.6367)">
			<stop  offset="0" style="stop-color:#44698E"/>
			<stop  offset="5.024401e-03" style="stop-color:#44698E"/>
			<stop  offset="0.1275" style="stop-color:#43688C"/>
			<stop  offset="0.2772" style="stop-color:#416386"/>
			<stop  offset="0.4411" style="stop-color:#3C5B7A"/>
			<stop  offset="0.6152" style="stop-color:#34506B"/>
			<stop  offset="0.7974" style="stop-color:#283F54"/>
			<stop  offset="0.9837" style="stop-color:#162635"/>
			<stop  offset="1" style="stop-color:#142432"/>
		</linearGradient>
		<rect x="225.5" y="164.1" class="st2" width="41.1" height="84"/>
	</g>
	<g class="st0">
		<defs>
			<path id="SVGID_10_" d="M340.4,284c-0.9,0.9-2.1,1.6-3.8,2c-6.1,1.2-10,2.6-10,2.6s-1.5,0.6-3.4,0.6c-1.5,0-3.3-0.4-4.8-1.8
				c-1.3,0.1-2.5,0.3-3.7,0.4c1.8,3.4,11.7,21.5,21.9,22.5c5.4,0.6,7.4,0.6,7.4,0.6s0,0,0-0.1c0.1-1.4,1.2-20.1-1.4-27.4
				C341.8,283.7,341.1,283.9,340.4,284"/>
		</defs>
		<clipPath id="SVGID_11_">
			<use xlink:href="#SVGID_10_"  style="overflow:visible;"/>
		</clipPath>
		
			<linearGradient id="SVGID_12_" gradientUnits="userSpaceOnUse" x1="-412.2768" y1="595.1313" x2="-411.2768" y2="595.1313" gradientTransform="matrix(-29.8431 -0.221 -0.221 29.8431 -11822.8779 -17554.252)">
			<stop  offset="0" style="stop-color:#A4ADB2"/>
			<stop  offset="1" style="stop-color:#777F82"/>
		</linearGradient>
		<polygon class="st3" points="345.1,311.3 314.4,311 314.6,283.4 345.3,283.6 		"/>
	</g>
	<g class="st0">
		<defs>
			<path id="SVGID_13_" d="M256.2,327.7c0,16.1,0.1,26.3,0.1,32.5h27.3l5-71.3l-28.8-5.5C259.7,283.4,256.1,295.7,256.2,327.7"/>
		</defs>
		<clipPath id="SVGID_14_">
			<use xlink:href="#SVGID_13_"  style="overflow:visible;"/>
		</clipPath>
		
			<linearGradient id="SVGID_15_" gradientUnits="userSpaceOnUse" x1="-433.8335" y1="610.7632" x2="-432.8335" y2="610.7632" gradientTransform="matrix(32.3968 0 0 -32.3968 14310.9971 20108.6191)">
			<stop  offset="0" style="stop-color:#A4ADB2"/>
			<stop  offset="1" style="stop-color:#777F82"/>
		</linearGradient>
		<rect x="256.1" y="283.4" class="st4" width="32.5" height="76.8"/>
	</g>
	<g class="st0">
		<defs>
			<path id="SVGID_16_" d="M287.2,307.9l1.3-19.5l-4.2-0.7C284.3,287.7,281.2,307.2,287.2,307.9"/>
		</defs>
		<clipPath id="SVGID_17_">
			<use xlink:href="#SVGID_16_"  style="overflow:visible;"/>
		</clipPath>
		
			<linearGradient id="SVGID_18_" gradientUnits="userSpaceOnUse" x1="-490.6633" y1="651.9767" x2="-489.6633" y2="651.9767" gradientTransform="matrix(4.9739 0 0 -4.9739 2724.0088 3540.6353)">
			<stop  offset="0" style="stop-color:#A4ADB2"/>
			<stop  offset="1" style="stop-color:#777F82"/>
		</linearGradient>
		<rect x="281.2" y="287.7" class="st5" width="7.3" height="20.2"/>
	</g>
	<g class="st0">
		<defs>
			<path id="SVGID_19_" d="M259.6,283.9c-1.9,3.3-2.7,19.5-2.7,19.5c9.3-1.8,10.2-17.1,10.2-17.1s-3.4-3.4-5.8-3.4
				C260.7,282.9,260,283.1,259.6,283.9"/>
		</defs>
		<clipPath id="SVGID_20_">
			<use xlink:href="#SVGID_19_"  style="overflow:visible;"/>
		</clipPath>
		
			<linearGradient id="SVGID_21_" gradientUnits="userSpaceOnUse" x1="-456.2034" y1="626.908" x2="-455.2034" y2="626.908" gradientTransform="matrix(10.219 0 0 -10.219 4918.9048 6699.4946)">
			<stop  offset="0" style="stop-color:#A4ADB2"/>
			<stop  offset="1" style="stop-color:#777F82"/>
		</linearGradient>
		<rect x="256.9" y="282.9" class="st6" width="10.2" height="20.5"/>
	</g>
	<g class="st0">
		<defs>
			<path id="SVGID_22_" d="M340.4,284c0.7-0.1,1.4-0.3,2.1-0.4c0.3-0.1,0.5-0.1,0.8-0.2l-0.8-3.9C342.3,280.7,341.8,282.6,340.4,284
				 M258.6,283.4c0,0,0.4,0.2,1.1,0.5c3.3,1.3,14.2,5,34.7,5c5.9,0,12.6-0.3,20.2-1.1c1.2-0.1,2.4-0.3,3.7-0.4c0,0-0.1-0.1-0.1-0.1
				c-3.6-3.3-2.8-6.9-2.8-6.9s0-0.1,0.1-0.3c-5.2,0.3-10.7,0.6-16,0.7c-1.1,0-2.3,0-3.3,0c-17.4,0-27.6-3.3-27.6-3.3l-7.8-2
				c0,0-0.1-1-0.3-2.6L258.6,283.4z"/>
		</defs>
		<clipPath id="SVGID_23_">
			<use xlink:href="#SVGID_22_"  style="overflow:visible;"/>
		</clipPath>
		
			<linearGradient id="SVGID_24_" gradientUnits="userSpaceOnUse" x1="-427.4662" y1="605.994" x2="-426.4662" y2="605.994" gradientTransform="matrix(84.75 0 0 -84.75 36486.3164 51638.9922)">
			<stop  offset="0" style="stop-color:#8D4B12"/>
			<stop  offset="1" style="stop-color:#4E2900"/>
		</linearGradient>
		<rect x="258.6" y="273.1" class="st7" width="84.8" height="15.9"/>
	</g>
	<g class="st0">
		<defs>
			<path id="SVGID_25_" d="M299.9,150.6c-4.3,2.8-9.1,4.4-14.1,4.4c-0.3,0-0.7,0-1,0c-3-0.1-5.7-1.1-8-2.7
				c-14.1,3.2-20.5,11.7-23.3,25c-4,19.4,0,38.4,0,38.4c0.6,10.1,5.4,47.1,6.7,57.4c0.2,1.7,0.3,2.6,0.3,2.6l7.8,2
				c0,0,10.3,3.3,27.6,3.3c1.1,0,2.2,0,3.3,0c5.3-0.1,10.8-0.4,16-0.7c0.2-0.9,1.1-3.8,3.3-4.9c2.6-1.3,4.5-1.2,4.7-1.3
				c0.3,0,5.5-0.4,7.6-0.9c1.7-0.4,4.9-1.5,6.6-1.5c0.3,0,0.6,0,0.8,0.1c0.9,0.4,2.5,1.3,3.4,3.4c3.5-17,5-48.5,5-48.5
				s0,1.8,0.1,1.8c0.1,0,0.1-4.9-0.1-30.6c-0.3-37-11.6-47.3-46.7-47.3C300.1,150.6,300,150.6,299.9,150.6"/>
		</defs>
		<clipPath id="SVGID_26_">
			<use xlink:href="#SVGID_25_"  style="overflow:visible;"/>
		</clipPath>
		
			<linearGradient id="SVGID_27_" gradientUnits="userSpaceOnUse" x1="-427.0275" y1="605.6832" x2="-426.0275" y2="605.6832" gradientTransform="matrix(95.3687 0 0 -95.3687 40955.625 57978.9727)">
			<stop  offset="0" style="stop-color:#44698E"/>
			<stop  offset="5.024401e-03" style="stop-color:#44698E"/>
			<stop  offset="0.1275" style="stop-color:#43688C"/>
			<stop  offset="0.2772" style="stop-color:#416386"/>
			<stop  offset="0.4411" style="stop-color:#3C5B7A"/>
			<stop  offset="0.6152" style="stop-color:#34506B"/>
			<stop  offset="0.7974" style="stop-color:#283F54"/>
			<stop  offset="0.9837" style="stop-color:#162635"/>
			<stop  offset="1" style="stop-color:#142432"/>
		</linearGradient>
		<rect x="249.5" y="150.6" class="st8" width="97.7" height="130.4"/>
	</g>
	<g class="st0">
		<defs>
			<path id="SVGID_28_" d="M283.2,126.5l7.9-8.1l0.6,0.8l-7.3,7.7L283.2,126.5z M282.6,124.5l6.3-6l1.2,0l-6.8,6.7L282.6,124.5z
				 M264.8,109c-0.4,4.2-0.5,8.5-0.2,12.7l4.6-4.4l1.2,0l-5.7,5.7c0,0.4,0.1,0.8,0.1,1.1l6.6-6.8l0.6,0.8l-7.1,7.5
				c1.2,11.6,5.1,22,11.9,26.7c2.3,1.6,5,2.6,8,2.7c0.3,0,0.7,0,1,0c5,0,9.8-1.6,14.1-4.4c9.1-6,15.6-17.6,15.6-31.2
				c0-20.4-6.7-35.7-26.7-35.7C288.8,83.7,266.8,87.7,264.8,109"/>
		</defs>
		<clipPath id="SVGID_29_">
			<use xlink:href="#SVGID_28_"  style="overflow:visible;"/>
		</clipPath>
		
			<radialGradient id="SVGID_30_" cx="-428.7014" cy="606.901" r="1" gradientTransform="matrix(64.5224 0 0 -64.5224 27942.6367 39284.2109)" gradientUnits="userSpaceOnUse">
			<stop  offset="0" style="stop-color:#D17432"/>
			<stop  offset="1" style="stop-color:#7C4F2E"/>
		</radialGradient>
		<rect x="264.3" y="83.7" class="st9" width="51.2" height="71.3"/>
	</g>
	<g class="st0">
		<defs>
			<polygon id="SVGID_31_" points="288.9,118.4 282.6,124.5 283.4,125.1 290.1,118.4 			"/>
		</defs>
		<clipPath id="SVGID_32_">
			<use xlink:href="#SVGID_31_"  style="overflow:visible;"/>
		</clipPath>
		<g class="st10">
			<defs>
				<rect id="SVGID_33_" x="282.2" y="118" width="8.4" height="7.4"/>
			</defs>
			<clipPath id="SVGID_34_">
				<use xlink:href="#SVGID_33_"  style="overflow:visible;"/>
			</clipPath>
		</g>
	</g>
	<g class="st0">
		<defs>
			<polygon id="SVGID_35_" points="283.2,126.5 284.4,126.9 291.7,119.2 291.1,118.4 			"/>
		</defs>
		<clipPath id="SVGID_36_">
			<use xlink:href="#SVGID_35_"  style="overflow:visible;"/>
		</clipPath>
		<g class="st11">
			<defs>
				<rect id="SVGID_37_" x="282.9" y="118" width="9.1" height="9.1"/>
			</defs>
			<clipPath id="SVGID_38_">
				<use xlink:href="#SVGID_37_"  style="overflow:visible;"/>
			</clipPath>
		</g>
	</g>
	<g class="st0">
		<defs>
			<path id="SVGID_39_" d="M262.9,123.3l0.7,0.6l1-1c0-0.4-0.1-0.8-0.1-1.2L262.9,123.3z"/>
		</defs>
		<clipPath id="SVGID_40_">
			<use xlink:href="#SVGID_39_"  style="overflow:visible;"/>
		</clipPath>
		<g class="st12">
			<defs>
				<rect id="SVGID_41_" x="262.5" y="121.4" width="2.4" height="2.9"/>
			</defs>
			<clipPath id="SVGID_42_">
				<use xlink:href="#SVGID_41_"  style="overflow:visible;"/>
			</clipPath>
		</g>
	</g>
	<g class="st0">
		<defs>
			<path id="SVGID_43_" d="M269.2,117.3l-4.6,4.4c0,0.4,0.1,0.8,0.1,1.2l5.7-5.7L269.2,117.3z"/>
		</defs>
		<clipPath id="SVGID_44_">
			<use xlink:href="#SVGID_43_"  style="overflow:visible;"/>
		</clipPath>
		<g class="st13">
			<defs>
				<rect id="SVGID_45_" x="264.2" y="116.8" width="6.5" height="6.5"/>
			</defs>
			<clipPath id="SVGID_46_">
				<use xlink:href="#SVGID_45_"  style="overflow:visible;"/>
			</clipPath>
		</g>
	</g>
	<g class="st0">
		<defs>
			<path id="SVGID_47_" d="M263.5,125.4l1.2,0.4l0.2-0.2c-0.1-0.5-0.1-1-0.1-1.5L263.5,125.4z"/>
		</defs>
		<clipPath id="SVGID_48_">
			<use xlink:href="#SVGID_47_"  style="overflow:visible;"/>
		</clipPath>
		<g class="st14">
			<defs>
				<rect id="SVGID_49_" x="263" y="123.8" width="2.2" height="2.4"/>
			</defs>
			<clipPath id="SVGID_50_">
				<use xlink:href="#SVGID_49_"  style="overflow:visible;"/>
			</clipPath>
		</g>
	</g>
	<g class="st0">
		<defs>
			<path id="SVGID_51_" d="M264.7,124.1c0,0.5,0.1,1,0.1,1.5l7.1-7.5l-0.6-0.8L264.7,124.1z"/>
		</defs>
		<clipPath id="SVGID_52_">
			<use xlink:href="#SVGID_51_"  style="overflow:visible;"/>
		</clipPath>
		<g class="st15">
			<defs>
				<rect id="SVGID_53_" x="264.5" y="116.8" width="7.9" height="9.1"/>
			</defs>
			<clipPath id="SVGID_54_">
				<use xlink:href="#SVGID_53_"  style="overflow:visible;"/>
			</clipPath>
		</g>
	</g>
	<path class="st16" d="M275.7,122.5c0,2.9-2.8,5.3-6.3,5.3c-3.5,0-6.3-2.4-6.3-5.3c0-2.9,2.8-5.3,6.3-5.3
		C272.9,117.2,275.7,119.6,275.7,122.5z"/>
	<path class="st16" d="M295.2,123.7c0,2.9-2.8,5.3-6.3,5.3c-3.5,0-6.3-2.4-6.3-5.3c0-2.9,2.8-5.3,6.3-5.3
		C292.4,118.4,295.2,120.8,295.2,123.7z"/>
	<line class="st16" x1="302.3" y1="119.1" x2="295.1" y2="123.2"/>
	<path class="st16" d="M282.6,123.2c0,0-3-3.2-6.9-0.6"/>
	<line class="st16" x1="264.4" y1="121.5" x2="263.2" y2="122.5"/>
	<g class="st0">
		<defs>
			<path id="SVGID_55_" d="M310.9,94.9c-0.3,0.6-3.1,7.6-9.1,11.6c0,0-3.5,2.2-3.1,7.1c0.4,4.9,5.1,7.5,8.2,4.4s7.1-5.6,8.2-6.6
				c1.1-0.9-0.5-11-1.6-13.7c-0.9-2.1-1.8-3-2.3-3C311,94.7,310.9,94.8,310.9,94.9"/>
		</defs>
		<clipPath id="SVGID_56_">
			<use xlink:href="#SVGID_55_"  style="overflow:visible;"/>
		</clipPath>
		
			<linearGradient id="SVGID_57_" gradientUnits="userSpaceOnUse" x1="-443.4374" y1="617.569" x2="-442.4374" y2="617.569" gradientTransform="matrix(16.7709 0 0 -16.7709 7735.5371 10465.0713)">
			<stop  offset="0" style="stop-color:#949595"/>
			<stop  offset="1" style="stop-color:#FDFDFD"/>
		</linearGradient>
		<rect x="298.4" y="94.7" class="st17" width="17.8" height="26.4"/>
	</g>
	<g class="st0">
		<defs>
			<path id="SVGID_58_" d="M319.4,286.8c-2.5-1.9-2.5-4.6-2.5-4.6s-0.2-2.1,1.8-4.4c1.9-2.3,5.4-2.3,6.9-2.3c1.5,0,2.4-0.2,4.3-0.4
				c1.9-0.3,5.1-1.3,5.1-1.3c1.3-0.5,2.1-0.6,2.6-0.6c0.4,0,0.5,0.1,0.5,0.1s4.3,0.4,3.8,5.7c-0.5,5.2-4.3,6.1-4.6,6.2
				c-0.3,0.1-2.3,0.4-3.8,0.7c-1.5,0.3-5,1.4-6.8,2.1c-1.3,0.5-2.1,0.6-2.4,0.6c-0.2,0-0.2,0-0.2,0s-0.2,0-0.4,0
				C322.8,288.4,321.2,288.2,319.4,286.8 M331.1,273.2c-2,0.4-7.3,0.9-7.6,0.9c-0.3,0-2.1-0.1-4.7,1.3c-2.2,1.1-3.1,4-3.3,4.9
				c0,0.2-0.1,0.3-0.1,0.3s-0.8,3.6,2.8,6.9c0,0,0.1,0.1,0.1,0.1c1.6,1.4,3.3,1.8,4.8,1.8c1.9,0,3.4-0.6,3.4-0.6s3.9-1.4,10-2.6
				c1.7-0.3,2.9-1.1,3.8-2c1.4-1.4,2-3.3,2.2-4.5c0.1-0.7,0.1-1.2,0.1-1.2c-0.1-1.3-0.4-2.3-0.8-3.2c-0.9-2.1-2.5-2.9-3.4-3.4
				c-0.2-0.1-0.5-0.1-0.8-0.1C336,271.6,332.8,272.8,331.1,273.2"/>
		</defs>
		<clipPath id="SVGID_59_">
			<use xlink:href="#SVGID_58_"  style="overflow:visible;"/>
		</clipPath>
		
			<radialGradient id="SVGID_60_" cx="-406.2427" cy="571.7076" r="1" gradientTransform="matrix(-10.421 4.8943 4.8943 10.421 -6708.4751 -3682.8977)" gradientUnits="userSpaceOnUse">
			<stop  offset="0" style="stop-color:#9F9F9F"/>
			<stop  offset="0.929" style="stop-color:#575756"/>
			<stop  offset="1" style="stop-color:#575756"/>
		</radialGradient>
		<polygon class="st18" points="349.5,286.1 319.6,300.1 307.8,274.8 337.6,260.8 		"/>
	</g>
	<g class="st0">
		<defs>
			<path id="SVGID_61_" d="M320.3,285.3c-0.2-0.6,0.1-1,0.5-1.2c0.1,0,0.2-0.1,0.3-0.1c0.4,0,0.9,0.2,1,0.6c0.2,0.6-0.2,0.9-0.6,1.1
				c-0.1,0-0.2,0.1-0.3,0.1C320.8,285.9,320.4,285.6,320.3,285.3 M321,283.8c-1.3,0-1.4,1.2-1.2,1.7c0.2,0.4,0.6,0.8,1.3,0.8
				c0.1,0,0.1,0,0.2,0c0.7-0.1,1.3-0.7,1.2-1.4C322.5,284.8,322.4,283.7,321,283.8C321.1,283.7,321,283.8,321,283.8 M319.3,280.9
				c-0.2-0.6,0.1-1,0.5-1.2c0.1,0,0.2-0.1,0.3-0.1c0.4,0,0.9,0.2,1,0.6c0.2,0.6-0.2,0.9-0.6,1.1c-0.1,0-0.2,0.1-0.3,0.1
				C319.8,281.5,319.4,281.3,319.3,280.9 M320.1,279.4c-1.3,0-1.4,1.2-1.2,1.7c0.2,0.4,0.6,0.8,1.3,0.8c0.1,0,0.1,0,0.2,0
				c0.7-0.1,1.3-0.7,1.2-1.4C321.6,280.5,321.4,279.4,320.1,279.4C320.1,279.4,320.1,279.4,320.1,279.4 M319.9,285.7
				c-0.3-0.6-0.3-1.8,1.2-2c0.1,0,0.2,0,0.2,0c1.2,0,1.4,1.2,1.4,1.2c0.1,0.8-0.5,1.4-1.3,1.6c-0.1,0-0.2,0-0.2,0
				C320.5,286.5,320,286,319.9,285.7 M318.9,281.3c-0.3-0.6-0.3-1.8,1.2-2c0.1,0,0.2,0,0.2,0c1.2,0,1.4,1.2,1.4,1.2
				c0.1,0.8-0.5,1.4-1.3,1.6c-0.1,0-0.2,0-0.2,0C319.6,282.1,319.1,281.6,318.9,281.3 M335,273.7c0,0-3.2,1-5.1,1.3
				c-1.9,0.3-2.8,0.4-4.3,0.4c-1.5,0-4.9,0-6.9,2.3c-1.9,2.3-1.8,4.4-1.8,4.4s0,2.7,2.5,4.6c1.8,1.4,3.4,1.6,4.2,1.6
				c0.3,0,0.4,0,0.4,0s0.1,0,0.2,0c0.4,0,1.2-0.1,2.4-0.6c1.8-0.7,5.2-1.7,6.8-2.1c1.5-0.3,3.5-0.6,3.8-0.7c0.3-0.1,4.1-1,4.6-6.2
				c0.5-5.2-3.8-5.7-3.8-5.7s-0.2-0.1-0.5-0.1C337,273.1,336.2,273.2,335,273.7"/>
		</defs>
		<clipPath id="SVGID_62_">
			<use xlink:href="#SVGID_61_"  style="overflow:visible;"/>
		</clipPath>
		
			<radialGradient id="SVGID_63_" cx="-426.7585" cy="623.9738" r="1" gradientTransform="matrix(13.8115 -13.8828 -13.8828 -13.8115 14880.6572 2979.8306)" gradientUnits="userSpaceOnUse">
			<stop  offset="0" style="stop-color:#FFFFFF"/>
			<stop  offset="0.929" style="stop-color:#E7E7E7"/>
			<stop  offset="1" style="stop-color:#E7E7E7"/>
		</radialGradient>
		<polygon class="st19" points="309.1,280.8 329.5,260.3 350,280.7 329.6,301.2 		"/>
	</g>
	<polygon class="st20" points="334.5,283.5 333.7,276.9 333.4,276.8 322.9,278.8 322.9,279.1 324.1,285.9 	"/>
	<g class="st0">
		<defs>
			<polygon id="SVGID_64_" points="322.9,278.8 324.2,285.6 334.1,283.3 333.4,276.8 			"/>
		</defs>
		<clipPath id="SVGID_65_">
			<use xlink:href="#SVGID_64_"  style="overflow:visible;"/>
		</clipPath>
		
			<linearGradient id="SVGID_66_" gradientUnits="userSpaceOnUse" x1="-403.5753" y1="582.5634" x2="-402.5753" y2="582.5634" gradientTransform="matrix(-14.1988 2.4627 2.4627 14.1988 -6831.4961 -6997.4512)">
			<stop  offset="0" style="stop-color:#00B3D4"/>
			<stop  offset="0.4415" style="stop-color:#81CEEB"/>
			<stop  offset="1" style="stop-color:#81CEEB"/>
		</linearGradient>
		<polygon class="st21" points="335.6,285.4 323.3,287.5 321.5,277.1 333.8,275 		"/>
	</g>
	<g class="st0">
		<defs>
			<path id="SVGID_67_" d="M320.8,284.1c-0.4,0.2-0.7,0.5-0.5,1.2c0.1,0.3,0.5,0.6,0.9,0.6c0.1,0,0.2,0,0.3-0.1
				c0.4-0.2,0.8-0.5,0.6-1.1c-0.1-0.3-0.6-0.6-1-0.6C321,284.1,320.9,284.1,320.8,284.1"/>
		</defs>
		<clipPath id="SVGID_68_">
			<use xlink:href="#SVGID_67_"  style="overflow:visible;"/>
		</clipPath>
		
			<radialGradient id="SVGID_69_" cx="-256.3233" cy="299.0898" r="1" gradientTransform="matrix(-1.0772 0.5059 0.5059 1.0772 -106.3063 92.9073)" gradientUnits="userSpaceOnUse">
			<stop  offset="0" style="stop-color:#9F9F9F"/>
			<stop  offset="0.3653" style="stop-color:#9F9F9F"/>
			<stop  offset="1" style="stop-color:#000000"/>
		</radialGradient>
		<polygon class="st22" points="323,285.5 320.5,286.7 319.5,284.4 321.9,283.2 		"/>
	</g>
	<g class="st0">
		<defs>
			<path id="SVGID_70_" d="M319.8,279.8c-0.4,0.2-0.7,0.5-0.5,1.2c0.1,0.3,0.5,0.6,0.9,0.6c0.1,0,0.2,0,0.3-0.1
				c0.4-0.2,0.8-0.5,0.6-1.1c-0.1-0.3-0.6-0.6-1-0.6C320,279.7,319.9,279.7,319.8,279.8"/>
		</defs>
		<clipPath id="SVGID_71_">
			<use xlink:href="#SVGID_70_"  style="overflow:visible;"/>
		</clipPath>
		
			<radialGradient id="SVGID_72_" cx="-238.1409" cy="266.0264" r="1" gradientTransform="matrix(-0.9715 0.4563 0.4563 0.9715 -32.5556 131.0499)" gradientUnits="userSpaceOnUse">
			<stop  offset="0" style="stop-color:#9F9F9F"/>
			<stop  offset="0.3653" style="stop-color:#9F9F9F"/>
			<stop  offset="1" style="stop-color:#000000"/>
		</radialGradient>
		<polygon class="st23" points="322,281.2 319.6,282.4 318.5,280.1 320.9,278.9 		"/>
	</g>
	<g class="st0">
		<defs>
			<path id="SVGID_73_" d="M319.9,285.5c-0.2-0.5-0.2-1.7,1.2-1.7c0,0,0,0,0.1,0c1.3,0,1.4,1.1,1.4,1.1c0.1,0.7-0.5,1.3-1.2,1.4
				c-0.1,0-0.1,0-0.2,0C320.5,286.3,320,285.8,319.9,285.5 M321,283.7c-1.5,0.2-1.5,1.4-1.2,2c0.1,0.3,0.6,0.8,1.3,0.8
				c0.1,0,0.2,0,0.2,0c0.8-0.1,1.4-0.8,1.3-1.6c0,0-0.2-1.2-1.4-1.2C321.2,283.7,321.1,283.7,321,283.7"/>
		</defs>
		<clipPath id="SVGID_74_">
			<use xlink:href="#SVGID_73_"  style="overflow:visible;"/>
		</clipPath>
		
			<radialGradient id="SVGID_75_" cx="-426.7585" cy="623.9738" r="1" gradientTransform="matrix(13.8115 -13.8828 -13.8828 -13.8115 14880.6572 2979.8306)" gradientUnits="userSpaceOnUse">
			<stop  offset="0" style="stop-color:#504E54"/>
			<stop  offset="0.929" style="stop-color:#49474C"/>
			<stop  offset="1" style="stop-color:#49474C"/>
		</radialGradient>
		<polygon class="st24" points="318.1,285.1 321.2,282 324.2,285.1 321.2,288.1 		"/>
	</g>
	<g class="st0">
		<defs>
			<path id="SVGID_76_" d="M319,281.1c-0.2-0.5-0.2-1.7,1.2-1.7c0,0,0,0,0.1,0c1.3,0,1.4,1.1,1.4,1.1c0.1,0.7-0.5,1.3-1.2,1.4
				c-0.1,0-0.1,0-0.2,0C319.6,281.9,319.1,281.5,319,281.1 M320.1,279.3c-1.5,0.2-1.5,1.4-1.2,2c0.1,0.3,0.6,0.8,1.3,0.8
				c0.1,0,0.2,0,0.2,0c0.8-0.1,1.4-0.8,1.3-1.6c0,0-0.2-1.2-1.4-1.2C320.3,279.3,320.2,279.3,320.1,279.3"/>
		</defs>
		<clipPath id="SVGID_77_">
			<use xlink:href="#SVGID_76_"  style="overflow:visible;"/>
		</clipPath>
		
			<radialGradient id="SVGID_78_" cx="-426.7585" cy="623.9738" r="1" gradientTransform="matrix(13.8115 -13.8828 -13.8828 -13.8115 14880.6572 2979.8306)" gradientUnits="userSpaceOnUse">
			<stop  offset="0" style="stop-color:#504E54"/>
			<stop  offset="0.929" style="stop-color:#49474C"/>
			<stop  offset="1" style="stop-color:#49474C"/>
		</radialGradient>
		<polygon class="st25" points="317.2,280.7 320.2,277.7 323.3,280.7 320.2,283.7 		"/>
	</g>
	<path class="st26" d="M336.2,274.8l0.2-0.1c0.2-0.1,0.4-0.1,0.6-0.1c0.2,0,0.3,0,0.5,0.1c0.1,0.1,0.3,0.1,0.4,0.2
		c0.2,0.1,0.3,0.3,0.4,0.5c0.1,0.1,0.2,0.3,0.2,0.4l0,0.2l0,0.1l0,0.2c0,0.1-0.1,0.2-0.1,0.3c-0.1,0.1-0.2,0.2-0.3,0.2
		c-0.1,0-0.2,0-0.3-0.1c-0.1-0.1-0.3-0.2-0.3-0.3c-0.1-0.2-0.2-0.3-0.3-0.5l-0.1-0.2v0l0,0c0.1,0.1,0.2,0.3,0.3,0.4
		c0.1,0.1,0.2,0.2,0.3,0.3l0.2,0.1c0.1,0,0.3,0,0.3-0.2l0-0.2c0-0.1-0.1-0.2-0.1-0.3c-0.1-0.1-0.2-0.3-0.3-0.4
		c-0.1-0.1-0.2-0.2-0.4-0.3c-0.1,0-0.2-0.1-0.3-0.1c-0.1,0-0.2,0-0.4-0.1C336.5,274.8,336.4,274.8,336.2,274.8L336.2,274.8
		L336.2,274.8z"/>
	<path class="st27" d="M337.9,281.4c-0.3,0-0.5,0-0.8,0c0-0.1,0-0.3,0-0.4c0.3,0,0.6,0,0.9,0.1l0,0c0,0.4,0.1,0.7,0.1,1.1
		c0,0.4,0.1,0.7,0.1,1.1l0,0.1c0,0.1-0.1,0.1-0.2,0.2l-0.2,0c-0.2,0-0.4,0-0.5,0l0,0c0-0.1,0-0.3,0-0.4l0.1,0c0.2,0,0.4,0,0.6,0h0
		l0,0l0,0c0-0.2,0-0.3,0-0.5l0,0c-0.1,0-0.3,0-0.4,0c-0.1,0-0.3,0-0.4,0c0-0.1,0-0.3,0-0.4l0.2,0c0.2,0,0.3,0,0.5,0h0l0,0l0,0
		C337.9,281.8,337.9,281.6,337.9,281.4L337.9,281.4z"/>
	<path class="st27" d="M336.8,277.4c-0.1,0-0.2,0-0.4,0c0-0.2,0-0.3,0-0.5c0.4,0,0.9,0.1,1.3,0.1l0,0c0,0.4,0.1,0.8,0.1,1.2l0,0.2
		l0,0.1l-0.1,0.1l-0.1,0c-0.1,0-0.3,0-0.4,0l-0.1,0l-0.1-0.1l0-0.1C336.9,278.1,336.9,277.8,336.8,277.4L336.8,277.4z M337,277.4
		L337,277.4l0,0.1c0,0.2,0,0.4,0,0.6l0.1,0.1c0.1,0,0.3,0,0.4,0l0.1,0l0,0l0,0c0-0.2,0-0.5-0.1-0.7l0,0
		C337.4,277.5,337.2,277.5,337,277.4"/>
	<path class="st27" d="M337.7,280.2l0.1,0l0,0l0,0c0-0.4-0.1-0.7-0.1-1.1l0-0.1l0.1,0l0,0c0,0.4,0.1,0.9,0.1,1.3l0,0.1l-0.2,0.1
		l-0.1,0c-0.2,0-0.4,0-0.6,0l0,0l0-0.1c0-0.4-0.1-0.9-0.1-1.3l0-0.1l0,0l0.1-0.1l0.1,0l0.3,0l0.1,0.1l0,0.2
		C337.6,279.5,337.6,279.9,337.7,280.2L337.7,280.2z M337.5,280.2L337.5,280.2c0-0.2,0-0.4,0-0.7l0-0.1l-0.1,0l0,0l-0.2,0l-0.1,0.1
		l0,0.7l0,0C337.3,280.2,337.4,280.2,337.5,280.2"/>
	<line class="st28" x1="116.3" y1="229.4" x2="69.3" y2="368.7"/>
	<g class="st0">
		<defs>
			<path id="SVGID_79_" d="M205.1,260.6c-1,0.7-0.7,14.2-0.7,14.2l3,56.9l1.8,28.5h40.6l1.9-75.6c0,0,1.3-4.5-1.4-6
				c-2.7-1.5-35.8-14.3-35.8-14.3s-7.1-3.6-9-3.6C205.3,260.5,205.2,260.6,205.1,260.6"/>
		</defs>
		<clipPath id="SVGID_80_">
			<use xlink:href="#SVGID_79_"  style="overflow:visible;"/>
		</clipPath>
		
			<linearGradient id="SVGID_81_" gradientUnits="userSpaceOnUse" x1="-430.5369" y1="608.5355" x2="-429.5369" y2="608.5355" gradientTransform="matrix(47.6305 0 0 -47.6305 20711.0625 29295.2129)">
			<stop  offset="0" style="stop-color:#F4EEE9"/>
			<stop  offset="1" style="stop-color:#C2C1C2"/>
		</linearGradient>
		<rect x="204.1" y="260.5" class="st29" width="48.9" height="99.7"/>
	</g>
	<line class="st30" x1="100.8" y1="234.3" x2="304.3" y2="319.1"/>
	<g class="st0">
		<defs>
			<path id="SVGID_82_" d="M118.7,239.1l2.3,82.3l22.8-0.6l30.2,0.1c0,0,3.3-55.8,3.6-57.6c0.3-1.9-30.7-13.4-30.7-13.4
				s-24.2-10.8-28-10.8C118.8,239.1,118.7,239.1,118.7,239.1"/>
		</defs>
		<clipPath id="SVGID_83_">
			<use xlink:href="#SVGID_82_"  style="overflow:visible;"/>
		</clipPath>
		
			<linearGradient id="SVGID_84_" gradientUnits="userSpaceOnUse" x1="-429.1857" y1="607.2533" x2="-428.1857" y2="607.2533" gradientTransform="matrix(59.0017 0 0 -59.0017 25441.3262 36109.2305)">
			<stop  offset="0" style="stop-color:#106B30"/>
			<stop  offset="5.024401e-03" style="stop-color:#106B30"/>
			<stop  offset="0.1567" style="stop-color:#136930"/>
			<stop  offset="0.342" style="stop-color:#17612F"/>
			<stop  offset="0.5448" style="stop-color:#1B542C"/>
			<stop  offset="0.7602" style="stop-color:#1C4225"/>
			<stop  offset="0.9834" style="stop-color:#162A1A"/>
			<stop  offset="1" style="stop-color:#152918"/>
		</linearGradient>
		<rect x="118.7" y="239.1" class="st31" width="59.3" height="82.3"/>
	</g>
	<line class="st28" x1="36.3" y1="264.2" x2="177.8" y2="368.2"/>
	<line class="st30" x1="92.5" y1="238.1" x2="292.8" y2="331"/>
	<g class="st0">
		<defs>
			<path id="SVGID_85_" d="M120.4,249.2c-3.5,1.1-6,11.9-6.8,14.1c-0.8,2.3,4.5,8.7,7,10.1l2.5-2.8c0,0,0.9,56.1,1.7,56.9
				c0.8,0.9,2,4.5,3.9,4.5s4.6-1.9,5.9,1.2c1.2,3.1,2.9,5.4,5.1,5.1c2.2-0.2,4.6-3.2,6.4,0c1.8,3.2,2.7,5.5,4.5,4.3
				c1.8-1.3,2-2.4,2-2.4l-0.4-57.2l1.4,3c0,0,7.8,2.5,10.2-0.3c0,0-3.4-16.5-4.6-17.6s-13.4-7.6-14.6-7.6s-7.1,4-10.5-5l-9.6-6.4
				c0,0-0.2-0.5-1.4-0.5C122.4,248.7,121.6,248.8,120.4,249.2"/>
		</defs>
		<clipPath id="SVGID_86_">
			<use xlink:href="#SVGID_85_"  style="overflow:visible;"/>
		</clipPath>
		
			<linearGradient id="SVGID_87_" gradientUnits="userSpaceOnUse" x1="-430.1783" y1="607.9662" x2="-429.1783" y2="607.9662" gradientTransform="matrix(50.1976 0 0 -50.1976 21707.4844 30814.748)">
			<stop  offset="0" style="stop-color:#FECB3E"/>
			<stop  offset="5.024401e-03" style="stop-color:#FECB3E"/>
			<stop  offset="0.1906" style="stop-color:#FCC73B"/>
			<stop  offset="0.4173" style="stop-color:#F4BA32"/>
			<stop  offset="0.6655" style="stop-color:#E8A425"/>
			<stop  offset="0.9272" style="stop-color:#D88615"/>
			<stop  offset="1" style="stop-color:#D47C10"/>
		</linearGradient>
		<rect x="112.9" y="248.7" class="st32" width="50.9" height="95.3"/>
	</g>
	<line class="st30" x1="82.4" y1="242.7" x2="280.2" y2="342.7"/>
	<g class="st0">
		<defs>
			<path id="SVGID_88_" d="M161.4,280.9l2.1,79.3h53.8c0.9-15.5,2.9-48.3,3.1-49.7c0.3-1.9-29.9-15.6-29.9-15.6
				S163.8,280.9,161.4,280.9C161.5,280.9,161.5,280.9,161.4,280.9"/>
		</defs>
		<clipPath id="SVGID_89_">
			<use xlink:href="#SVGID_88_"  style="overflow:visible;"/>
		</clipPath>
		
			<linearGradient id="SVGID_90_" gradientUnits="userSpaceOnUse" x1="-429.1857" y1="607.325" x2="-428.1857" y2="607.325" gradientTransform="matrix(59.0017 0 0 -59.0017 25484.127 36153.7617)">
			<stop  offset="0" style="stop-color:#44698E"/>
			<stop  offset="5.024401e-03" style="stop-color:#44698E"/>
			<stop  offset="0.1275" style="stop-color:#43688C"/>
			<stop  offset="0.2772" style="stop-color:#416386"/>
			<stop  offset="0.4411" style="stop-color:#3C5B7A"/>
			<stop  offset="0.6152" style="stop-color:#34506B"/>
			<stop  offset="0.7974" style="stop-color:#283F54"/>
			<stop  offset="0.9837" style="stop-color:#162635"/>
			<stop  offset="1" style="stop-color:#142432"/>
		</linearGradient>
		<rect x="161.4" y="280.9" class="st33" width="59.3" height="79.3"/>
	</g>
	<g class="st0">
		<defs>
			<path id="SVGID_91_" d="M98,250c-3.5,1.1-6,11.9-6.8,14.1c-0.8,2.3,4.5,8.7,7,10.1l2.5-2.8c0,0,0.9,56.1,1.7,56.9
				c0.8,0.9,2,4.5,3.9,4.5c1.9,0,4.6-1.9,5.9,1.2c1.2,3.1,2.9,5.4,5.1,5.1c2.2-0.2,4.6-3.2,6.4,0c1.8,3.2,2.7,5.5,4.5,4.3
				c1.8-1.3,2-2.4,2-2.4l-0.4-57.2l1.4,3c0,0,7.8,2.5,10.2-0.2c0,0-3.4-16.5-4.6-17.6s-13.4-7.6-14.6-7.6s-7.1,4-10.5-5L102,250
				c0,0-0.2-0.5-1.4-0.5C100,249.5,99.2,249.7,98,250"/>
		</defs>
		<clipPath id="SVGID_92_">
			<use xlink:href="#SVGID_91_"  style="overflow:visible;"/>
		</clipPath>
		
			<linearGradient id="SVGID_93_" gradientUnits="userSpaceOnUse" x1="-430.1783" y1="607.9662" x2="-429.1783" y2="607.9662" gradientTransform="matrix(50.1976 0 0 -50.1976 21685.1445 30815.623)">
			<stop  offset="0" style="stop-color:#922A48"/>
			<stop  offset="5.024401e-03" style="stop-color:#922A48"/>
			<stop  offset="0.1718" style="stop-color:#8D2946"/>
			<stop  offset="0.3754" style="stop-color:#802542"/>
			<stop  offset="0.5983" style="stop-color:#6B1E3B"/>
			<stop  offset="0.8333" style="stop-color:#511530"/>
			<stop  offset="1" style="stop-color:#3C0C25"/>
		</linearGradient>
		<rect x="90.5" y="249.5" class="st34" width="50.9" height="95.3"/>
	</g>
	<polyline class="st30" points="72.4,247.3 266.6,355.1 255.2,365.5 61.9,252.1 49.6,257.8 245.8,373.9 235.7,382.9 39.9,262.4 	"/>
	<line class="st30" x1="307.1" y1="307.9" x2="271.6" y2="368.7"/>
	<g class="st0">
		<defs>
			<path id="SVGID_94_" d="M54.1,269.5c-2.7,0.3,2.3,26.3,2.3,26.3c1.1,6.4,4,17.4,7.3,20.3c3.3,3,11.3,6,12.7,2.9
				c1.3-3.1-8.3-13.2-10-15.7c-1.7-2.5-0.7-27.5-1.7-28.5c-1-1-7.6-5.3-10.4-5.3C54.3,269.5,54.2,269.5,54.1,269.5"/>
		</defs>
		<clipPath id="SVGID_95_">
			<use xlink:href="#SVGID_94_"  style="overflow:visible;"/>
		</clipPath>
		
			<linearGradient id="SVGID_96_" gradientUnits="userSpaceOnUse" x1="-437.8935" y1="613.5489" x2="-436.8935" y2="613.5489" gradientTransform="matrix(23.2422 0 0 -23.2422 10230.9111 14556.0488)">
			<stop  offset="0" style="stop-color:#D1D0D1"/>
			<stop  offset="5.024401e-03" style="stop-color:#D1D0D1"/>
			<stop  offset="0.1573" style="stop-color:#D0CFD0"/>
			<stop  offset="0.3435" style="stop-color:#CCCCCC"/>
			<stop  offset="0.5472" style="stop-color:#C4C4C5"/>
			<stop  offset="0.7636" style="stop-color:#B6B6B7"/>
			<stop  offset="0.9878" style="stop-color:#9F9F9E"/>
			<stop  offset="1" style="stop-color:#9D9D9C"/>
		</linearGradient>
		<rect x="51.4" y="269.5" class="st35" width="26.3" height="52.7"/>
	</g>
	<g class="st0">
		<defs>
			<path id="SVGID_97_" d="M71.9,280.7c-0.8,1,0.5,22.5,0.8,24.2c0.3,1.7,0.3,18.2,2.2,19.5c1.8,1.3,9.8,9.2,9.2-6
				c-0.7-15.2-2-31.8-3.3-32.7c-1.3-0.8-7.2-5-7.2-5s-0.4-0.4-0.9-0.4C72.5,280.3,72.2,280.4,71.9,280.7"/>
		</defs>
		<clipPath id="SVGID_98_">
			<use xlink:href="#SVGID_97_"  style="overflow:visible;"/>
		</clipPath>
		
			<linearGradient id="SVGID_99_" gradientUnits="userSpaceOnUse" x1="-450.3584" y1="622.4164" x2="-449.3584" y2="622.4164" gradientTransform="matrix(12.4451 0 0 -12.4451 5676.4517 8052.9409)">
			<stop  offset="0" style="stop-color:#D1D0D1"/>
			<stop  offset="5.024401e-03" style="stop-color:#D1D0D1"/>
			<stop  offset="0.1573" style="stop-color:#D0CFD0"/>
			<stop  offset="0.3435" style="stop-color:#CCCCCC"/>
			<stop  offset="0.5472" style="stop-color:#C4C4C5"/>
			<stop  offset="0.7636" style="stop-color:#B6B6B7"/>
			<stop  offset="0.9878" style="stop-color:#9F9F9E"/>
			<stop  offset="1" style="stop-color:#9D9D9C"/>
		</linearGradient>
		<rect x="71.2" y="280.3" class="st36" width="13.6" height="53.3"/>
	</g>
	<path class="st28" d="M126.3,231.7l176,69.5c0,0,11.8,8.5-1.4,22s-75,68.5-75,68.5l-193.6-116c0,0-5.6-6.5,3.9-11.5
		c9.5-5,73.8-34.1,73.8-34.1S116,227.6,126.3,231.7z"/>
	<path class="st37" d="M254.8,260.6c0,0-8,3-12.4,3.4s-4.5-0.4-6.6,0.8s-4.9,8.8-5.2,10.2s6.2,9.8,15.4,4.2
		c9.1-5.6,15.1-6.1,15.1-6.1L254.8,260.6z"/>
	<g class="st0">
		<defs>
			<path id="SVGID_100_" d="M315.5,184c0,0,13.3,34.6,13.2,43.5c0,2.7-15.8,13.9-27.8,18.1c-12,4.1-45.3,12.8-51.7,15.8
				c0,0,6.7,1,7.7,7.3c1,6.3-1.7,9-1.7,9s44.7-11.7,49.7-13c5-1.3,43-14.3,43.3-17.8c0.3-3.5,5.3-41.8-1.1-75.2
				c0,0-7.9-16.7-24.6-18.7c-0.5-0.1-1-0.1-1.4-0.1C306.4,152.9,315.5,184,315.5,184"/>
		</defs>
		<clipPath id="SVGID_101_">
			<use xlink:href="#SVGID_100_"  style="overflow:visible;"/>
		</clipPath>
		
			<linearGradient id="SVGID_102_" gradientUnits="userSpaceOnUse" x1="-426.8266" y1="605.5371" x2="-425.8266" y2="605.5371" gradientTransform="matrix(101.1735 0 0 -101.1735 43432.6914 61479.6055)">
			<stop  offset="0" style="stop-color:#44698E"/>
			<stop  offset="5.024401e-03" style="stop-color:#44698E"/>
			<stop  offset="0.1275" style="stop-color:#43688C"/>
			<stop  offset="0.2772" style="stop-color:#416386"/>
			<stop  offset="0.4411" style="stop-color:#3C5B7A"/>
			<stop  offset="0.6152" style="stop-color:#34506B"/>
			<stop  offset="0.7974" style="stop-color:#283F54"/>
			<stop  offset="0.9837" style="stop-color:#162635"/>
			<stop  offset="1" style="stop-color:#142432"/>
		</linearGradient>
		<rect x="249.1" y="152.9" class="st38" width="104.3" height="124.8"/>
	</g>
	<g class="st0">
		<defs>
			<path id="SVGID_103_" d="M230.9,227.6c-1.9,1.2-12.2,9.6-14.4,24.8c-2.2,15.3,10,11.3,10,11.3l13.3-15.2c0,0,9-7.2,3.1-14.9
				c-4-5.3-7.4-6.8-9.6-6.8C232.3,226.9,231.4,227.2,230.9,227.6"/>
		</defs>
		<clipPath id="SVGID_104_">
			<use xlink:href="#SVGID_103_"  style="overflow:visible;"/>
		</clipPath>
		
			<linearGradient id="SVGID_105_" gradientUnits="userSpaceOnUse" x1="-440.0956" y1="599.5141" x2="-439.0956" y2="599.5141" gradientTransform="matrix(16.1179 18.229 18.229 -16.1179 -3617.3853 17917.166)">
			<stop  offset="0" style="stop-color:#44698E"/>
			<stop  offset="5.024401e-03" style="stop-color:#44698E"/>
			<stop  offset="0.1275" style="stop-color:#43688C"/>
			<stop  offset="0.2772" style="stop-color:#416386"/>
			<stop  offset="0.4411" style="stop-color:#3C5B7A"/>
			<stop  offset="0.6152" style="stop-color:#34506B"/>
			<stop  offset="0.7974" style="stop-color:#283F54"/>
			<stop  offset="0.9837" style="stop-color:#162635"/>
			<stop  offset="1" style="stop-color:#142432"/>
		</linearGradient>
		<polygon class="st39" points="233.6,209.8 269,249.8 229.4,284.8 194,244.8 		"/>
	</g>
	<path class="st37" d="M225.9,261.4c0,0,0.4-4.9-4-6s-4.9,1-4.9,1s-4.8,5.2-4.9,6.5s0.8,7.4,1.1,9.2s10.1,5.2,8.8-0.8
		s-0.8-3.8,0.5-3.9S226,262.9,225.9,261.4"/>
	<polygon class="st40" points="0.4,271.6 120.9,203.4 105.2,194 26.1,235.4 0.4,264.2 	"/>
	<g class="st0">
		<defs>
			<polygon id="SVGID_106_" points="44,-0.2 0.4,121.5 0.4,233.7 107.1,174.2 107.1,6.3 107.1,-28.3 			"/>
		</defs>
		<clipPath id="SVGID_107_">
			<use xlink:href="#SVGID_106_"  style="overflow:visible;"/>
		</clipPath>
		
			<radialGradient id="SVGID_108_" cx="-426.8641" cy="605.5644" r="1" gradientTransform="matrix(100.0353 0 0 -100.0353 42746.2266 60616.0234)" gradientUnits="userSpaceOnUse">
			<stop  offset="0" style="stop-color:#FFFFFF"/>
			<stop  offset="1.780320e-02" style="stop-color:#FFFFFF"/>
			<stop  offset="1" style="stop-color:#A7C9E8"/>
		</radialGradient>
		<rect x="0.4" y="-28.3" class="st41" width="106.7" height="262.1"/>
	</g>
	<polygon class="st42" points="0.4,228.8 97.2,179.4 103.9,206.4 0.4,264.2 	"/>
	<g class="st0">
		<defs>
			<path id="SVGID_109_" d="M62.3-7.7c0,0,47,92.1,44.6,98.2C89.9,134.7,90.5,213.7,90.8,217c0.7,6.7,7.3,3.7,6.8,0
				c-0.5-3.7,3.8-2.3,8.2-2c4.3,0.3,15-13.5,15-13.5V-11.2L62.3-7.7z"/>
		</defs>
		<clipPath id="SVGID_110_">
			<use xlink:href="#SVGID_109_"  style="overflow:visible;"/>
		</clipPath>
		
			<linearGradient id="SVGID_111_" gradientUnits="userSpaceOnUse" x1="-429.2303" y1="607.2626" x2="-428.2303" y2="607.2626" gradientTransform="matrix(58.5404 0 0 -58.5404 25189.6465 35655.6562)">
			<stop  offset="0" style="stop-color:#106B30"/>
			<stop  offset="5.024401e-03" style="stop-color:#106B30"/>
			<stop  offset="0.1567" style="stop-color:#136930"/>
			<stop  offset="0.342" style="stop-color:#17612F"/>
			<stop  offset="0.5448" style="stop-color:#1B542C"/>
			<stop  offset="0.7602" style="stop-color:#1C4225"/>
			<stop  offset="0.9834" style="stop-color:#162A1A"/>
			<stop  offset="1" style="stop-color:#152918"/>
		</linearGradient>
		<rect x="62.3" y="-11.2" class="st43" width="58.5" height="234.9"/>
	</g>
	<g class="st0">
		<defs>
			<path id="SVGID_112_" d="M12.4,204.9c-7.2,8.6-0.3,45.9,31.6,39.3c0,0,5.3-1.2,4.3-4.1c-1.1-2.9-5.1-2.2-5.1-2.2s-8.7,1.8-14-1
				c-5.3-2.9-10.2-8.4-12.6-18c-2.4-9.6,2.2-11.8,2.2-11.8l8.3,1.1l5.3-3.2c0,0-5.7-3.8-11.5-3.8C17.8,201.1,14.8,202.1,12.4,204.9"
				/>
		</defs>
		<clipPath id="SVGID_113_">
			<use xlink:href="#SVGID_112_"  style="overflow:visible;"/>
		</clipPath>
		
			<linearGradient id="SVGID_114_" gradientUnits="userSpaceOnUse" x1="-412.9104" y1="604.4456" x2="-411.9104" y2="604.4456" gradientTransform="matrix(-28.362 -26.23 -26.23 28.362 4184.8823 -27735.0176)">
			<stop  offset="0" style="stop-color:#9B3515"/>
			<stop  offset="0.1438" style="stop-color:#993414"/>
			<stop  offset="0.3195" style="stop-color:#923211"/>
			<stop  offset="0.5119" style="stop-color:#862D0C"/>
			<stop  offset="0.7162" style="stop-color:#732604"/>
			<stop  offset="0.9277" style="stop-color:#571A00"/>
			<stop  offset="1" style="stop-color:#4C1500"/>
		</linearGradient>
		<polygon class="st44" points="29,272.8 -19.5,227.9 25.6,179.1 74.1,224 		"/>
	</g>
	<g class="st0">
		<defs>
			<path id="SVGID_115_" d="M37.3,167.4c0,0-9.4-3.5-14.7,11.6c-5.3,15.2-7.6,31.9-2.5,42.3c5.1,10.4,21.8,9.4,24.5,8.6
				c2.8-0.8,8.4-8.3,9.8-9.7c4.6-4.6-2.2-52.3-8-53.2c-1.5-0.2-2.9-0.3-4.1-0.3C39.1,166.7,37.3,167.4,37.3,167.4"/>
		</defs>
		<clipPath id="SVGID_116_">
			<use xlink:href="#SVGID_115_"  style="overflow:visible;"/>
		</clipPath>
		
			<linearGradient id="SVGID_117_" gradientUnits="userSpaceOnUse" x1="-408.7348" y1="595.2128" x2="-407.7348" y2="595.2128" gradientTransform="matrix(-24.3843 -3.3796 -3.3796 24.3843 -7911.1353 -15696.5127)">
			<stop  offset="0" style="stop-color:#9B3515"/>
			<stop  offset="0.1438" style="stop-color:#993414"/>
			<stop  offset="0.3195" style="stop-color:#923211"/>
			<stop  offset="0.5119" style="stop-color:#862D0C"/>
			<stop  offset="0.7162" style="stop-color:#732604"/>
			<stop  offset="0.9277" style="stop-color:#571A00"/>
			<stop  offset="1" style="stop-color:#4C1500"/>
		</linearGradient>
		<polygon class="st45" points="58.2,237.6 5.8,230.4 15.9,157.8 68.2,165.1 		"/>
	</g>
	<g class="st0">
		<defs>
			<path id="SVGID_118_" d="M32.3,153.2c-1.3,1.5-4.3,4.3-3.8,7.1c0.5,2.8,2.4,7.6-4.2,14.8c-1.8,2,8.4,7.8,22,6.9
				c3-0.2,4-9.6,2.1-13.1c-1.2-2.3,1.4-2.3-1.5-11.6c-0.3-1.1-3.6-4.8-6.3-5.4c-0.8-0.2-1.8-0.3-2.8-0.3
				C35.5,151.6,33.2,152.1,32.3,153.2"/>
		</defs>
		<clipPath id="SVGID_119_">
			<use xlink:href="#SVGID_118_"  style="overflow:visible;"/>
		</clipPath>
		
			<linearGradient id="SVGID_120_" gradientUnits="userSpaceOnUse" x1="-407.6938" y1="599.0737" x2="-406.6938" y2="599.0737" gradientTransform="matrix(-23.4898 -9.2637 -9.2637 23.4898 -3975.5337 -17675.7168)">
			<stop  offset="0" style="stop-color:#9B3515"/>
			<stop  offset="0.1438" style="stop-color:#993414"/>
			<stop  offset="0.3195" style="stop-color:#923211"/>
			<stop  offset="0.5119" style="stop-color:#862D0C"/>
			<stop  offset="0.7162" style="stop-color:#732604"/>
			<stop  offset="0.9277" style="stop-color:#571A00"/>
			<stop  offset="1" style="stop-color:#4C1500"/>
		</linearGradient>
		<polygon class="st46" points="46.5,192.4 11.8,178.7 26.2,142.1 60.9,155.8 		"/>
	</g>
	<g class="st0">
		<defs>
			<path id="SVGID_121_" d="M43.8,228.9c0.7,1.3,1.5,2.4,2.5,2.2c1-0.2,3.3,0.3,4.1-1.2c0.8-1.5,0.3-4.6-2.2-4.2l-0.8,0.1
				c0,0-0.8-0.3-0.9-3c-0.1-2.7-0.1-25.6-0.1-25.6l-5.9-4.6C40.4,192.6,43.1,227.6,43.8,228.9"/>
		</defs>
		<clipPath id="SVGID_122_">
			<use xlink:href="#SVGID_121_"  style="overflow:visible;"/>
		</clipPath>
		
			<linearGradient id="SVGID_123_" gradientUnits="userSpaceOnUse" x1="-431.5937" y1="591.8957" x2="-430.5937" y2="591.8957" gradientTransform="matrix(-0.2002 29.8319 29.8319 0.2002 -17697.9121 12953.6904)">
			<stop  offset="0" style="stop-color:#9B3515"/>
			<stop  offset="0.1438" style="stop-color:#993414"/>
			<stop  offset="0.3195" style="stop-color:#923211"/>
			<stop  offset="0.5119" style="stop-color:#862D0C"/>
			<stop  offset="0.7162" style="stop-color:#732604"/>
			<stop  offset="0.9277" style="stop-color:#571A00"/>
			<stop  offset="1" style="stop-color:#4C1500"/>
		</linearGradient>
		<polygon class="st47" points="51.4,192.6 51.2,231.5 40.2,231.4 40.4,192.6 		"/>
	</g>
	<g class="st0">
		<defs>
			<path id="SVGID_124_" d="M50.3,225.3c0.7,1.3,1.5,2.4,2.5,2.2c1-0.2,3.3,0.3,4-1.2c0.8-1.5,0.3-4.6-2.2-4.2l-0.8,0.1
				c0,0-0.8-0.3-0.9-3c-0.1-2.7-0.1-25.6-0.1-25.6L47,189C47,189,49.7,224,50.3,225.3"/>
		</defs>
		<clipPath id="SVGID_125_">
			<use xlink:href="#SVGID_124_"  style="overflow:visible;"/>
		</clipPath>
		
			<linearGradient id="SVGID_126_" gradientUnits="userSpaceOnUse" x1="-431.9765" y1="593.3229" x2="-430.9765" y2="593.3229" gradientTransform="matrix(2.6064 31.7746 31.7746 -2.6064 -17675.6523 15465.3516)">
			<stop  offset="0" style="stop-color:#9B3515"/>
			<stop  offset="0.1438" style="stop-color:#993414"/>
			<stop  offset="0.3195" style="stop-color:#923211"/>
			<stop  offset="0.5119" style="stop-color:#862D0C"/>
			<stop  offset="0.7162" style="stop-color:#732604"/>
			<stop  offset="0.9277" style="stop-color:#571A00"/>
			<stop  offset="1" style="stop-color:#4C1500"/>
		</linearGradient>
		<polygon class="st48" points="57.6,188.1 60.8,227.6 47,228.7 43.8,189.3 		"/>
	</g>
	<g class="st0">
		<defs>
			<path id="SVGID_127_" d="M14.2,203.8c0,3.5-1,13.2,6.3,20.4c7.3,7.3,16.7,7,18.5,6.8c1.8-0.3,1.9-2.7,0.4-3.5
				c-1.5-0.8-7-3.2-7-3.2s5.5-4.6,6.8-11.6c1.3-7.1-7.6-14.9-7.6-14.9s-9.5-5.1-11.6-5.1S14.2,198.5,14.2,203.8"/>
		</defs>
		<clipPath id="SVGID_128_">
			<use xlink:href="#SVGID_127_"  style="overflow:visible;"/>
		</clipPath>
		
			<linearGradient id="SVGID_129_" gradientUnits="userSpaceOnUse" x1="-430.362" y1="617.327" x2="-429.362" y2="617.327" gradientTransform="matrix(23.1525 -12.4088 -12.4088 -23.1525 17639.3496 9170.8672)">
			<stop  offset="0" style="stop-color:#9B3515"/>
			<stop  offset="0.1438" style="stop-color:#993414"/>
			<stop  offset="0.3195" style="stop-color:#923211"/>
			<stop  offset="0.5119" style="stop-color:#862D0C"/>
			<stop  offset="0.7162" style="stop-color:#732604"/>
			<stop  offset="0.9277" style="stop-color:#571A00"/>
			<stop  offset="1" style="stop-color:#4C1500"/>
		</linearGradient>
		<polygon class="st49" points="-2.9,201.3 34.7,181.1 57.1,222.8 19.4,243 		"/>
	</g>
	<g class="st0">
		<defs>
			<path id="SVGID_130_" d="M28,149.6c-0.3,0.6-0.1,2.8,0,3.5c0,0.6,0.5,6.5,0.5,6.5s3.3-1.8,4.3-2.7c1-0.9,1.3-2,1.3-2
				s-0.9-1.2-2.3-3.2c-1.1-1.5-2.5-2.3-3.3-2.3C28.2,149.4,28,149.4,28,149.6"/>
		</defs>
		<clipPath id="SVGID_131_">
			<use xlink:href="#SVGID_130_"  style="overflow:visible;"/>
		</clipPath>
		
			<linearGradient id="SVGID_132_" gradientUnits="userSpaceOnUse" x1="-376.0877" y1="556.0638" x2="-375.0877" y2="556.0638" gradientTransform="matrix(-6.1028 0.9426 0.9426 6.1028 -2784.8916 -2885.1631)">
			<stop  offset="0" style="stop-color:#9B3515"/>
			<stop  offset="0.1438" style="stop-color:#993414"/>
			<stop  offset="0.3195" style="stop-color:#923211"/>
			<stop  offset="0.5119" style="stop-color:#862D0C"/>
			<stop  offset="0.7162" style="stop-color:#732604"/>
			<stop  offset="0.9277" style="stop-color:#571A00"/>
			<stop  offset="1" style="stop-color:#4C1500"/>
		</linearGradient>
		<polygon class="st50" points="35.5,159.3 27.8,160.5 26.1,149.6 33.8,148.4 		"/>
	</g>
	<g class="st0">
		<defs>
			<path id="SVGID_133_" d="M46,149.6c-0.8,0-4.1,3-4.1,3l0.8,0.2l3.2,2.8c0,0,0.2-0.7,0.2-2C46,152.4,46.3,149.6,46,149.6
				C46,149.6,46,149.6,46,149.6"/>
		</defs>
		<clipPath id="SVGID_134_">
			<use xlink:href="#SVGID_133_"  style="overflow:visible;"/>
		</clipPath>
		
			<linearGradient id="SVGID_135_" gradientUnits="userSpaceOnUse" x1="-334.7834" y1="563.379" x2="-333.7834" y2="563.379" gradientTransform="matrix(-4.1545 -0.8721 -0.8721 4.1545 -853.2292 -2479.3987)">
			<stop  offset="0" style="stop-color:#9B3515"/>
			<stop  offset="0.1438" style="stop-color:#993414"/>
			<stop  offset="0.3195" style="stop-color:#923211"/>
			<stop  offset="0.5119" style="stop-color:#862D0C"/>
			<stop  offset="0.7162" style="stop-color:#732604"/>
			<stop  offset="0.9277" style="stop-color:#571A00"/>
			<stop  offset="1" style="stop-color:#4C1500"/>
		</linearGradient>
		<polygon class="st51" points="46.1,156.5 40.7,155.4 42.1,148.7 47.5,149.9 		"/>
	</g>
</g>
</svg>
