<?xml version="1.0" encoding="utf-8"?>
<!-- Generator: Adobe Illustrator 25.2.3, SVG Export Plug-In . SVG Version: 6.00 Build 0)  -->
<svg version="1.1" id="Laag_1" xmlns="http://www.w3.org/2000/svg" xmlns:xlink="http://www.w3.org/1999/xlink" x="0px" y="0px"
	 viewBox="0 0 388.1 243.5" style="enable-background:new 0 0 388.1 243.5;" xml:space="preserve">
<style type="text/css">
	.st0{fill:#FFFFFF;}
	.st1{clip-path:url(#SVGID_2_);fill:#039A39;}
	.st2{clip-path:url(#SVGID_4_);fill:#039A39;}
	.st3{clip-path:url(#SVGID_6_);fill:#039A39;}
	.st4{clip-path:url(#SVGID_8_);fill:#039A39;}
	.st5{clip-path:url(#SVGID_10_);fill:#039A39;}
	.st6{clip-path:url(#SVGID_12_);fill:#039A39;}
	.st7{fill:none;stroke:#B7B7B7;stroke-width:0.567;stroke-miterlimit:10;}
	.st8{fill:none;stroke:#B7B7B7;stroke-width:0.567;stroke-miterlimit:10;stroke-dasharray:1.4,1.96;}
	.st9{fill:none;stroke:#B7B7B7;stroke-width:0.567;stroke-miterlimit:10;stroke-dasharray:1.417,1.984;}
	.st10{fill:#B7B7B7;}
	.st11{clip-path:url(#SVGID_14_);fill:url(#SVGID_15_);}
	.st12{clip-path:url(#SVGID_17_);fill:url(#SVGID_18_);}
	.st13{clip-path:url(#SVGID_20_);fill:url(#SVGID_21_);}
	.st14{clip-path:url(#SVGID_23_);fill:url(#SVGID_24_);}
	.st15{clip-path:url(#SVGID_26_);fill:url(#SVGID_27_);}
	.st16{clip-path:url(#SVGID_29_);fill:url(#SVGID_30_);}
	.st17{clip-path:url(#SVGID_32_);fill:url(#SVGID_33_);}
	.st18{clip-path:url(#SVGID_35_);fill:url(#SVGID_36_);}
	.st19{clip-path:url(#SVGID_38_);fill:url(#SVGID_39_);}
	.st20{clip-path:url(#SVGID_41_);fill:url(#SVGID_42_);}
	.st21{clip-path:url(#SVGID_44_);fill:url(#SVGID_45_);}
	.st22{clip-path:url(#SVGID_47_);fill:url(#SVGID_48_);}
	.st23{clip-path:url(#SVGID_50_);}
	.st24{clip-path:url(#SVGID_54_);}
	.st25{clip-path:url(#SVGID_58_);fill:url(#SVGID_59_);}
	.st26{clip-path:url(#SVGID_61_);fill:url(#SVGID_62_);}
	.st27{clip-path:url(#SVGID_64_);fill:url(#SVGID_65_);}
	.st28{clip-path:url(#SVGID_67_);fill:url(#SVGID_68_);}
	.st29{fill:#A7622C;}
	.st30{fill:none;stroke:#264C22;stroke-miterlimit:10;}
	.st31{fill:none;stroke:#264C22;stroke-width:1.001;stroke-linecap:round;stroke-miterlimit:10;}
	.st32{clip-path:url(#SVGID_70_);fill:url(#SVGID_71_);}
	.st33{clip-path:url(#SVGID_73_);fill:url(#SVGID_74_);}
	.st34{fill:none;stroke:#214C23;stroke-miterlimit:10;}
	.st35{clip-path:url(#SVGID_76_);fill:url(#SVGID_77_);}
	.st36{clip-path:url(#SVGID_79_);fill:url(#SVGID_80_);}
	.st37{clip-path:url(#SVGID_82_);fill:url(#SVGID_83_);}
	.st38{clip-path:url(#SVGID_85_);fill:url(#SVGID_86_);}
	.st39{clip-path:url(#SVGID_88_);fill:url(#SVGID_89_);}
	.st40{clip-path:url(#SVGID_91_);fill:url(#SVGID_92_);}
	.st41{clip-path:url(#SVGID_94_);fill:url(#SVGID_95_);}
	.st42{clip-path:url(#SVGID_97_);fill:url(#SVGID_98_);}
	.st43{fill:#A7CDDD;}
	.st44{fill:#039A39;}
</style>
<g>
	<path class="st0" d="M169.6,52.6c0,18.6-19.9,33.7-44.3,33.7C100.8,86.3,81,71.2,81,52.6s19.9-33.7,44.3-33.7
		C149.7,18.9,169.6,34,169.6,52.6"/>
	<path class="st0" d="M164.1,62c0,0,3.9,7.2,8.4,8s6.8,0,6.8,0s-8.4,9-23.6,2.5C140.6,66.1,164.1,62,164.1,62"/>
	<g>
		<g>
			<defs>
				<path id="SVGID_1_" d="M85.4,52.6c0,16.7,17.8,30.3,39.8,30.3S165,69.4,165,52.6c0-16.7-17.8-30.3-39.8-30.3
					C103.3,22.3,85.4,35.9,85.4,52.6"/>
			</defs>
			<clipPath id="SVGID_2_">
				<use xlink:href="#SVGID_1_"  style="overflow:visible;"/>
			</clipPath>
			<rect x="93.8" y="40.1" class="st1" width="7.8" height="45.2"/>
		</g>
		<g>
			<defs>
				<path id="SVGID_3_" d="M85.4,52.6c0,16.7,17.8,30.3,39.8,30.3S165,69.4,165,52.6c0-16.7-17.8-30.3-39.8-30.3
					C103.3,22.3,85.4,35.9,85.4,52.6"/>
			</defs>
			<clipPath id="SVGID_4_">
				<use xlink:href="#SVGID_3_"  style="overflow:visible;"/>
			</clipPath>
			<rect x="104" y="45.9" class="st2" width="7.8" height="39.4"/>
		</g>
		<g>
			<defs>
				<path id="SVGID_5_" d="M85.4,52.6c0,16.7,17.8,30.3,39.8,30.3S165,69.4,165,52.6c0-16.7-17.8-30.3-39.8-30.3
					C103.3,22.3,85.4,35.9,85.4,52.6"/>
			</defs>
			<clipPath id="SVGID_6_">
				<use xlink:href="#SVGID_5_"  style="overflow:visible;"/>
			</clipPath>
			<rect x="114.5" y="51.4" class="st3" width="7.8" height="33.9"/>
		</g>
		<g>
			<defs>
				<path id="SVGID_7_" d="M85.4,52.6c0,16.7,17.8,30.3,39.8,30.3S165,69.4,165,52.6c0-16.7-17.8-30.3-39.8-30.3
					C103.3,22.3,85.4,35.9,85.4,52.6"/>
			</defs>
			<clipPath id="SVGID_8_">
				<use xlink:href="#SVGID_7_"  style="overflow:visible;"/>
			</clipPath>
			<rect x="125" y="41.9" class="st4" width="7.8" height="43.4"/>
		</g>
		<g>
			<defs>
				<path id="SVGID_9_" d="M85.4,52.6c0,16.7,17.8,30.3,39.8,30.3S165,69.4,165,52.6c0-16.7-17.8-30.3-39.8-30.3
					C103.3,22.3,85.4,35.9,85.4,52.6"/>
			</defs>
			<clipPath id="SVGID_10_">
				<use xlink:href="#SVGID_9_"  style="overflow:visible;"/>
			</clipPath>
			<rect x="135.8" y="38.7" class="st5" width="7.8" height="46.5"/>
		</g>
		<g>
			<defs>
				<path id="SVGID_11_" d="M85.4,52.6c0,16.7,17.8,30.3,39.8,30.3S165,69.4,165,52.6c0-16.7-17.8-30.3-39.8-30.3
					C103.3,22.3,85.4,35.9,85.4,52.6"/>
			</defs>
			<clipPath id="SVGID_12_">
				<use xlink:href="#SVGID_11_"  style="overflow:visible;"/>
			</clipPath>
			<rect x="147.1" y="36.4" class="st6" width="7.8" height="46.5"/>
		</g>
	</g>
	<path class="st7" d="M99.3,36.8c0,0,0.1-0.2,0.4-0.5"/>
	<path class="st8" d="M101.1,34.8c2.3-2,6.6-4.9,13.1-4.6c7.2,0.3,11.4,4.2,13.2,6.4"/>
	<path class="st7" d="M127.9,37.4c0.3,0.4,0.4,0.6,0.4,0.6"/>
	<line class="st9" x1="89.5" y1="62.7" x2="89.5" y2="44.9"/>
	<polygon class="st10" points="88.3,43.1 90.8,43.1 89.5,40.2 	"/>
	<line class="st9" x1="134.5" y1="33.4" x2="148.2" y2="33.4"/>
	<polygon class="st10" points="150,32.1 150,34.7 153,33.4 	"/>
	<g>
		<g>
			<defs>
				<path id="SVGID_13_" d="M203.8,73c1.3,2.7,0.7,10-3.7,10.3s-7.2,3-7.2,3l4.1,6.2l18.4,5.7c0,0,19.7-13.7,12.1-13.7
					c-7.6,0-6.1-4.2-7.2-10c-1.5-8-0.3-13.4-0.3-13.4S202.5,70.4,203.8,73"/>
			</defs>
			<clipPath id="SVGID_14_">
				<use xlink:href="#SVGID_13_"  style="overflow:visible;"/>
			</clipPath>
			
				<linearGradient id="SVGID_15_" gradientUnits="userSpaceOnUse" x1="-261.1234" y1="-455.846" x2="-260.1234" y2="-455.846" gradientTransform="matrix(36.313 0 0 36.313 9675.1738 16632.7871)">
				<stop  offset="0" style="stop-color:#FBCEA9"/>
				<stop  offset="0.4423" style="stop-color:#FBCEA9"/>
				<stop  offset="1" style="stop-color:#C78E72"/>
			</linearGradient>
			<rect x="193" y="61.1" class="st11" width="42.2" height="37.1"/>
		</g>
	</g>
	<g>
		<g>
			<defs>
				<path id="SVGID_16_" d="M197.4,36c0,0-6.8,0.5-7.9,8c-1.1,7.6-1.8,13.9,3,20.4s6.4,14.2,13.8,11.3c7.4-3,17.8-12.4,18.5-27
					c0.6-11.2-10.4-13.4-19-13.4C202.2,35.3,199.1,35.7,197.4,36"/>
			</defs>
			<clipPath id="SVGID_17_">
				<use xlink:href="#SVGID_16_"  style="overflow:visible;"/>
			</clipPath>
			
				<radialGradient id="SVGID_18_" cx="-260.8965" cy="-454.7889" r="1" gradientTransform="matrix(39.7535 0 0 39.7535 10563.9717 18134.4238)" gradientUnits="userSpaceOnUse">
				<stop  offset="0" style="stop-color:#FBCEA9"/>
				<stop  offset="0.4423" style="stop-color:#FBCEA9"/>
				<stop  offset="1" style="stop-color:#C78E72"/>
			</radialGradient>
			<rect x="187.6" y="35.3" class="st12" width="37.7" height="43.4"/>
		</g>
	</g>
	<g>
		<g>
			<defs>
				<path id="SVGID_19_" d="M149.4,64.5c0.2,7.1,0,6.5,0,6.5s-5.3-0.8-6,1.1s-1.7,5.7,0.7,8.4c2.4,2.7,4.3,5.2,4.3,5.2l5.8-2.4
					c0,0,0-5.7-0.6-9.1s-1.1-14.6-1.8-15.2c-0.2-0.2-0.6-0.4-1-0.4C150,58.6,149.2,59.6,149.4,64.5"/>
			</defs>
			<clipPath id="SVGID_20_">
				<use xlink:href="#SVGID_19_"  style="overflow:visible;"/>
			</clipPath>
			
				<linearGradient id="SVGID_21_" gradientUnits="userSpaceOnUse" x1="-269.2227" y1="-493.4576" x2="-268.2227" y2="-493.4576" gradientTransform="matrix(8.9056 0 0 8.9056 2544.2634 4466.6855)">
				<stop  offset="0" style="stop-color:#FBCEA9"/>
				<stop  offset="0.4423" style="stop-color:#FBCEA9"/>
				<stop  offset="1" style="stop-color:#C78E72"/>
			</linearGradient>
			<rect x="141.7" y="58.6" class="st13" width="12.5" height="27.1"/>
		</g>
	</g>
	<g>
		<g>
			<defs>
				<path id="SVGID_22_" d="M172.9,108.4c-3.4,3.3-15.2,13.9-14.3,17.4s4.4,13.2,12.4,7.3c8-5.9,29.2-20.8,29.2-22.5
					S193,86.3,193,86.3S176.4,105.1,172.9,108.4"/>
			</defs>
			<clipPath id="SVGID_23_">
				<use xlink:href="#SVGID_22_"  style="overflow:visible;"/>
			</clipPath>
			
				<linearGradient id="SVGID_24_" gradientUnits="userSpaceOnUse" x1="-260.7902" y1="-454.247" x2="-259.7902" y2="-454.247" gradientTransform="matrix(41.5929 0 0 41.5929 11005.583 19006.0996)">
				<stop  offset="0" style="stop-color:#A4ADB2"/>
				<stop  offset="1" style="stop-color:#777F82"/>
			</linearGradient>
			<rect x="157.7" y="86.3" class="st14" width="42.4" height="52.7"/>
		</g>
	</g>
	<g>
		<g>
			<defs>
				<path id="SVGID_25_" d="M150.6,83.9c-1.5,0.3-3.9-0.5-3.9-0.5s-0.1,0.8,0.3,2.9c0,0,4,19.1,4.8,26.2s5.2,21.9,12.3,22.5
					c7.1,0.5,6.5-17.7,3.2-24.3c-3.2-6.7-9.4-16.4-10.9-21.3s-2.4-7.5-2.4-7.5S152.1,83.6,150.6,83.9"/>
			</defs>
			<clipPath id="SVGID_26_">
				<use xlink:href="#SVGID_25_"  style="overflow:visible;"/>
			</clipPath>
			
				<linearGradient id="SVGID_27_" gradientUnits="userSpaceOnUse" x1="-262.6479" y1="-462.9108" x2="-261.6479" y2="-462.9108" gradientTransform="matrix(22.9976 0 0 22.9976 6187.0371 10754.5381)">
				<stop  offset="0" style="stop-color:#A4ADB2"/>
				<stop  offset="1" style="stop-color:#777F82"/>
			</linearGradient>
			<rect x="146.7" y="81.9" class="st15" width="24.6" height="53.6"/>
		</g>
	</g>
	<g>
		<g>
			<defs>
				<path id="SVGID_28_" d="M227.5,84.5c0,0-7.6,7.7-18.2,7.7c-10.6,0-13.9-7.7-13.9-7.7s-6,2.4-7,13.3s7,74.7,7.3,76.4
					c0.3,1.7,62.1-24.9,62.1-24.9s-2-31.9-6.4-46.6c-2.6-8.7-8.2-18.4-20-18.4C230.2,84.2,228.9,84.3,227.5,84.5"/>
			</defs>
			<clipPath id="SVGID_29_">
				<use xlink:href="#SVGID_28_"  style="overflow:visible;"/>
			</clipPath>
			
				<linearGradient id="SVGID_30_" gradientUnits="userSpaceOnUse" x1="-259.8677" y1="-449.9995" x2="-258.8677" y2="-449.9995" gradientTransform="matrix(69.5008 0 0 69.5008 18249.3867 31405.377)">
				<stop  offset="0" style="stop-color:#A4ADB2"/>
				<stop  offset="1" style="stop-color:#777F82"/>
			</linearGradient>
			<rect x="187.5" y="84.2" class="st16" width="70.4" height="91.7"/>
		</g>
	</g>
	<g>
		<g>
			<defs>
				<path id="SVGID_31_" d="M213.8,21c-2.7,1.9,0,7.1,0,7.1s1.9,1.3,5,2.1c3.1,0.8,5.5-2.4,5.1-6.6c-0.2-2.6-3-3.7-5.8-3.7
					C216.5,19.8,214.8,20.3,213.8,21"/>
			</defs>
			<clipPath id="SVGID_32_">
				<use xlink:href="#SVGID_31_"  style="overflow:visible;"/>
			</clipPath>
			
				<radialGradient id="SVGID_33_" cx="-268.2334" cy="-488.8623" r="1" gradientTransform="matrix(9.8101 0 0 9.8101 2847.6235 4820.4292)" gradientUnits="userSpaceOnUse">
				<stop  offset="0" style="stop-color:#693A0E"/>
				<stop  offset="7.420420e-03" style="stop-color:#693A0E"/>
				<stop  offset="1" style="stop-color:#271A0F"/>
			</radialGradient>
			<rect x="211.1" y="19.8" class="st17" width="13.2" height="11"/>
		</g>
	</g>
	<g>
		<g>
			<defs>
				<path id="SVGID_34_" d="M211.1,25.3c-22.9,0.4-21.7,19.1-21.7,19.1s1.9-7,9.7-7s15,1.2,18,5.2c2.9,4,2.5,6.9,2.5,6.9
					s1.6-3.8,3.5-2.4c1.9,1.5-1.2,11.5-1.2,11.5l-2.3,5.7c0,0,6.3-4.1,7.9-9.3c1.6-5.1,6.4-29.7-15.8-29.7
					C211.5,25.3,211.3,25.3,211.1,25.3"/>
			</defs>
			<clipPath id="SVGID_35_">
				<use xlink:href="#SVGID_34_"  style="overflow:visible;"/>
			</clipPath>
			
				<radialGradient id="SVGID_36_" cx="-261.42" cy="-457.2196" r="1" gradientTransform="matrix(32.6454 0 0 32.6454 8732.9258 14964.3096)" gradientUnits="userSpaceOnUse">
				<stop  offset="0" style="stop-color:#693A0E"/>
				<stop  offset="7.420420e-03" style="stop-color:#693A0E"/>
				<stop  offset="1" style="stop-color:#271A0F"/>
			</radialGradient>
			<rect x="188.2" y="25.3" class="st18" width="45.8" height="39"/>
		</g>
	</g>
	<g>
		<g>
			<defs>
				<path id="SVGID_37_" d="M236.3,123.6L242,152l15.8-4.1l-1-12c0,0-0.6-40.5-16.2-49.4c-1.4-0.8-2.6-1.1-3.5-1.1
					C226.8,85.5,236.3,123.6,236.3,123.6"/>
			</defs>
			<clipPath id="SVGID_38_">
				<use xlink:href="#SVGID_37_"  style="overflow:visible;"/>
			</clipPath>
			
				<linearGradient id="SVGID_39_" gradientUnits="userSpaceOnUse" x1="-262.2481" y1="-461.0675" x2="-261.2481" y2="-461.0675" gradientTransform="matrix(25.4464 0 0 25.4464 6905.5854 11851.208)">
				<stop  offset="0" style="stop-color:#A4ADB2"/>
				<stop  offset="1" style="stop-color:#777F82"/>
			</linearGradient>
			<rect x="226.8" y="85.4" class="st19" width="30.9" height="66.6"/>
		</g>
	</g>
	<g>
		<g>
			<defs>
				<polygon id="SVGID_40_" points="12.1,243.7 14.4,243.7 365.1,243.7 366,129.6 316.5,119.3 				"/>
			</defs>
			<clipPath id="SVGID_41_">
				<use xlink:href="#SVGID_40_"  style="overflow:visible;"/>
			</clipPath>
			
				<linearGradient id="SVGID_42_" gradientUnits="userSpaceOnUse" x1="-259.53" y1="-445.4477" x2="-258.53" y2="-445.4477" gradientTransform="matrix(208.1131 66.8494 -66.8494 208.1131 24395.4473 110225.6562)">
				<stop  offset="0" style="stop-color:#E8481D"/>
				<stop  offset="1.729390e-02" style="stop-color:#E8481D"/>
				<stop  offset="0.1829" style="stop-color:#E5471D"/>
				<stop  offset="0.3851" style="stop-color:#DA441C"/>
				<stop  offset="0.6065" style="stop-color:#C93F1A"/>
				<stop  offset="0.84" style="stop-color:#B03717"/>
				<stop  offset="1" style="stop-color:#9C3114"/>
			</linearGradient>
			<polygon class="st20" points="45.2,16.2 402.2,130.9 332.9,346.8 -24.2,232.1 			"/>
		</g>
	</g>
	<g>
		<g>
			<defs>
				<path id="SVGID_43_" d="M145.6,176.6l9.6,8.6l11.5-4.6c0,0-0.6-2-7.1-5.1c-1.7-0.8-3.5-1.1-5.2-1.1
					C149.6,174.3,145.6,176.6,145.6,176.6"/>
			</defs>
			<clipPath id="SVGID_44_">
				<use xlink:href="#SVGID_43_"  style="overflow:visible;"/>
			</clipPath>
			
				<linearGradient id="SVGID_45_" gradientUnits="userSpaceOnUse" x1="-263.0391" y1="-464.7374" x2="-262.04" y2="-464.7374" gradientTransform="matrix(21.0184 0 0 21.0184 5674.2998 9947.7871)">
				<stop  offset="0" style="stop-color:#8A5734"/>
				<stop  offset="0.9221" style="stop-color:#D17432"/>
				<stop  offset="1" style="stop-color:#D17432"/>
			</linearGradient>
			<rect x="145.6" y="174.3" class="st21" width="21" height="10.9"/>
		</g>
	</g>
	<g>
		<g>
			<defs>
				<path id="SVGID_46_" d="M71.7,117.8c0.2,0,0.3,0,0.5-0.1c4.1-0.9,3.9-2.3,3.5-2.8s-4-5.3-4-5.3S68.5,117.8,71.7,117.8"/>
			</defs>
			<clipPath id="SVGID_47_">
				<use xlink:href="#SVGID_46_"  style="overflow:visible;"/>
			</clipPath>
			
				<radialGradient id="SVGID_48_" cx="-272.8034" cy="-510.0859" r="1" gradientTransform="matrix(6.6773 0 0 6.6773 1891.1826 3521.1504)" gradientUnits="userSpaceOnUse">
				<stop  offset="0" style="stop-color:#694326"/>
				<stop  offset="0.7739" style="stop-color:#C06C2E"/>
				<stop  offset="1" style="stop-color:#C06C2E"/>
			</radialGradient>
			<rect x="68.5" y="109.6" class="st22" width="7.8" height="8.2"/>
		</g>
	</g>
	<g>
		<g>
			<defs>
				<polygon id="SVGID_49_" points="72.5,108.4 72.6,109.1 75.4,107.2 74.7,106.7 				"/>
			</defs>
			<clipPath id="SVGID_50_">
				<use xlink:href="#SVGID_49_"  style="overflow:visible;"/>
			</clipPath>
			<g class="st23">
				<g>
					<defs>
						<rect id="SVGID_51_" x="72.2" y="106.3" width="3.6" height="3.1"/>
					</defs>
					<clipPath id="SVGID_52_">
						<use xlink:href="#SVGID_51_"  style="overflow:visible;"/>
					</clipPath>
				</g>
			</g>
		</g>
	</g>
	<g>
		<g>
			<defs>
				<polygon id="SVGID_53_" points="72.6,109.8 72.7,110.3 75.6,108.2 75.3,107.8 				"/>
			</defs>
			<clipPath id="SVGID_54_">
				<use xlink:href="#SVGID_53_"  style="overflow:visible;"/>
			</clipPath>
			<g class="st24">
				<g>
					<defs>
						<rect id="SVGID_55_" x="72.2" y="107.5" width="3.8" height="3.1"/>
					</defs>
					<clipPath id="SVGID_56_">
						<use xlink:href="#SVGID_55_"  style="overflow:visible;"/>
					</clipPath>
				</g>
			</g>
		</g>
	</g>
	<g>
		<g>
			<defs>
				<path id="SVGID_57_" d="M38.6,91.5c-7.3,6.1-15.1,20.6-5.9,33.2s17.3,11.6,19.2,11.4c2-0.2,18.1-1,20.6-14.5
					c2.6-13.6-4.7-36.4-15.6-35.2c0,0-0.7-0.1-1.8-0.1C51.8,86.3,44.1,86.9,38.6,91.5"/>
			</defs>
			<clipPath id="SVGID_58_">
				<use xlink:href="#SVGID_57_"  style="overflow:visible;"/>
			</clipPath>
			
				<radialGradient id="SVGID_59_" cx="-261.5175" cy="-457.673" r="1" gradientTransform="matrix(31.5919 0 0 31.5919 8309.8174 14570.123)" gradientUnits="userSpaceOnUse">
				<stop  offset="0" style="stop-color:#8A5734"/>
				<stop  offset="0.7739" style="stop-color:#D17432"/>
				<stop  offset="1" style="stop-color:#D17432"/>
			</radialGradient>
			<rect x="23.5" y="85.1" class="st25" width="51.7" height="52.1"/>
		</g>
	</g>
	<g>
		<g>
			<defs>
				<path id="SVGID_60_" d="M35.2,134.4c0,0-17.7,11.4-22.8,38.1s-2.4,53.3,0,61.7l2.4,8.4l76.8-31.4l13.7-3c0,0,1.2-44.2-29.4-60.3
					c0,0-4.1-15.1-27-15.1C44.9,132.9,40.4,133.4,35.2,134.4"/>
			</defs>
			<clipPath id="SVGID_61_">
				<use xlink:href="#SVGID_60_"  style="overflow:visible;"/>
			</clipPath>
			
				<linearGradient id="SVGID_62_" gradientUnits="userSpaceOnUse" x1="-258.2077" y1="-438.9379" x2="-257.2077" y2="-438.9379" gradientTransform="matrix(-94.6706 14.4905 -14.4905 -94.6706 -30701.541 -37632.3398)">
				<stop  offset="0" style="stop-color:#44698E"/>
				<stop  offset="5.024401e-03" style="stop-color:#44698E"/>
				<stop  offset="0.1275" style="stop-color:#43688C"/>
				<stop  offset="0.2772" style="stop-color:#416386"/>
				<stop  offset="0.4411" style="stop-color:#3C5B7A"/>
				<stop  offset="0.6152" style="stop-color:#34506B"/>
				<stop  offset="0.7974" style="stop-color:#283F54"/>
				<stop  offset="0.9837" style="stop-color:#162635"/>
				<stop  offset="1" style="stop-color:#142432"/>
			</linearGradient>
			<polygon class="st26" points="123,240.1 9.6,257.4 -9.1,135.4 104.3,118.1 			"/>
		</g>
	</g>
	<g>
		<g>
			<defs>
				<path id="SVGID_63_" d="M59.2,142c0,0-9.8,10.7-4.7,21.3S99,209.7,99,209.7s7.5,3.5,11.4,1.6c1.5-0.8,8.1-1.8,15.6-7.9
					c15.7-12.8,28.1-19.3,28.1-19.3s-0.1-7.1-5.6-7.9c-5.5-0.8-12.2,4.2-12.2,4.2l-28.6,15.5c0,0-18.9-56.6-40.6-56.6
					C64.5,139.3,61.9,140.1,59.2,142"/>
			</defs>
			<clipPath id="SVGID_64_">
				<use xlink:href="#SVGID_63_"  style="overflow:visible;"/>
			</clipPath>
			
				<linearGradient id="SVGID_65_" gradientUnits="userSpaceOnUse" x1="-263.6623" y1="-434.2993" x2="-262.6623" y2="-434.2993" gradientTransform="matrix(-31.8351 27.4175 -27.4175 -31.8351 -20192.3984 -6426.8018)">
				<stop  offset="0" style="stop-color:#44698E"/>
				<stop  offset="5.024401e-03" style="stop-color:#44698E"/>
				<stop  offset="0.1275" style="stop-color:#43688C"/>
				<stop  offset="0.2772" style="stop-color:#416386"/>
				<stop  offset="0.4411" style="stop-color:#3C5B7A"/>
				<stop  offset="0.6152" style="stop-color:#34506B"/>
				<stop  offset="0.7974" style="stop-color:#283F54"/>
				<stop  offset="0.9837" style="stop-color:#162635"/>
				<stop  offset="1" style="stop-color:#142432"/>
			</linearGradient>
			<polygon class="st27" points="190.6,181.7 94,264.9 12.9,170.8 109.5,87.5 			"/>
		</g>
	</g>
	<g>
		<g>
			<defs>
				<path id="SVGID_66_" d="M26.6,113.4c1.2,10,10.4,12.8,14.1,13.8c3.7,1,15.1-1.4,17.1-5.5s-0.4-7.9-2-10.4
					c-1.6-2.6,1.2-5.1,4.5-5.9s11.4-4.5,11.4-6.1s-4.1-7.5-4.1-7.5s-8.8,1-13.4,0c-4.5-1-16.6-2.4-16.6-2.4
					C29.5,93.6,25.4,103.4,26.6,113.4"/>
			</defs>
			<clipPath id="SVGID_67_">
				<use xlink:href="#SVGID_66_"  style="overflow:visible;"/>
			</clipPath>
			
				<linearGradient id="SVGID_68_" gradientUnits="userSpaceOnUse" x1="-260.8845" y1="-454.7227" x2="-259.8845" y2="-454.7227" gradientTransform="matrix(39.9545 0 0 39.9545 10452.8711 18277.0176)">
				<stop  offset="0" style="stop-color:#949595"/>
				<stop  offset="1" style="stop-color:#FDFDFD"/>
			</linearGradient>
			<rect x="25.4" y="89.4" class="st28" width="46.4" height="38.8"/>
		</g>
	</g>
	<path class="st29" d="M59.4,106.2c0,0-2.4-2.2-3.8-0.7c-1.5,1.5-1.7,5.6,0,7.9s2.9,3.7,2.9,3.7L59.4,106.2z"/>
	<path class="st30" d="M72.1,106c0,0,1.6,0.1,2.8,0.8c0.7,0.4,1.3,1.1,1.1,2.2c-0.6,4-0.7,5-2.9,4.7"/>
	<line class="st31" x1="59" y1="105.5" x2="75.6" y2="109.9"/>
	<g>
		<g>
			<defs>
				<path id="SVGID_69_" d="M327.9,125.5l3.2,23.5c0,3.8,6.3,6.9,14,6.9s14-3.1,14-6.9l3.2-23.5H327.9z"/>
			</defs>
			<clipPath id="SVGID_70_">
				<use xlink:href="#SVGID_69_"  style="overflow:visible;"/>
			</clipPath>
			
				<linearGradient id="SVGID_71_" gradientUnits="userSpaceOnUse" x1="-261.2675" y1="-456.5086" x2="-260.2675" y2="-456.5086" gradientTransform="matrix(34.4472 0 0 34.4472 9327.833 15866.0947)">
				<stop  offset="0" style="stop-color:#44698E"/>
				<stop  offset="5.024401e-03" style="stop-color:#44698E"/>
				<stop  offset="0.1275" style="stop-color:#43688C"/>
				<stop  offset="0.2772" style="stop-color:#416386"/>
				<stop  offset="0.4411" style="stop-color:#3C5B7A"/>
				<stop  offset="0.6152" style="stop-color:#34506B"/>
				<stop  offset="0.7974" style="stop-color:#283F54"/>
				<stop  offset="0.9837" style="stop-color:#162635"/>
				<stop  offset="1" style="stop-color:#142432"/>
			</linearGradient>
			<rect x="327.9" y="125.5" class="st32" width="34.4" height="30.3"/>
		</g>
	</g>
	<g>
		<g>
			<defs>
				<path id="SVGID_72_" d="M327.9,125.5c0,4.7,7.7,8.5,17.2,8.5s17.2-3.8,17.2-8.5s-7.7-8.5-17.2-8.5S327.9,120.8,327.9,125.5"/>
			</defs>
			<clipPath id="SVGID_73_">
				<use xlink:href="#SVGID_72_"  style="overflow:visible;"/>
			</clipPath>
			
				<linearGradient id="SVGID_74_" gradientUnits="userSpaceOnUse" x1="-255.6804" y1="-430.7519" x2="-254.6804" y2="-430.7519" gradientTransform="matrix(-34.4469 -0.1029 0.1029 -34.4469 -8400.2129 -14738.874)">
				<stop  offset="0" style="stop-color:#44698E"/>
				<stop  offset="5.024401e-03" style="stop-color:#44698E"/>
				<stop  offset="0.1275" style="stop-color:#43688C"/>
				<stop  offset="0.2772" style="stop-color:#416386"/>
				<stop  offset="0.4411" style="stop-color:#3C5B7A"/>
				<stop  offset="0.6152" style="stop-color:#34506B"/>
				<stop  offset="0.7974" style="stop-color:#283F54"/>
				<stop  offset="0.9837" style="stop-color:#162635"/>
				<stop  offset="1" style="stop-color:#142432"/>
			</linearGradient>
			<polygon class="st33" points="362.4,134 327.9,133.9 327.9,116.9 362.4,117 			"/>
		</g>
	</g>
	<path class="st34" d="M342.3,133.5c0,0,1.7-50.1-9.2-72.8"/>
	<g>
		<g>
			<defs>
				<path id="SVGID_75_" d="M316.4,63c3.3,9.5,17.3,19.3,17.2-2c0,0,5.1,8.9,9.9,6.8c4.9-2.1,11.1-16.1-20.5-35.3
					C323,32.5,313,53.4,316.4,63"/>
			</defs>
			<clipPath id="SVGID_76_">
				<use xlink:href="#SVGID_75_"  style="overflow:visible;"/>
			</clipPath>
			
				<linearGradient id="SVGID_77_" gradientUnits="userSpaceOnUse" x1="-252.4647" y1="-430.7362" x2="-251.4647" y2="-430.7362" gradientTransform="matrix(-30.9708 -7.0324 7.0324 -30.9708 -4449.6943 -15056.8662)">
				<stop  offset="0" style="stop-color:#274F23"/>
				<stop  offset="0.3687" style="stop-color:#295024"/>
				<stop  offset="0.9366" style="stop-color:#4AA334"/>
				<stop  offset="1" style="stop-color:#4AA334"/>
			</linearGradient>
			<polygon class="st35" points="352.5,91.2 302.3,79.8 315.1,23.5 365.3,34.9 			"/>
		</g>
	</g>
	<path class="st34" d="M359.3,67.8c-17.7,7.7-11.9,65.7-11.9,65.7"/>
	<g>
		<g>
			<defs>
				<path id="SVGID_78_" d="M358.7,53.6c-9.7,2.5-13.4,12,0,14.9c0,0-2.7,13.8,10,9.1c12.7-4.8,15.2-18.6,15.2-18.6
					s-11.5-5.9-20.9-5.9C361.4,53.1,360,53.2,358.7,53.6"/>
			</defs>
			<clipPath id="SVGID_79_">
				<use xlink:href="#SVGID_78_"  style="overflow:visible;"/>
			</clipPath>
			
				<linearGradient id="SVGID_80_" gradientUnits="userSpaceOnUse" x1="-241.365" y1="-443.9602" x2="-240.365" y2="-443.9602" gradientTransform="matrix(-5.2842 -25.9694 25.9694 -5.2842 10620.8311 -8534.9688)">
				<stop  offset="0" style="stop-color:#274F23"/>
				<stop  offset="0.3697" style="stop-color:#274F23"/>
				<stop  offset="1" style="stop-color:#4AA334"/>
			</linearGradient>
			<polygon class="st36" points="346.8,89.8 339.6,54.2 382.3,45.6 389.5,81.2 			"/>
		</g>
	</g>
	<path class="st34" d="M337.1,132.8c0,0-5.4-36.2-15.8-44.2"/>
	<g>
		<g>
			<defs>
				<path id="SVGID_81_" d="M293.5,78.9c0,0,9.3,8.9,11.8,15.2c2.5,6.3,20.8,5.6,16.5-4.6c0,0,19.2-5.1,0.8-12.9
					c-5.1-2.2-9.7-2.9-13.6-2.9C299,73.7,293.5,78.9,293.5,78.9"/>
			</defs>
			<clipPath id="SVGID_82_">
				<use xlink:href="#SVGID_81_"  style="overflow:visible;"/>
			</clipPath>
			
				<linearGradient id="SVGID_83_" gradientUnits="userSpaceOnUse" x1="-261.0721" y1="-455.5738" x2="-260.0721" y2="-455.5738" gradientTransform="matrix(37.0477 0 0 37.0477 9965.5684 16965.0098)">
				<stop  offset="0" style="stop-color:#274F23"/>
				<stop  offset="0.1702" style="stop-color:#274F23"/>
				<stop  offset="1" style="stop-color:#4AA334"/>
			</linearGradient>
			<rect x="293.5" y="73.7" class="st37" width="47.5" height="26.7"/>
		</g>
	</g>
	<path class="st34" d="M330.5,77.5c7.6,11.1,8.9,55.6,8.9,55.6"/>
	<g>
		<g>
			<defs>
				<path id="SVGID_84_" d="M311.8,73.9c5.4,10.2,19.2,16.3,19,4.8c0,0,12.4,4.5,17.3-4.8s-14.6-23.8-32.7-31.2
					C315.4,42.7,306.4,63.7,311.8,73.9"/>
			</defs>
			<clipPath id="SVGID_85_">
				<use xlink:href="#SVGID_84_"  style="overflow:visible;"/>
			</clipPath>
			
				<linearGradient id="SVGID_86_" gradientUnits="userSpaceOnUse" x1="-250.5178" y1="-435.0155" x2="-249.5178" y2="-435.0155" gradientTransform="matrix(-33.3304 -19.9135 19.9135 -33.3304 655.1688 -19413.9199)">
				<stop  offset="0" style="stop-color:#274F23"/>
				<stop  offset="0.1836" style="stop-color:#274F23"/>
				<stop  offset="1" style="stop-color:#4AA334"/>
			</linearGradient>
			<polygon class="st38" points="340.7,110.7 285.4,77.7 318.6,22.1 373.9,55.2 			"/>
		</g>
	</g>
	<path class="st34" d="M350.7,133.2c0,0,1.2-42.4,11.6-44.6"/>
	<g>
		<g>
			<defs>
				<path id="SVGID_87_" d="M356.3,78.7c0,0-3.3,3.1-1.4,6.3c2,3.3,7.1,3.7,7.1,3.7s-2.7,4.4,0.9,7.2c3.6,2.9,14.8,0,18.7-11.9
					c0,0,1.4-3.6,1.2-7.1c0,0-6.8-2.1-14-2.1C364.2,74.9,359.4,75.8,356.3,78.7"/>
			</defs>
			<clipPath id="SVGID_88_">
				<use xlink:href="#SVGID_87_"  style="overflow:visible;"/>
			</clipPath>
			
				<linearGradient id="SVGID_89_" gradientUnits="userSpaceOnUse" x1="-261.8391" y1="-459.1348" x2="-260.8391" y2="-459.1348" gradientTransform="matrix(28.5553 0 0 28.5553 7831.2446 13197.582)">
				<stop  offset="0" style="stop-color:#274F23"/>
				<stop  offset="0.2147" style="stop-color:#274F23"/>
				<stop  offset="1" style="stop-color:#4AA334"/>
			</linearGradient>
			<rect x="353" y="74.9" class="st39" width="30" height="23.9"/>
		</g>
	</g>
	<g>
		<g>
			<defs>
				<path id="SVGID_90_" d="M344,94.8c-7.1,0.3-6.8,13.8,7.4,24.1c0,0,23.4-12,11-20.8c0,0-6.2-4.1-9.4,1.8c0,0-1.8-5.1-8.4-5.1
					C344.3,94.8,344.1,94.8,344,94.8"/>
			</defs>
			<clipPath id="SVGID_91_">
				<use xlink:href="#SVGID_90_"  style="overflow:visible;"/>
			</clipPath>
			
				<linearGradient id="SVGID_92_" gradientUnits="userSpaceOnUse" x1="-242.4201" y1="-437.8474" x2="-241.4201" y2="-437.8474" gradientTransform="matrix(-14.0142 -22.6086 22.6086 -14.0142 6861.0327 -11504.8096)">
				<stop  offset="0" style="stop-color:#274F23"/>
				<stop  offset="1" style="stop-color:#4AA334"/>
			</linearGradient>
			<polygon class="st40" points="347.4,135.9 325.7,101 364.2,77.1 385.9,112 			"/>
		</g>
	</g>
	<g>
		<g>
			<defs>
				<path id="SVGID_93_" d="M182.2,190.9l0.9,2.2l20.8,9.6c0,0,2.1,0.8,6.4-1c4.3-1.8,32.2-14.5,32.2-14.5l1.2-2.2L182.2,190.9z"/>
			</defs>
			<clipPath id="SVGID_94_">
				<use xlink:href="#SVGID_93_"  style="overflow:visible;"/>
			</clipPath>
			
				<linearGradient id="SVGID_95_" gradientUnits="userSpaceOnUse" x1="-256.9611" y1="-436.4186" x2="-255.9597" y2="-436.4186" gradientTransform="matrix(-61.5699 0.1727 -0.1727 -61.5699 -15663.8057 -26631.5801)">
				<stop  offset="0" style="stop-color:#6B6B6A"/>
				<stop  offset="0.3131" style="stop-color:#6B6B6A"/>
				<stop  offset="0.6012" style="stop-color:#C2C2C2"/>
				<stop  offset="1" style="stop-color:#C2C2C2"/>
			</linearGradient>
			<polygon class="st41" points="243.8,203.6 182.2,203.8 182.2,185.1 243.8,184.9 			"/>
		</g>
	</g>
	<g>
		<g>
			<defs>
				<path id="SVGID_96_" d="M217.6,174.5L183,189.8c-1.1,0.5-1,1.3,0.2,1.9l21,9.2c1.2,0.5,3.1,0.6,4.3,0.1l34.6-15.3
					c1.1-0.5,1-1.3-0.2-1.9l-21-9.2c-0.6-0.3-1.5-0.4-2.3-0.4C218.9,174.2,218.1,174.3,217.6,174.5"/>
			</defs>
			<clipPath id="SVGID_97_">
				<use xlink:href="#SVGID_96_"  style="overflow:visible;"/>
			</clipPath>
			
				<linearGradient id="SVGID_98_" gradientUnits="userSpaceOnUse" x1="-257.0595" y1="-436.3999" x2="-256.0595" y2="-436.3999" gradientTransform="matrix(-61.6065 1.0045 -1.0045 -61.6065 -16028.8906 -26439.541)">
				<stop  offset="0" style="stop-color:#353535"/>
				<stop  offset="1" style="stop-color:#6A6C6C"/>
			</linearGradient>
			<polygon class="st42" points="244.6,201.5 181.9,202.5 181.5,174.2 244.2,173.2 			"/>
		</g>
	</g>
	<polygon class="st43" points="216.6,176.1 238.9,185.8 209,199.2 186.9,189.4 	"/>
	<polygon class="st44" points="213,178.9 216.1,177.5 234.2,186.1 231,187.5 	"/>
	<polygon class="st44" points="208.5,180.9 211.7,179.5 224.8,185.7 221.7,187.2 	"/>
	<polygon class="st44" points="204.2,182.9 207.4,181.5 218.7,186.8 215.6,188.2 	"/>
	<polygon class="st44" points="199.8,184.8 203,183.4 217.8,190.4 214.7,191.8 	"/>
	<polygon class="st44" points="195.5,186.8 198.7,185.4 208.1,189.8 204.9,191.2 	"/>
	<polygon class="st44" points="191.1,188.7 194.3,187.3 206.6,193.1 203.4,194.5 	"/>
</g>
</svg>
