<?xml version="1.0" encoding="utf-8"?>
<!-- Generator: Adobe Illustrator 25.2.3, SVG Export Plug-In . SVG Version: 6.00 Build 0)  -->
<svg version="1.1" id="Laag_1" xmlns="http://www.w3.org/2000/svg" xmlns:xlink="http://www.w3.org/1999/xlink" x="0px" y="0px"
	 viewBox="0 0 252 172.1" style="enable-background:new 0 0 252 172.1;" xml:space="preserve">
<style type="text/css">
	.Slagschaduw{fill:none;}
	.Afgeronde_x0020_hoeken_x0020_2_x0020_pt{fill:#FFFFFF;stroke:#000000;stroke-miterlimit:10;}
	.X_x0020_actief_x0020_weerspiegelen{fill:none;}
	.Zachte_x0020_schuine_x0020_kant{fill:url(#SVGID_1_);}
	.Schemering{fill:#FFFFFF;}
	.Gebladerte_AS{fill:#FFDD00;}
	.Pompadoer_AS{fill-rule:evenodd;clip-rule:evenodd;fill:#51AEE2;}
	.st0{clip-path:url(#SVGID_3_);fill:url(#SVGID_4_);}
	.st1{clip-path:url(#SVGID_6_);fill:url(#SVGID_7_);}
	.st2{fill:#A7CDDD;}
	.st3{fill:#515151;}
	.st4{fill:none;stroke:#FFFFFF;stroke-width:0.283;stroke-miterlimit:10;}
	.st5{clip-path:url(#SVGID_9_);fill:url(#SVGID_10_);}
	.st6{clip-path:url(#SVGID_12_);fill:url(#SVGID_13_);}
	.st7{clip-path:url(#SVGID_15_);fill:url(#SVGID_16_);}
	.st8{clip-path:url(#SVGID_18_);fill:url(#SVGID_19_);}
	.st9{clip-path:url(#SVGID_21_);fill:url(#SVGID_22_);}
	.st10{clip-path:url(#SVGID_24_);fill:url(#SVGID_25_);}
	.st11{clip-path:url(#SVGID_27_);fill:url(#SVGID_28_);}
	.st12{fill:none;stroke:#353535;stroke-miterlimit:10;}
</style>
<linearGradient id="SVGID_1_" gradientUnits="userSpaceOnUse" x1="77.4553" y1="37.9432" x2="78.1624" y2="38.6503">
	<stop  offset="0" style="stop-color:#E6E6EB"/>
	<stop  offset="0.1738" style="stop-color:#E2E2E6"/>
	<stop  offset="0.352" style="stop-color:#D5D4D8"/>
	<stop  offset="0.5323" style="stop-color:#C0BFC2"/>
	<stop  offset="0.7139" style="stop-color:#A4A2A4"/>
	<stop  offset="0.8949" style="stop-color:#828282"/>
	<stop  offset="1" style="stop-color:#6B6E6E"/>
</linearGradient>
<g>
	<g>
		<defs>
			<path id="SVGID_2_" d="M133.2,15.7L18.1,94l-9.2,1.5c0,0,2.2,10.1,5.9,12.6c8.9,6.2,12.5,8.7,12.5,8.7s55.6,37.7,66.5,43.2
				c10.9,5.6,18.8,1.3,18.8,1.3l123.3-99.8c6.5-6.9,4.9-16.9,4.9-16.9l-4.6,0.8c-1.3-0.9-2.4-1.3-2.4-1.3s-72.4-28.1-83.2-31
				c-2.2-0.6-4.3-0.8-6.1-0.8C137.3,12.2,133.2,15.7,133.2,15.7"/>
		</defs>
		<clipPath id="SVGID_3_">
			<use xlink:href="#SVGID_2_"  style="overflow:visible;"/>
		</clipPath>
		
			<linearGradient id="SVGID_4_" gradientUnits="userSpaceOnUse" x1="-468.3315" y1="507.5262" x2="-467.3315" y2="507.5262" gradientTransform="matrix(-232.0486 -5.2601 -5.2601 232.0486 -105774.2188 -120142.9375)">
			<stop  offset="0" style="stop-color:#6B6B6A"/>
			<stop  offset="0.4977" style="stop-color:#6B6B6A"/>
			<stop  offset="0.6012" style="stop-color:#C2C2C2"/>
			<stop  offset="1" style="stop-color:#C2C2C2"/>
		</linearGradient>
		<polygon class="st0" points="242.2,170.9 5.4,165.5 9,6.9 245.8,12.3 		"/>
	</g>
	<g>
		<defs>
			<path id="SVGID_5_" d="M133.2,8.6l-120.6,82c-7,4.7-1.9,8-1.9,8s72.2,48.8,83,54.4c10.9,5.6,18.8,1.3,18.8,1.3l121.2-97.1
				c15.9-14.1,0-20.2,0-20.2s-72.4-28.1-83.2-31c-2.2-0.6-4.3-0.8-6.1-0.8C137.3,5.1,133.2,8.6,133.2,8.6"/>
		</defs>
		<clipPath id="SVGID_6_">
			<use xlink:href="#SVGID_5_"  style="overflow:visible;"/>
		</clipPath>
		
			<linearGradient id="SVGID_7_" gradientUnits="userSpaceOnUse" x1="-464.725" y1="510.3199" x2="-463.725" y2="510.3199" gradientTransform="matrix(231.9665 0 0 -231.9665 107809.4766 118458.8828)">
			<stop  offset="0" style="stop-color:#353535"/>
			<stop  offset="1" style="stop-color:#6A6C6C"/>
		</linearGradient>
		<rect x="5.5" y="5.1" class="st1" width="244.2" height="153.4"/>
	</g>
	<polygon class="st2" points="136.6,9.2 235.7,50.5 117.9,145.6 20.7,88.7 	"/>
	<path class="st3" d="M62.9,119.3c0,2.6-2.6,4.6-5.9,4.6c-3.2,0-5.9-2.1-5.9-4.6c0-2.6,2.6-4.6,5.9-4.6
		C60.2,114.7,62.9,116.8,62.9,119.3"/>
	<line class="st4" x1="34.3" y1="89.3" x2="141.5" y2="15.5"/>
	<line class="st4" x1="42.8" y1="94.1" x2="146.9" y2="19.5"/>
	<line class="st4" x1="52" y1="99.4" x2="155.9" y2="23"/>
	<line class="st4" x1="61.6" y1="104.8" x2="164.6" y2="26.7"/>
	<line class="st4" x1="72.9" y1="111.1" x2="174.3" y2="32"/>
	<line class="st4" x1="84.9" y1="117.9" x2="184.4" y2="37.1"/>
	<line class="st4" x1="95.5" y1="124" x2="197.4" y2="42.5"/>
	<line class="st4" x1="107" y1="130.5" x2="208.9" y2="48"/>
	<g>
		<defs>
			<polygon id="SVGID_8_" points="74.9,107.8 118.5,133.4 129.8,124.6 87.2,99.8 			"/>
		</defs>
		<clipPath id="SVGID_9_">
			<use xlink:href="#SVGID_8_"  style="overflow:visible;"/>
		</clipPath>
		
			<linearGradient id="SVGID_10_" gradientUnits="userSpaceOnUse" x1="-458.8587" y1="514.7831" x2="-457.8587" y2="514.7831" gradientTransform="matrix(54.9184 0 0 -54.9184 25274.6504 28387.6875)">
			<stop  offset="0" style="stop-color:#0C9F39"/>
			<stop  offset="2.613850e-03" style="stop-color:#0C9F39"/>
			<stop  offset="1" style="stop-color:#0E782A"/>
		</linearGradient>
		<rect x="74.9" y="99.8" class="st5" width="54.9" height="33.6"/>
	</g>
	<g>
		<defs>
			<polygon id="SVGID_11_" points="72.9,87.6 132.8,122.1 144,113.3 85.2,79.5 			"/>
		</defs>
		<clipPath id="SVGID_12_">
			<use xlink:href="#SVGID_11_"  style="overflow:visible;"/>
		</clipPath>
		
			<linearGradient id="SVGID_13_" gradientUnits="userSpaceOnUse" x1="-460.6137" y1="513.4496" x2="-459.6137" y2="513.4496" gradientTransform="matrix(71.1684 0 0 -71.1684 32854 36642.2188)">
			<stop  offset="0" style="stop-color:#0C9F39"/>
			<stop  offset="2.613850e-03" style="stop-color:#0C9F39"/>
			<stop  offset="1" style="stop-color:#0E782A"/>
		</linearGradient>
		<rect x="72.9" y="79.5" class="st6" width="71.2" height="42.6"/>
	</g>
	<g>
		<defs>
			<polygon id="SVGID_14_" points="81.2,72.7 147.3,110.8 158.6,102.1 92.6,64.1 			"/>
		</defs>
		<clipPath id="SVGID_15_">
			<use xlink:href="#SVGID_14_"  style="overflow:visible;"/>
		</clipPath>
		
			<linearGradient id="SVGID_16_" gradientUnits="userSpaceOnUse" x1="-461.0927" y1="513.0856" x2="-460.0928" y2="513.0856" gradientTransform="matrix(77.4224 0 0 -77.4224 35780.0859 39811.8086)">
			<stop  offset="0" style="stop-color:#0C9F39"/>
			<stop  offset="2.613850e-03" style="stop-color:#0C9F39"/>
			<stop  offset="1" style="stop-color:#0E782A"/>
		</linearGradient>
		<rect x="81.2" y="64.1" class="st7" width="77.4" height="46.7"/>
	</g>
	<g>
		<defs>
			<polygon id="SVGID_17_" points="99.5,64.1 161.2,99.8 172.5,91 109.7,55.7 			"/>
		</defs>
		<clipPath id="SVGID_18_">
			<use xlink:href="#SVGID_17_"  style="overflow:visible;"/>
		</clipPath>
		
			<linearGradient id="SVGID_19_" gradientUnits="userSpaceOnUse" x1="-460.7628" y1="513.3364" x2="-459.7628" y2="513.3364" gradientTransform="matrix(73.0035 0 0 -73.0035 33736.7539 37553.1133)">
			<stop  offset="0" style="stop-color:#0C9F39"/>
			<stop  offset="2.613850e-03" style="stop-color:#0C9F39"/>
			<stop  offset="1" style="stop-color:#0E782A"/>
		</linearGradient>
		<rect x="99.5" y="55.7" class="st8" width="73" height="44.1"/>
	</g>
	<g>
		<defs>
			<polygon id="SVGID_20_" points="96.6,44.6 175.1,89.3 186.4,80.5 106.7,37.1 			"/>
		</defs>
		<clipPath id="SVGID_21_">
			<use xlink:href="#SVGID_20_"  style="overflow:visible;"/>
		</clipPath>
		
			<linearGradient id="SVGID_22_" gradientUnits="userSpaceOnUse" x1="-461.8452" y1="512.5139" x2="-460.8452" y2="512.5139" gradientTransform="matrix(89.8179 0 0 -89.8179 41578.5352 46096.1484)">
			<stop  offset="0" style="stop-color:#0C9F39"/>
			<stop  offset="2.613850e-03" style="stop-color:#0C9F39"/>
			<stop  offset="1" style="stop-color:#0E782A"/>
		</linearGradient>
		<rect x="96.6" y="37.1" class="st9" width="89.8" height="52.2"/>
	</g>
	<g>
		<defs>
			<polygon id="SVGID_23_" points="119.9,39.5 190.1,77.4 201.4,68.6 128.7,33 			"/>
		</defs>
		<clipPath id="SVGID_24_">
			<use xlink:href="#SVGID_23_"  style="overflow:visible;"/>
		</clipPath>
		
			<linearGradient id="SVGID_25_" gradientUnits="userSpaceOnUse" x1="-461.3646" y1="512.8791" x2="-460.3646" y2="512.8791" gradientTransform="matrix(81.4855 0 0 -81.4855 37714.4219 41847.3789)">
			<stop  offset="0" style="stop-color:#0C9F39"/>
			<stop  offset="2.613850e-03" style="stop-color:#0C9F39"/>
			<stop  offset="1" style="stop-color:#0E782A"/>
		</linearGradient>
		<rect x="119.9" y="33" class="st10" width="81.5" height="44.4"/>
	</g>
	<g>
		<defs>
			<polygon id="SVGID_26_" points="133.4,31.2 204,66.8 215.2,58 142.9,24.2 			"/>
		</defs>
		<clipPath id="SVGID_27_">
			<use xlink:href="#SVGID_26_"  style="overflow:visible;"/>
		</clipPath>
		
			<linearGradient id="SVGID_28_" gradientUnits="userSpaceOnUse" x1="-461.3868" y1="512.8622" x2="-460.3868" y2="512.8622" gradientTransform="matrix(81.8356 0 0 -81.8356 37891.2891 42015.9297)">
			<stop  offset="0" style="stop-color:#0C9F39"/>
			<stop  offset="2.613850e-03" style="stop-color:#0C9F39"/>
			<stop  offset="1" style="stop-color:#0E782A"/>
		</linearGradient>
		<rect x="133.4" y="24.2" class="st11" width="81.8" height="42.6"/>
	</g>
	<polyline class="st12" points="221.9,52.8 115.9,135.5 31.2,87.6 	"/>
</g>
</svg>
