<?xml version="1.0" encoding="utf-8"?>
<!-- Generator: Adobe Illustrator 25.2.3, SVG Export Plug-In . SVG Version: 6.00 Build 0)  -->
<svg version="1.1" id="Laag_1" xmlns="http://www.w3.org/2000/svg" xmlns:xlink="http://www.w3.org/1999/xlink" x="0px" y="0px"
	 viewBox="0 0 100 100" style="enable-background:new 0 0 100 100;" xml:space="preserve">
<style type="text/css">
	.st0{fill:#FFFFFF;}
</style>
<g>
	<path class="st0" d="M74.8,87.5L58.5,55.7c-0.8,4.8-2.3,9.4-4.3,13.6l11.6,22.8c0.9,1.7,2.6,2.7,4.5,2.7c0.8,0,1.5-0.2,2.3-0.5
		C75.1,93,76,90,74.8,87.5z"/>
	<circle class="st0" cx="48.1" cy="13.4" r="8.4"/>
	<path class="st0" d="M68.2,40.5C59,36.6,53,26.7,52.9,26.5c-1.5-2.6-4.9-3.5-7.5-1.9c-0.4,0.2-0.7,0.5-1,0.7
		c-3.4,2.2-12.2,9-16.7,23.8c-0.9,2.8,0.7,5.8,3.6,6.7c2.8,0.9,5.8-0.7,6.7-3.6c1.9-6.3,4.7-10.7,7.2-13.5c0.6,3.7,0.9,8.6,0,14.1
		c-2.8,17.2-18.7,32.8-18.9,33c-2.1,2.1-2.2,5.4-0.1,7.6c1.1,1.1,2.4,1.6,3.8,1.6c1.3,0,2.7-0.5,3.7-1.5
		c0.8-0.7,18.8-18.3,21.9-38.9c0.5-2.9,0.6-5.7,0.7-8.3c2.3,1.7,4.8,3.2,7.6,4.4c0.7,0.3,1.4,0.4,2.1,0.4c2.1,0,4.2-1.3,5.1-3.3
		C72.3,44.9,71,41.7,68.2,40.5z"/>
</g>
</svg>
